<svg width="830" height="712" viewBox="0 0 830 712" fill="none" xmlns="http://www.w3.org/2000/svg">
<path d="M25.5763 427.044L59.5583 417.523L0 331.363V710.954H233.139L25.5763 427.044Z" fill="#97D9B6"></path>
<path d="M264.742 9.15527e-05L485.502 85.6799L484.096 48.9605L695.012 133.28L692.2 102.001L830 145.521V208.081L740.008 174.081L741.414 210.802L527.686 106.08L533.31 159.12L264.742 9.15527e-05Z" fill="#97D9B6"></path>
<path d="M574.088 178.161L706.262 248.881L702.044 218.962L830 284.243L828.594 357.683L574.088 178.161Z" fill="#97D9B6"></path>
<mask id="mask0_217_10624" style="mask-type:luminance" maskUnits="userSpaceOnUse" x="66" y="399" width="405" height="313">
<path d="M470.034 711.287H66.5894V399.843H470.034V711.287Z" fill="white"></path>
</mask>
<g mask="url(#mask0_217_10624)">
<path d="M334.968 912.82H445.187V409.921H334.968V912.82Z" fill="#71B9AF"></path>
<path d="M96.1648 912.82H400.429V409.921H96.1648V912.82Z" fill="#84C8BE"></path>
<path d="M111.878 457.818H386.144V418.212H111.878V457.818Z" fill="#71B9AF"></path>
<path d="M138.543 581.704C138.543 641.986 189.068 690.854 251.392 690.854C313.717 690.854 364.242 641.986 364.242 581.704C364.242 521.423 313.717 472.556 251.392 472.556C189.068 472.556 138.543 521.423 138.543 581.704Z" fill="#4A8D8D"></path>
<path d="M148.236 581.704C148.236 636.808 194.421 681.48 251.392 681.48C308.363 681.48 354.548 636.808 354.548 581.704C354.548 526.601 308.363 481.931 251.392 481.931C194.421 481.931 148.236 526.601 148.236 581.704Z" fill="#71B9AF"></path>
</g>
<mask id="mask1_217_10624" style="mask-type:luminance" maskUnits="userSpaceOnUse" x="149" y="482" width="205" height="199">
<path d="M149.266 581.704C149.266 636.258 194.99 680.482 251.392 680.482C307.796 680.482 353.519 636.258 353.519 581.704C353.519 527.152 307.796 482.928 251.392 482.928C194.99 482.928 149.266 527.152 149.266 581.704Z" fill="white"></path>
</mask>
<g mask="url(#mask1_217_10624)">
<path d="M457.775 641.422L191.202 383.591L191.876 382.938L458.449 640.77L457.775 641.422Z" fill="#226953"></path>
<path d="M448.999 649.911L182.426 392.079L183.1 391.426L449.673 649.259L448.999 649.911Z" fill="#226953"></path>
<path d="M440.222 658.399L173.649 400.566L174.323 399.913L440.896 657.747L440.222 658.399Z" fill="#226953"></path>
<path d="M431.446 666.888L164.874 409.055L165.549 408.402L432.119 666.234L431.446 666.888Z" fill="#226953"></path>
<path d="M422.669 675.377L156.098 417.542L156.772 416.891L423.343 674.725L422.669 675.377Z" fill="#226953"></path>
<path d="M413.895 683.864L147.321 426.033L147.996 425.379L414.57 683.21L413.895 683.864Z" fill="#226953"></path>
<path d="M405.118 692.352L138.545 434.52L139.22 433.868L405.794 691.699L405.118 692.352Z" fill="#226953"></path>
<path d="M396.341 700.841L129.768 443.01L130.443 442.356L397.017 700.188L396.341 700.841Z" fill="#226953"></path>
<path d="M387.565 709.33L120.994 451.496L121.669 450.844L388.241 708.676L387.565 709.33Z" fill="#226953"></path>
<path d="M378.789 717.818L112.218 459.984L112.892 459.332L379.464 717.165L378.789 717.818Z" fill="#226953"></path>
<path d="M370.012 726.307L103.441 468.473L104.116 467.821L370.688 725.654L370.012 726.307Z" fill="#226953"></path>
<path d="M361.238 734.792L94.6648 476.961L95.3397 476.309L361.913 734.141L361.238 734.792Z" fill="#226953"></path>
<path d="M352.461 743.283L85.8887 485.45L86.5631 484.798L353.137 742.63L352.461 743.283Z" fill="#226953"></path>
<path d="M343.685 751.771L77.1123 493.937L77.7874 493.285L344.361 751.118L343.685 751.771Z" fill="#226953"></path>
<path d="M334.91 760.259L68.3376 502.426L69.0126 501.774L335.584 759.607L334.91 760.259Z" fill="#226953"></path>
<path d="M326.134 768.747L59.5618 510.914L60.2361 510.262L326.808 768.095L326.134 768.747Z" fill="#226953"></path>
<path d="M317.357 777.234L50.7849 519.403L51.4592 518.751L318.031 776.582L317.357 777.234Z" fill="#226953"></path>
<path d="M308.582 785.723L42.0085 527.892L42.6835 527.24L309.256 785.071L308.582 785.723Z" fill="#226953"></path>
<path d="M191.876 785.723L191.202 785.071L457.775 527.24L458.449 527.892L191.876 785.723Z" fill="#226953"></path>
<path d="M183.1 777.234L182.426 776.582L448.999 518.751L449.673 519.403L183.1 777.234Z" fill="#226953"></path>
<path d="M174.323 768.747L173.649 768.095L440.222 510.262L440.896 510.914L174.323 768.747Z" fill="#226953"></path>
<path d="M165.549 760.259L164.874 759.607L431.446 501.774L432.119 502.426L165.549 760.259Z" fill="#226953"></path>
<path d="M156.772 751.771L156.098 751.118L422.669 493.285L423.343 493.937L156.772 751.771Z" fill="#226953"></path>
<path d="M147.996 743.283L147.321 742.63L413.895 484.798L414.57 485.45L147.996 743.283Z" fill="#226953"></path>
<path d="M139.22 734.792L138.545 734.141L405.118 476.309L405.794 476.961L139.22 734.792Z" fill="#226953"></path>
<path d="M130.443 726.307L129.768 725.654L396.341 467.821L397.017 468.473L130.443 726.307Z" fill="#226953"></path>
<path d="M121.669 717.818L120.994 717.165L387.565 459.332L388.241 459.984L121.669 717.818Z" fill="#226953"></path>
<path d="M112.892 709.33L112.218 708.676L378.789 450.844L379.464 451.496L112.892 709.33Z" fill="#226953"></path>
<path d="M104.116 700.841L103.441 700.188L370.012 442.356L370.688 443.01L104.116 700.841Z" fill="#226953"></path>
<path d="M95.3397 692.352L94.6648 691.699L361.238 433.868L361.913 434.52L95.3397 692.352Z" fill="#226953"></path>
<path d="M86.5631 683.864L85.8887 683.21L352.461 425.379L353.137 426.033L86.5631 683.864Z" fill="#226953"></path>
<path d="M77.7874 675.377L77.1123 674.725L343.685 416.891L344.361 417.542L77.7874 675.377Z" fill="#226953"></path>
<path d="M69.0126 666.888L68.3376 666.234L334.91 408.402L335.584 409.055L69.0126 666.888Z" fill="#226953"></path>
<path d="M60.2361 658.399L59.5618 657.747L326.134 399.913L326.808 400.566L60.2361 658.399Z" fill="#226953"></path>
<path d="M51.4592 649.911L50.7849 649.259L317.357 391.426L318.031 392.079L51.4592 649.911Z" fill="#226953"></path>
<path d="M42.6835 641.422L42.0085 640.77L308.582 382.938L309.256 383.591L42.6835 641.422Z" fill="#226953"></path>
</g>
<mask id="mask2_217_10624" style="mask-type:luminance" maskUnits="userSpaceOnUse" x="66" y="399" width="405" height="313">
<path d="M470.034 711.287H66.5894V399.843H470.034V711.287Z" fill="white"></path>
</mask>
<g mask="url(#mask2_217_10624)">
<path d="M347.099 436.633C347.099 441.721 351.364 445.844 356.623 445.844C361.883 445.844 366.146 441.721 366.146 436.633C366.146 431.546 361.883 427.422 356.623 427.422C351.364 427.422 347.099 431.546 347.099 436.633Z" fill="#4A8D8D"></path>
<path d="M309.96 436.633C309.96 441.721 314.223 445.844 319.482 445.844C324.742 445.844 329.005 441.721 329.005 436.633C329.005 431.546 324.742 427.422 319.482 427.422C314.223 427.422 309.96 431.546 309.96 436.633Z" fill="#4A8D8D"></path>
<path d="M272.819 436.633C272.819 441.721 277.082 445.844 282.343 445.844C287.601 445.844 291.866 441.721 291.866 436.633C291.866 431.546 287.601 427.422 282.343 427.422C277.082 427.422 272.819 431.546 272.819 436.633Z" fill="#4A8D8D"></path>
<path d="M235.679 436.633C235.679 441.721 239.943 445.844 245.202 445.844C250.463 445.844 254.726 441.721 254.726 436.633C254.726 431.546 250.463 427.422 245.202 427.422C239.943 427.422 235.679 431.546 235.679 436.633Z" fill="#4A8D8D"></path>
<path d="M198.539 436.633C198.539 441.721 202.802 445.844 208.063 445.844C213.322 445.844 217.584 441.721 217.584 436.633C217.584 431.546 213.322 427.422 208.063 427.422C202.802 427.422 198.539 431.546 198.539 436.633Z" fill="#4A8D8D"></path>
<path d="M161.399 436.633C161.399 441.721 165.662 445.844 170.922 445.844C176.181 445.844 180.445 441.721 180.445 436.633C180.445 431.546 176.181 427.422 170.922 427.422C165.662 427.422 161.399 431.546 161.399 436.633Z" fill="#4A8D8D"></path>
<path d="M124.258 436.633C124.258 441.721 128.522 445.844 133.782 445.844C139.041 445.844 143.305 441.721 143.305 436.633C143.305 431.546 139.041 427.422 133.782 427.422C128.522 427.422 124.258 431.546 124.258 436.633Z" fill="#4A8D8D"></path>
</g>
<mask id="mask3_217_10624" style="mask-type:luminance" maskUnits="userSpaceOnUse" x="479" y="262" width="351" height="449">
<path d="M830 710.954H479.081V262.906H830V710.954Z" fill="white"></path>
</mask>
<g mask="url(#mask3_217_10624)">
<path d="M712.518 712.645H808.388V275.221H712.518V712.645Z" fill="#4A8D8D"></path>
<path d="M504.806 712.645H769.456V275.221H504.806V712.645Z" fill="#84C8BE"></path>
<path d="M518.474 316.882H757.033V282.431H518.474V316.882Z" fill="#71B9AF"></path>
<path d="M541.668 424.639C541.668 477.072 585.613 519.578 639.824 519.578C694.034 519.578 737.981 477.072 737.981 424.639C737.981 372.206 694.034 329.701 639.824 329.701C585.613 329.701 541.668 372.206 541.668 424.639Z" fill="#4A8D8D"></path>
<path d="M550.099 424.639C550.099 472.568 590.269 511.423 639.824 511.423C689.378 511.423 729.55 472.568 729.55 424.639C729.55 376.711 689.378 337.856 639.824 337.856C590.269 337.856 550.099 376.711 550.099 424.639Z" fill="#71B9AF"></path>
</g>
<mask id="mask4_217_10624" style="mask-type:luminance" maskUnits="userSpaceOnUse" x="550" y="338" width="179" height="173">
<path d="M550.994 424.639C550.994 472.09 590.764 510.556 639.824 510.556C688.883 510.556 728.654 472.09 728.654 424.639C728.654 377.189 688.883 338.723 639.824 338.723C590.764 338.723 550.994 377.189 550.994 424.639Z" fill="white"></path>
</mask>
<g mask="url(#mask4_217_10624)">
<path d="M587.763 252.035L819.628 476.298" stroke="#226953" stroke-width="0.666667" stroke-miterlimit="10"></path>
<path d="M580.13 259.417L811.996 483.682" stroke="#226953" stroke-width="0.666667" stroke-miterlimit="10"></path>
<path d="M572.496 266.801L804.363 491.065" stroke="#226953" stroke-width="0.666667" stroke-miterlimit="10"></path>
<path d="M564.863 274.184L796.729 498.449" stroke="#226953" stroke-width="0.666667" stroke-miterlimit="10"></path>
<path d="M557.229 281.568L789.096 505.831" stroke="#226953" stroke-width="0.666667" stroke-miterlimit="10"></path>
<path d="M549.596 288.95L781.461 513.214" stroke="#226953" stroke-width="0.666667" stroke-miterlimit="10"></path>
<path d="M541.962 296.334L773.829 520.597" stroke="#226953" stroke-width="0.666667" stroke-miterlimit="10"></path>
<path d="M534.329 303.717L766.195 527.98" stroke="#226953" stroke-width="0.666667" stroke-miterlimit="10"></path>
<path d="M526.696 311.101L758.562 535.364" stroke="#226953" stroke-width="0.666667" stroke-miterlimit="10"></path>
<path d="M519.062 318.483L750.928 542.747" stroke="#226953" stroke-width="0.666667" stroke-miterlimit="10"></path>
<path d="M511.429 325.867L743.295 550.13" stroke="#226953" stroke-width="0.666667" stroke-miterlimit="10"></path>
<path d="M503.795 333.25L735.661 557.513" stroke="#226953" stroke-width="0.666667" stroke-miterlimit="10"></path>
<path d="M496.162 340.634L728.028 564.897" stroke="#226953" stroke-width="0.666667" stroke-miterlimit="10"></path>
<path d="M488.528 348.016L720.395 572.279" stroke="#226953" stroke-width="0.666667" stroke-miterlimit="10"></path>
<path d="M480.896 355.398L712.761 579.664" stroke="#226953" stroke-width="0.666667" stroke-miterlimit="10"></path>
<path d="M473.261 362.783L705.128 587.046" stroke="#226953" stroke-width="0.666667" stroke-miterlimit="10"></path>
<path d="M465.628 370.165L697.494 594.43" stroke="#226953" stroke-width="0.666667" stroke-miterlimit="10"></path>
<path d="M457.994 377.549L689.861 601.812" stroke="#226953" stroke-width="0.666667" stroke-miterlimit="10"></path>
<path d="M819.628 377.549L587.763 601.812" stroke="#226953" stroke-width="0.666667" stroke-miterlimit="10"></path>
<path d="M811.996 370.165L580.13 594.43" stroke="#226953" stroke-width="0.666667" stroke-miterlimit="10"></path>
<path d="M804.363 362.783L572.496 587.046" stroke="#226953" stroke-width="0.666667" stroke-miterlimit="10"></path>
<path d="M796.729 355.398L564.863 579.664" stroke="#226953" stroke-width="0.666667" stroke-miterlimit="10"></path>
<path d="M789.096 348.016L557.229 572.279" stroke="#226953" stroke-width="0.666667" stroke-miterlimit="10"></path>
<path d="M781.461 340.634L549.596 564.897" stroke="#226953" stroke-width="0.666667" stroke-miterlimit="10"></path>
<path d="M773.829 333.25L541.962 557.513" stroke="#226953" stroke-width="0.666667" stroke-miterlimit="10"></path>
<path d="M766.195 325.867L534.329 550.13" stroke="#226953" stroke-width="0.666667" stroke-miterlimit="10"></path>
<path d="M758.562 318.483L526.696 542.747" stroke="#226953" stroke-width="0.666667" stroke-miterlimit="10"></path>
<path d="M750.928 311.101L519.062 535.364" stroke="#226953" stroke-width="0.666667" stroke-miterlimit="10"></path>
<path d="M743.295 303.717L511.429 527.98" stroke="#226953" stroke-width="0.666667" stroke-miterlimit="10"></path>
<path d="M735.661 296.334L503.795 520.597" stroke="#226953" stroke-width="0.666667" stroke-miterlimit="10"></path>
<path d="M728.028 288.95L496.162 513.214" stroke="#226953" stroke-width="0.666667" stroke-miterlimit="10"></path>
<path d="M720.395 281.568L488.528 505.831" stroke="#226953" stroke-width="0.666667" stroke-miterlimit="10"></path>
<path d="M712.761 274.184L480.896 498.449" stroke="#226953" stroke-width="0.666667" stroke-miterlimit="10"></path>
<path d="M705.128 266.801L473.261 491.065" stroke="#226953" stroke-width="0.666667" stroke-miterlimit="10"></path>
<path d="M697.494 259.417L465.628 483.682" stroke="#226953" stroke-width="0.666667" stroke-miterlimit="10"></path>
<path d="M689.861 252.035L457.994 476.298" stroke="#226953" stroke-width="0.666667" stroke-miterlimit="10"></path>
</g>
<mask id="mask5_217_10624" style="mask-type:luminance" maskUnits="userSpaceOnUse" x="479" y="262" width="351" height="449">
<path d="M830 710.954H479.081V262.906H830V710.954Z" fill="white"></path>
</mask>
<g mask="url(#mask5_217_10624)">
<path d="M541.668 634.082C541.668 686.515 585.613 729.02 639.824 729.02C694.034 729.02 737.981 686.515 737.981 634.082C737.981 581.648 694.034 539.144 639.824 539.144C585.613 539.144 541.668 581.648 541.668 634.082Z" fill="#4A8D8D"></path>
<path d="M550.099 634.082C550.099 682.011 590.27 720.866 639.824 720.866C689.378 720.866 729.55 682.011 729.55 634.082C729.55 586.152 689.378 547.299 639.824 547.299C590.27 547.299 550.099 586.152 550.099 634.082Z" fill="#71B9AF"></path>
</g>
<mask id="mask6_217_10624" style="mask-type:luminance" maskUnits="userSpaceOnUse" x="479" y="262" width="351" height="449">
<path d="M830 710.954H479.081V262.906H830V710.954Z" fill="white"></path>
</mask>
<g mask="url(#mask6_217_10624)">
<mask id="mask7_217_10624" style="mask-type:luminance" maskUnits="userSpaceOnUse" x="550" y="548" width="179" height="172">
<path d="M550.994 634.082C550.994 681.532 590.764 719.999 639.824 719.999C688.883 719.999 728.654 681.532 728.654 634.082C728.654 586.632 688.883 548.164 639.824 548.164C590.764 548.164 550.994 586.632 550.994 634.082Z" fill="white"></path>
</mask>
<g mask="url(#mask7_217_10624)">
<path d="M587.763 461.477L819.628 685.741" stroke="#226953" stroke-width="0.666667" stroke-miterlimit="10"></path>
<path d="M580.13 468.86L811.996 693.123" stroke="#226953" stroke-width="0.666667" stroke-miterlimit="10"></path>
<path d="M572.496 476.244L804.363 700.507" stroke="#226953" stroke-width="0.666667" stroke-miterlimit="10"></path>
<path d="M564.863 483.626L796.729 707.889" stroke="#226953" stroke-width="0.666667" stroke-miterlimit="10"></path>
<path d="M557.229 491.01L789.096 715.273" stroke="#226953" stroke-width="0.666667" stroke-miterlimit="10"></path>
<path d="M549.596 498.392L781.461 722.656" stroke="#226953" stroke-width="0.666667" stroke-miterlimit="10"></path>
<path d="M541.962 505.775L773.829 730.04" stroke="#226953" stroke-width="0.666667" stroke-miterlimit="10"></path>
<path d="M534.329 513.159L766.195 737.423" stroke="#226953" stroke-width="0.666667" stroke-miterlimit="10"></path>
<path d="M526.696 520.542L758.562 744.806" stroke="#226953" stroke-width="0.666667" stroke-miterlimit="10"></path>
<path d="M519.062 527.925L750.928 752.189" stroke="#226953" stroke-width="0.666667" stroke-miterlimit="10"></path>
<path d="M511.429 535.308L743.295 759.573" stroke="#226953" stroke-width="0.666667" stroke-miterlimit="10"></path>
<path d="M503.795 542.692L735.661 766.955" stroke="#226953" stroke-width="0.666667" stroke-miterlimit="10"></path>
<path d="M496.162 550.075L728.028 774.338" stroke="#226953" stroke-width="0.666667" stroke-miterlimit="10"></path>
<path d="M488.528 557.458L720.395 781.722" stroke="#226953" stroke-width="0.666667" stroke-miterlimit="10"></path>
<path d="M480.896 564.841L712.761 789.105" stroke="#226953" stroke-width="0.666667" stroke-miterlimit="10"></path>
<path d="M473.261 572.225L705.128 796.488" stroke="#226953" stroke-width="0.666667" stroke-miterlimit="10"></path>
<path d="M465.628 579.607L697.494 803.871" stroke="#226953" stroke-width="0.666667" stroke-miterlimit="10"></path>
<path d="M457.994 586.992L689.861 811.254" stroke="#226953" stroke-width="0.666667" stroke-miterlimit="10"></path>
<path d="M819.628 586.992L587.763 811.254" stroke="#226953" stroke-width="0.666667" stroke-miterlimit="10"></path>
<path d="M811.996 579.607L580.13 803.871" stroke="#226953" stroke-width="0.666667" stroke-miterlimit="10"></path>
<path d="M804.363 572.225L572.496 796.488" stroke="#226953" stroke-width="0.666667" stroke-miterlimit="10"></path>
<path d="M796.729 564.841L564.863 789.105" stroke="#226953" stroke-width="0.666667" stroke-miterlimit="10"></path>
<path d="M789.096 557.458L557.229 781.722" stroke="#226953" stroke-width="0.666667" stroke-miterlimit="10"></path>
<path d="M781.461 550.075L549.596 774.338" stroke="#226953" stroke-width="0.666667" stroke-miterlimit="10"></path>
<path d="M773.829 542.692L541.962 766.955" stroke="#226953" stroke-width="0.666667" stroke-miterlimit="10"></path>
<path d="M766.195 535.308L534.329 759.573" stroke="#226953" stroke-width="0.666667" stroke-miterlimit="10"></path>
<path d="M758.562 527.925L526.696 752.189" stroke="#226953" stroke-width="0.666667" stroke-miterlimit="10"></path>
<path d="M750.928 520.542L519.062 744.806" stroke="#226953" stroke-width="0.666667" stroke-miterlimit="10"></path>
<path d="M743.295 513.159L511.429 737.423" stroke="#226953" stroke-width="0.666667" stroke-miterlimit="10"></path>
<path d="M735.661 505.775L503.795 730.04" stroke="#226953" stroke-width="0.666667" stroke-miterlimit="10"></path>
<path d="M728.028 498.392L496.162 722.656" stroke="#226953" stroke-width="0.666667" stroke-miterlimit="10"></path>
<path d="M720.395 491.01L488.528 715.273" stroke="#226953" stroke-width="0.666667" stroke-miterlimit="10"></path>
<path d="M712.761 483.626L480.896 707.889" stroke="#226953" stroke-width="0.666667" stroke-miterlimit="10"></path>
<path d="M705.128 476.244L473.261 700.507" stroke="#226953" stroke-width="0.666667" stroke-miterlimit="10"></path>
<path d="M697.494 468.86L465.628 693.123" stroke="#226953" stroke-width="0.666667" stroke-miterlimit="10"></path>
<path d="M689.861 461.477L457.994 685.741" stroke="#226953" stroke-width="0.666667" stroke-miterlimit="10"></path>
</g>
</g>
<mask id="mask8_217_10624" style="mask-type:luminance" maskUnits="userSpaceOnUse" x="479" y="262" width="351" height="449">
<path d="M830 710.954H479.081V262.906H830V710.954Z" fill="white"></path>
</mask>
<g mask="url(#mask8_217_10624)">
<path d="M723.071 298.456C723.071 302.881 726.78 306.467 731.355 306.467C735.93 306.467 739.638 302.881 739.638 298.456C739.638 294.031 735.93 290.444 731.355 290.444C726.78 290.444 723.071 294.031 723.071 298.456Z" fill="#1A2746"></path>
<path d="M690.766 298.456C690.766 302.881 694.474 306.467 699.049 306.467C703.624 306.467 707.333 302.881 707.333 298.456C707.333 294.031 703.624 290.444 699.049 290.444C694.474 290.444 690.766 294.031 690.766 298.456Z" fill="#1A2746"></path>
<path d="M658.461 298.456C658.461 302.881 662.171 306.467 666.744 306.467C671.319 306.467 675.028 302.881 675.028 298.456C675.028 294.031 671.319 290.444 666.744 290.444C662.171 290.444 658.461 294.031 658.461 298.456Z" fill="#1A2746"></path>
<path d="M626.157 298.456C626.157 302.881 629.865 306.467 634.44 306.467C639.015 306.467 642.724 302.881 642.724 298.456C642.724 294.031 639.015 290.444 634.44 290.444C629.865 290.444 626.157 294.031 626.157 298.456Z" fill="#1A2746"></path>
<path d="M593.852 298.456C593.852 302.881 597.56 306.467 602.135 306.467C606.71 306.467 610.419 302.881 610.419 298.456C610.419 294.031 606.71 290.444 602.135 290.444C597.56 290.444 593.852 294.031 593.852 298.456Z" fill="#1A2746"></path>
<path d="M561.546 298.456C561.546 302.881 565.255 306.467 569.83 306.467C574.405 306.467 578.113 302.881 578.113 298.456C578.113 294.031 574.405 290.444 569.83 290.444C565.255 290.444 561.546 294.031 561.546 298.456Z" fill="#1A2746"></path>
<path d="M529.243 298.455C529.243 302.88 532.951 306.467 537.526 306.467C542.1 306.467 545.81 302.88 545.81 298.455C545.81 294.03 542.1 290.444 537.526 290.444C532.951 290.444 529.243 294.03 529.243 298.455Z" fill="#1A2746"></path>
</g>
<path d="M134.412 710.954H38.5425V495.841H134.412V710.954Z" fill="#1A2746"></path>
<mask id="mask9_217_10624" style="mask-type:luminance" maskUnits="userSpaceOnUse" x="77" y="495" width="266" height="216">
<path d="M342.124 710.954H77.4741V495.841H342.124V710.954Z" fill="white"></path>
</mask>
<g mask="url(#mask9_217_10624)">
<path d="M342.124 710.955H77.4741V495.841H342.124V710.955Z" fill="#226953"></path>
<path d="M328.458 537.501H89.8989V503.052H328.458V537.501Z" fill="#36B66B"></path>
<path d="M305.264 645.26C305.264 697.692 261.317 740.197 207.107 740.197C152.897 740.197 108.951 697.692 108.951 645.26C108.951 592.826 152.897 550.32 207.107 550.32C261.317 550.32 305.264 592.826 305.264 645.26Z" fill="#319D5E"></path>
<path d="M296.833 645.26C296.833 693.189 256.661 732.042 207.107 732.042C157.553 732.042 117.381 693.189 117.381 645.26C117.381 597.329 157.553 558.474 207.107 558.474C256.661 558.474 296.833 597.329 296.833 645.26Z" fill="#36B66B"></path>
</g>
<mask id="mask10_217_10624" style="mask-type:luminance" maskUnits="userSpaceOnUse" x="77" y="495" width="266" height="216">
<path d="M342.124 710.954H77.4741V495.841H342.124V710.954Z" fill="white"></path>
</mask>
<g mask="url(#mask10_217_10624)">
<mask id="mask11_217_10624" style="mask-type:luminance" maskUnits="userSpaceOnUse" x="118" y="559" width="178" height="173">
<path d="M295.937 645.26C295.937 692.709 256.166 731.175 207.107 731.175C158.048 731.175 118.278 692.709 118.278 645.26C118.278 597.808 158.048 559.342 207.107 559.342C256.166 559.342 295.937 597.808 295.937 645.26Z" fill="white"></path>
</mask>
<g mask="url(#mask11_217_10624)">
<path d="M259.168 472.654L27.302 696.917" stroke="#226953" stroke-width="0.666667" stroke-miterlimit="10"></path>
<path d="M266.802 480.038L34.9353 704.301" stroke="#226953" stroke-width="0.666667" stroke-miterlimit="10"></path>
<path d="M274.435 487.42L42.5693 711.683" stroke="#226953" stroke-width="0.666667" stroke-miterlimit="10"></path>
<path d="M282.069 494.804L50.2029 719.068" stroke="#226953" stroke-width="0.666667" stroke-miterlimit="10"></path>
<path d="M289.702 502.187L57.8362 726.45" stroke="#226953" stroke-width="0.666667" stroke-miterlimit="10"></path>
<path d="M297.336 509.57L65.4697 733.834" stroke="#226953" stroke-width="0.666667" stroke-miterlimit="10"></path>
<path d="M304.969 516.953L73.103 741.216" stroke="#226953" stroke-width="0.666667" stroke-miterlimit="10"></path>
<path d="M312.601 524.336L80.7363 748.6" stroke="#226953" stroke-width="0.666667" stroke-miterlimit="10"></path>
<path d="M320.236 531.72L88.3699 755.983" stroke="#226953" stroke-width="0.666667" stroke-miterlimit="10"></path>
<path d="M327.868 539.102L96.0032 763.367" stroke="#226953" stroke-width="0.666667" stroke-miterlimit="10"></path>
<path d="M335.503 546.486L103.636 770.75" stroke="#226953" stroke-width="0.666667" stroke-miterlimit="10"></path>
<path d="M343.135 553.869L111.27 778.133" stroke="#226953" stroke-width="0.666667" stroke-miterlimit="10"></path>
<path d="M350.77 561.252L118.903 785.516" stroke="#226953" stroke-width="0.666667" stroke-miterlimit="10"></path>
<path d="M358.402 568.635L126.537 792.898" stroke="#226953" stroke-width="0.666667" stroke-miterlimit="10"></path>
<path d="M366.037 576.019L134.17 800.282" stroke="#226953" stroke-width="0.666667" stroke-miterlimit="10"></path>
<path d="M373.67 583.401L141.804 807.665" stroke="#226953" stroke-width="0.666667" stroke-miterlimit="10"></path>
<path d="M381.304 590.785L149.437 815.049" stroke="#226953" stroke-width="0.666667" stroke-miterlimit="10"></path>
<path d="M388.937 598.168L157.071 822.431" stroke="#226953" stroke-width="0.666667" stroke-miterlimit="10"></path>
<path d="M27.302 598.168L259.168 822.431" stroke="#226953" stroke-width="0.666667" stroke-miterlimit="10"></path>
<path d="M34.9353 590.785L266.802 815.049" stroke="#226953" stroke-width="0.666667" stroke-miterlimit="10"></path>
<path d="M42.5693 583.401L274.435 807.665" stroke="#226953" stroke-width="0.666667" stroke-miterlimit="10"></path>
<path d="M50.2029 576.019L282.069 800.282" stroke="#226953" stroke-width="0.666667" stroke-miterlimit="10"></path>
<path d="M57.8362 568.635L289.702 792.898" stroke="#226953" stroke-width="0.666667" stroke-miterlimit="10"></path>
<path d="M65.4697 561.252L297.336 785.516" stroke="#226953" stroke-width="0.666667" stroke-miterlimit="10"></path>
<path d="M73.103 553.869L304.969 778.133" stroke="#226953" stroke-width="0.666667" stroke-miterlimit="10"></path>
<path d="M80.7363 546.486L312.601 770.75" stroke="#226953" stroke-width="0.666667" stroke-miterlimit="10"></path>
<path d="M88.3699 539.102L320.236 763.367" stroke="#226953" stroke-width="0.666667" stroke-miterlimit="10"></path>
<path d="M96.0032 531.72L327.868 755.983" stroke="#226953" stroke-width="0.666667" stroke-miterlimit="10"></path>
<path d="M103.636 524.336L335.503 748.6" stroke="#226953" stroke-width="0.666667" stroke-miterlimit="10"></path>
<path d="M111.27 516.953L343.135 741.216" stroke="#226953" stroke-width="0.666667" stroke-miterlimit="10"></path>
<path d="M118.903 509.57L350.77 733.834" stroke="#226953" stroke-width="0.666667" stroke-miterlimit="10"></path>
<path d="M126.537 502.187L358.402 726.45" stroke="#226953" stroke-width="0.666667" stroke-miterlimit="10"></path>
<path d="M134.17 494.804L366.037 719.068" stroke="#226953" stroke-width="0.666667" stroke-miterlimit="10"></path>
<path d="M141.804 487.42L373.67 711.683" stroke="#226953" stroke-width="0.666667" stroke-miterlimit="10"></path>
<path d="M149.437 480.038L381.304 704.301" stroke="#226953" stroke-width="0.666667" stroke-miterlimit="10"></path>
<path d="M157.071 472.654L388.937 696.917" stroke="#226953" stroke-width="0.666667" stroke-miterlimit="10"></path>
</g>
</g>
<mask id="mask12_217_10624" style="mask-type:luminance" maskUnits="userSpaceOnUse" x="77" y="495" width="266" height="216">
<path d="M342.124 710.954H77.4741V495.841H342.124V710.954Z" fill="white"></path>
</mask>
<g mask="url(#mask12_217_10624)">
<path d="M123.861 519.074C123.861 523.499 120.152 527.086 115.577 527.086C111.002 527.086 107.294 523.499 107.294 519.074C107.294 514.651 111.002 511.062 115.577 511.062C120.152 511.062 123.861 514.651 123.861 519.074Z" fill="#1A2746"></path>
<path d="M156.165 519.074C156.165 523.499 152.457 527.086 147.882 527.086C143.307 527.086 139.598 523.499 139.598 519.074C139.598 514.651 143.307 511.062 147.882 511.062C152.457 511.062 156.165 514.651 156.165 519.074Z" fill="#1A2746"></path>
<path d="M188.47 519.074C188.47 523.499 184.761 527.086 180.186 527.086C175.611 527.086 171.903 523.499 171.903 519.074C171.903 514.651 175.611 511.062 180.186 511.062C184.761 511.062 188.47 514.651 188.47 519.074Z" fill="#1A2746"></path>
<path d="M220.775 519.074C220.775 523.499 217.067 527.086 212.492 527.086C207.917 527.086 204.208 523.499 204.208 519.074C204.208 514.651 207.917 511.062 212.492 511.062C217.067 511.062 220.775 514.651 220.775 519.074Z" fill="#1A2746"></path>
<path d="M253.079 519.074C253.079 523.499 249.37 527.086 244.795 527.086C240.222 527.086 236.514 523.499 236.514 519.074C236.514 514.651 240.222 511.062 244.795 511.062C249.37 511.062 253.079 514.651 253.079 519.074Z" fill="#1A2746"></path>
<path d="M285.384 519.074C285.384 523.499 281.676 527.086 277.101 527.086C272.526 527.086 268.817 523.499 268.817 519.074C268.817 514.651 272.526 511.062 277.101 511.062C281.676 511.062 285.384 514.651 285.384 519.074Z" fill="#1A2746"></path>
<path d="M317.689 519.074C317.689 523.499 313.981 527.086 309.406 527.086C304.831 527.086 301.122 523.499 301.122 519.074C301.122 514.651 304.831 511.062 309.406 511.062C313.981 511.062 317.689 514.651 317.689 519.074Z" fill="#1A2746"></path>
</g>
<mask id="mask13_217_10624" style="mask-type:luminance" maskUnits="userSpaceOnUse" x="8" y="8" width="665" height="703">
<path d="M672.39 710.954H8.07446V8.88684H672.39V710.954Z" fill="white"></path>
</mask>
<g mask="url(#mask13_217_10624)">
<path d="M474.038 527.153C492.042 524.421 509.896 520.707 527.495 516.035C538.403 513.14 549.39 509.796 558.819 503.609C562.011 501.514 565.245 498.68 565.605 494.889C565.952 491.234 563.366 487.786 560.121 486.048C556.874 484.309 553.082 483.946 549.4 483.764C513.725 481.995 478.601 493.953 446.993 510.534C443.713 512.254 440.337 514.132 438.228 517.172C425.86 535 467.493 528.147 474.038 527.153Z" fill="#1A2746"></path>
<path d="M446.993 510.534L443.429 607.269L643.783 609.682C643.783 609.682 650.989 541.3 610.53 536.509C569.793 531.684 551.324 539.223 550.672 530.076C549.01 506.758 549.4 483.765 549.4 483.765L446.993 510.534Z" fill="#F7981C"></path>
<path d="M550.586 528.806C549.025 505.929 549.4 483.764 549.4 483.764L446.993 510.534L445.098 561.971C477.478 544.211 513.593 532.81 550.586 528.806Z" fill="#F6821E"></path>
<path d="M446.626 557.346C454.86 556.089 463.231 560.248 468.699 566.333C474.169 572.416 477.18 580.186 479.508 587.928" stroke="#1A2746" stroke-width="0.666667" stroke-miterlimit="10" stroke-linecap="round" stroke-linejoin="round"></path>
<path d="M444.299 590.861C510.087 585.874 576.257 585.598 642.086 590.038" stroke="#1A2746" stroke-width="0.666667" stroke-miterlimit="10" stroke-linecap="round" stroke-linejoin="round"></path>
<path d="M592.975 534.52C584.819 540.781 579.4 549.885 576.056 559.422C572.713 568.959 571.286 579.008 569.875 588.987" stroke="#1A2746" stroke-width="0.666667" stroke-miterlimit="10" stroke-linecap="round" stroke-linejoin="round"></path>
<path d="M511.576 505.602C524.876 504.777 538.264 505.258 551.464 507.037" stroke="#1A2746" stroke-width="6.66667" stroke-miterlimit="10" stroke-linecap="round" stroke-linejoin="round"></path>
<path d="M510.744 518.467C524.045 517.642 537.432 518.124 550.632 519.903" stroke="#1A2746" stroke-width="6.66667" stroke-miterlimit="10" stroke-linecap="round" stroke-linejoin="round"></path>
<path d="M512.407 530.528C525.707 529.703 539.095 530.185 552.295 531.964" stroke="#1A2746" stroke-width="6.66667" stroke-miterlimit="10" stroke-linecap="round" stroke-linejoin="round"></path>
<path d="M444.236 306.774C442.435 312.899 442.013 319.366 443.288 325.617C445.879 338.314 455.861 349.617 468.764 353.042C475.351 354.792 482.318 354.538 489.125 353.973C501.924 352.91 514.63 350.789 527.056 347.641C535.801 345.425 545.204 342.1 549.641 334.483C552.69 329.249 552.79 322.847 551.711 316.931C548.037 296.789 531.704 282.016 512.553 274.898C491.732 267.158 468.824 272.872 453.877 289.541C449.425 294.506 446.095 300.456 444.236 306.774Z" fill="#C46454"></path>
<path d="M553.167 317.796C552.801 315.947 552.355 314.176 551.869 312.448C551.96 312.774 552.061 313.092 552.149 313.421C548.341 314.556 544.488 311.938 541.399 309.473C537.936 316.692 534.09 323.738 529.882 330.577C527.315 326.017 525.294 321.171 523.869 316.165C519.049 322.371 513.191 327.818 506.592 332.235C507.454 328.04 508.317 323.844 509.178 319.647C498.104 328.375 486.38 336.331 474.127 343.434C481.858 324.174 492.631 306.058 505.958 289.911C494.438 298.128 482.019 305.167 468.975 310.87C479.048 302.961 488.53 294.348 497.324 285.121C484.313 289.548 471.739 295.169 459.822 301.883C464.084 299.482 469.069 288.665 472.806 284.816C478.007 279.462 483.88 274.728 490.273 270.759C490.362 270.703 490.454 270.655 490.545 270.6C490.545 270.6 490.545 270.6 490.547 270.6C475.167 270.156 459.141 273.128 445.091 278.396C404.354 293.674 248.062 353.177 248.062 353.177L163.265 392.577C163.265 392.577 137.493 563.847 133.336 597.619C129.179 631.392 111.721 714.212 111.721 714.212H242.242C242.242 714.212 283.81 503.54 292.123 481.831C300.437 460.121 302.93 450.471 319.558 440.019C336.185 429.565 425.139 397.401 431.789 401.423C438.441 405.441 437.609 435.194 437.609 482.634C437.609 518.051 435.114 526.055 435.114 526.055C435.114 526.055 510.767 493.892 566.468 495.5C566.468 495.5 563.142 368.454 553.167 317.796Z" fill="#4361B6"></path>
<path d="M548.678 306.939C542.254 291.897 528.377 280.78 512.553 274.898C508.252 273.299 503.862 272.307 499.471 271.833C501.569 281.364 509.715 292.765 514.828 296.938C524.077 304.486 536.584 308.686 548.678 306.939Z" fill="#D96F60"></path>
<path d="M163.265 392.578C163.265 392.578 153.982 454.267 145.661 510.9C175.884 502.025 205.716 491.574 233.026 476.311C264.136 458.926 292.036 434.823 308.719 404.043C312.487 397.092 315.772 389.692 321.466 384.099C325.933 379.71 331.612 376.708 336.831 373.181C359.201 358.064 372.947 331.929 373.17 305.612C315.379 327.549 248.062 353.177 248.062 353.177L163.265 392.578Z" fill="#3D54AD"></path>
<path d="M520.128 427.308C520.111 431.511 520.241 435.91 518.302 439.672C516.804 442.577 514.223 444.791 511.786 447.021C492.69 464.497 479.169 487.537 473.146 512.274C499.876 503.767 536.13 494.624 566.468 495.499C566.468 495.499 563.753 391.808 555.873 334.428C533.265 360.082 520.269 393.579 520.128 427.308Z" fill="#4669BB"></path>
<path d="M242.242 714.212C242.242 714.212 272.994 558.359 286.886 500.944C256.221 514.982 231.313 539.608 214.633 568.235C197.324 597.942 188.453 631.754 185.216 665.709C184.594 672.249 184.109 679.023 180.933 684.827C178.581 689.124 174.914 692.579 171.647 696.273C166.86 701.686 162.872 707.75 159.778 714.212H242.242Z" fill="#4669BB"></path>
<path d="M151.459 666.589C145.946 667.457 140.234 668.665 135.904 672.079C149.057 674.14 162.273 675.834 175.527 677.156C171.463 681.837 164.032 681.117 157.717 681.341C151.311 681.567 144.963 683.218 139.302 686.129C145.196 688.974 151.944 689.543 158.509 690.063C171.757 691.114 185.003 692.164 198.25 693.216C206.886 693.9 215.743 694.566 224.075 692.269C226.86 691.501 230.139 689.128 228.901 686.595C228.451 685.675 227.496 685.097 226.57 684.611C223.487 682.994 220.151 681.83 216.711 681.168C220.503 681.921 224.672 679.387 225.614 675.755C203.164 660.92 177.044 662.566 151.459 666.589Z" fill="#C46454"></path>
<path d="M362.233 310.56C362.233 310.56 401.584 315.385 422.09 307.879C380.523 302.519 380.523 302.519 380.523 302.519L362.233 310.56Z" fill="#1A2746"></path>
<path d="M128.555 268.584C124.121 282.806 128.225 298.39 135.488 311.48C138.644 317.167 142.74 322.844 148.892 325.347C155.045 327.85 163.574 325.728 165.717 319.614C166.468 317.472 166.372 315.15 166.234 312.893C165.313 297.773 162.917 282.737 159.09 268.051C158.348 265.209 157.538 262.341 156.005 259.814C153.327 255.399 145.614 249.995 139.879 251.371C133.726 252.849 130.173 263.391 128.555 268.584Z" fill="#1A2746"></path>
<path d="M249.347 162.943C205.531 184.057 162.137 205.986 119.194 228.716C110.102 233.528 101.604 236.484 91.4265 238.377C65.2289 223.57 40.5825 206.235 15.3342 189.957C15.3796 186.333 16.9469 182.896 18.7113 179.699C26.6171 165.373 39.576 152.356 54.5738 145.054C62.4905 118.506 86.5547 96.2479 114.066 88.8029C122.833 73.6302 143.43 57.0944 160.493 51.6435C177.557 46.1909 197.819 50.6833 208.712 64.5073C219.872 60.8867 229.683 60.6716 240.303 65.5799C250.924 70.4897 254.856 83.2813 253.477 94.5878C258.499 97.9803 260.889 104.265 262.512 109.977C264.136 115.688 265.798 120.794 265.798 134.196C265.798 146.941 261.141 157.26 249.347 162.943Z" fill="#F7981C"></path>
<path d="M53.3547 214.932C65.2679 222.703 77.2976 230.292 89.655 237.349L232.717 168.237C236.017 159.472 239.226 150.555 240.111 141.266C240.995 131.978 239.345 122.15 233.673 114.608C232.86 113.524 231.937 112.47 230.717 111.84C229.133 111.021 227.251 111.013 225.455 111.011C205.941 111.001 186.43 109.487 167.165 106.487C155.274 112.472 152.913 127.552 146.476 138.926C137.808 154.239 120.894 163.353 104.148 169.868C98.1067 172.219 91.9399 174.353 86.2837 177.472C71.2912 185.739 61.4421 199.875 53.3547 214.932Z" fill="#F6821E"></path>
<path d="M174.35 113.826L171.578 161.535C171.578 161.535 112.276 178.153 100.082 182.978C87.8892 187.802 75.1416 200.668 58.515 261.778L45.7681 316.992L133.336 325.032C133.336 325.032 141.096 278.932 142.758 273.036C144.421 267.139 146.638 266.066 148.855 273.572C151.072 281.077 177.12 371.671 177.12 371.671L341.728 322.353L292.955 154.031C292.955 154.031 253.05 151.349 225.338 153.494L219.796 113.826H174.35Z" fill="#C46454"></path>
<path d="M128.389 173.185L125.41 174.399L119.004 176.894C119.004 176.894 135.289 201.699 154.106 241.132C172.922 280.563 176.685 301.19 170.414 315.142C167.32 322.024 182.331 304.83 182.331 304.83L179.194 265.397L128.389 173.185Z" fill="#1A2746"></path>
<path d="M277.421 227.364C275.819 224.697 275.276 221.576 274.791 218.527C271.436 197.434 267.909 177.788 259.458 158.077C265.077 176.934 264.32 198.007 254.778 215.328C245.235 232.648 226.248 245.452 205.958 245.589C210.41 246.409 216.407 247.307 220.841 246.401C235.522 243.407 250.059 239.762 264.395 235.483C269.657 233.913 275.749 232.439 277.421 227.364Z" fill="#1A2746"></path>
<path d="M140.541 170.112C140.541 170.112 184.879 251.057 233.651 239.799C285.297 227.879 255.266 151.886 255.266 151.886H270.231C270.231 151.886 290.561 209.354 301.823 236.583C311.798 260.707 315.679 279.468 330.087 283.22C330.087 283.22 340.619 296.622 341.727 302.519C342.835 308.415 342.835 308.415 342.835 308.415C342.835 308.415 352.811 314.312 349.486 318.601C349.486 318.601 225.615 435.997 147.469 440.019L134.999 309.487L138.878 292.87C138.878 292.87 149.963 321.28 169.361 312.169C188.758 303.055 158.831 240.872 146.083 215.141C137.081 196.969 122.251 174.937 122.251 174.937L140.541 170.112Z" fill="#F04035"></path>
<path d="M224.105 144.669L219.796 113.826H174.35L173.795 130.444C184.687 139.223 200.629 144.908 214.789 145.782C217.897 145.973 221.3 145.804 224.105 144.669Z" fill="#1A2746"></path>
<path d="M285.195 153.494L292.955 154.031C292.955 154.031 315.392 152.311 349.488 187.266C354.272 192.173 388.837 231.758 397.889 228.34C403.26 226.31 398.632 206.917 398.103 202.14C396.831 190.662 395.146 179.225 393.358 167.813C391.8 157.849 390.13 147.899 388.383 137.964C388.178 136.795 387.223 125.492 386.066 125.082C386.059 125.081 363.341 117.04 360.017 108.464C356.691 99.8875 374.426 92.3831 380.523 92.3831C380.523 92.3831 374.981 58.0752 376.644 45.7459C378.306 33.4167 387.728 33.953 392.162 43.6009C396.596 53.2504 398.259 74.1566 398.259 74.1566C398.259 74.1566 410.452 63.9724 418.21 74.1566C418.21 74.1566 427.633 62.8999 436.5 73.0857C436.5 73.0857 435.946 52.7141 438.718 41.4575C441.489 30.1992 452.02 31.2717 454.79 43.6009C457.561 55.9317 461.995 125.618 461.995 125.618C461.995 125.618 469.201 191.018 469.201 215.14C469.201 239.264 472.526 284.829 433.175 303.59C393.825 322.353 332.305 292.869 332.305 292.869L285.195 153.494Z" fill="#C46454"></path>
<path d="M469.201 215.141C469.201 208.07 468.581 197.452 467.705 185.975C458.553 191.762 451.407 200.434 446.694 210.033C441.13 221.369 438.73 233.945 437.878 246.467C437.775 247.994 437.682 249.566 437.021 250.956C436.256 252.567 434.815 253.761 433.469 254.962C418.358 268.436 411.114 289.448 414.072 309.049C420.753 308.15 427.219 306.43 433.175 303.59C472.526 284.829 469.201 239.264 469.201 215.141Z" fill="#D96F60"></path>
<path d="M378.206 92.067C381.407 91.3316 384.609 90.5963 387.809 89.8609C391.196 89.0838 394.698 88.3019 398.124 88.8895C401.551 89.4772 404.91 91.8085 405.498 95.1256C405.823 96.9672 405.264 98.8746 404.326 100.507C402.135 104.325 397.766 106.88 393.254 106.983" stroke="#1A2746" stroke-width="0.666667" stroke-miterlimit="10" stroke-linecap="round" stroke-linejoin="round"></path>
<path d="M402.732 102.302C408.762 103.145 414.251 107.007 416.939 112.295" stroke="#1A2746" stroke-width="0.666667" stroke-miterlimit="10" stroke-linecap="round" stroke-linejoin="round"></path>
<path d="M398.808 74.1552C396.836 78.8836 396.104 84.0905 396.698 89.1561" stroke="#1A2746" stroke-width="0.666667" stroke-miterlimit="10" stroke-linecap="round" stroke-linejoin="round"></path>
<path d="M418.755 74.6964C416.713 79.6865 415.586 85.0251 415.443 90.3893C415.328 94.7163 415.963 99.3275 418.806 102.667C421.65 106.008 427.269 107.394 430.703 104.619C432.353 103.287 433.237 101.278 433.929 99.3082C435.939 93.5924 436.834 87.5105 436.553 81.4784" stroke="#1A2746" stroke-width="0.666667" stroke-miterlimit="10" stroke-linecap="round" stroke-linejoin="round"></path>
<path d="M412.115 106.857C415.772 106.532 418.121 103.426 417.344 99.9535" stroke="#1A2746" stroke-width="0.666667" stroke-miterlimit="10" stroke-linecap="round" stroke-linejoin="round"></path>
<path d="M442.82 92.0429C435.564 99.8251 430.47 109.478 428.214 119.728" stroke="#1A2746" stroke-width="0.666667" stroke-miterlimit="10" stroke-linecap="round" stroke-linejoin="round"></path>
<path d="M400.709 219.509C401.984 224.308 400.847 229.653 397.716 233.576C394.585 237.498 389.527 239.915 384.403 239.934" stroke="#1A2746" stroke-width="0.666667" stroke-miterlimit="10" stroke-linecap="round" stroke-linejoin="round"></path>
<path d="M300.808 187.947C310.476 216.557 312.906 230.151 315.679 264.459" stroke="#1A2746" stroke-width="0.666667" stroke-miterlimit="10" stroke-linecap="round" stroke-linejoin="round"></path>
<path d="M314.231 187.867C317.327 203.076 316.703 218.983 312.425 233.923" stroke="#1A2746" stroke-width="0.666667" stroke-miterlimit="10" stroke-linecap="round" stroke-linejoin="round"></path>
<path d="M312.83 319.668C314.852 321.781 316.93 323.854 318.771 326.087C320.944 328.724 322.931 334.406 325.33 336.384C334.476 343.925 343.525 332.27 351.412 328.623C356.79 326.136 368.477 326.386 370.957 332.969C373.687 340.223 362.137 350.035 357.132 353.655C342.785 364.037 323.907 374.118 313.524 388.645C302.872 403.548 298.078 421.672 283.033 433.497C270.56 443.302 253.709 447.994 237.992 446.546C211.894 444.142 185.116 427.521 172.612 405.173C158.31 379.617 154.928 348.045 179.431 329.811C188.871 322.785 204.987 318.066 215.828 313.471C223.024 310.422 232.347 307.7 237.781 301.89C249.451 289.415 250.68 270.997 267.879 251.987C285.077 232.977 303.503 227.035 310.873 237.73C318.243 248.423 301.046 253.769 291.828 269.223C282.784 284.397 300.48 305.457 309.807 316.362C310.773 317.493 311.794 318.586 312.83 319.668Z" fill="#1A2746"></path>
<path d="M468.382 131.794L461.81 123.779C458.751 120.047 460.363 114.513 464.988 112.875L528.484 90.3971C535.659 87.8571 543.7 90.3089 548.071 96.3683L553.997 105.446L480.613 144.699L468.382 131.794Z" fill="#36B66B"></path>
<path d="M335.337 295C327.794 300.663 325.815 313.561 329.532 322.067C330.486 324.252 331.919 326.367 334.09 327.47C335.999 328.44 338.275 328.517 340.401 328.179C347.182 327.105 351.865 321.036 358.062 318.17C364.26 315.303 374.016 316.549 377.046 322.513C384.539 337.265 358.333 351.545 348.311 357.081C338.092 362.725 327.027 368.608 320.176 378.191C309.522 393.096 304.729 411.22 289.685 423.045C277.212 432.85 260.361 437.54 244.642 436.092C218.546 433.69 191.768 417.067 179.262 394.719C164.961 369.165 161.58 337.593 186.083 319.358C195.523 312.332 211.638 307.612 222.478 303.019C229.674 299.97 238.997 297.247 244.433 291.436C256.103 278.961 257.332 260.545 274.529 241.533C291.727 222.523 310.154 216.582 317.525 227.276C324.895 237.969 307.698 243.315 298.485 258.762C289.27 274.208 306.469 280.149 306.469 280.149L463.708 123.906L484.591 141.729L335.337 295Z" fill="#36B66B"></path>
<path d="M252.219 414.689C252.219 419.352 248.311 423.132 243.489 423.132C238.668 423.132 234.76 419.352 234.76 414.689C234.76 410.027 238.668 406.246 243.489 406.246C248.311 406.246 252.219 410.027 252.219 414.689Z" fill="#F9CF17"></path>
<path d="M279.821 411.602C279.821 416.265 275.913 420.044 271.093 420.044C266.272 420.044 262.363 416.265 262.363 411.602C262.363 406.939 266.272 403.158 271.093 403.158C275.913 403.158 279.821 406.939 279.821 411.602Z" fill="#F9CF17"></path>
<path d="M463.708 123.905L306.469 280.149L261.364 323.425L285.196 345.94L332.209 298.178C333.119 296.975 334.151 295.891 335.336 295L484.59 141.729L463.708 123.905Z" fill="#1A2746"></path>
<path d="M250.267 343.885L468.923 123.475L476.108 117.35" stroke="white" stroke-width="0.333333" stroke-miterlimit="10"></path>
<path d="M252.518 347.08L472.803 125.351L485.849 115.916" stroke="white" stroke-width="0.333333" stroke-miterlimit="10"></path>
<path d="M254.769 350.274L474.742 128.032L497.895 111.978" stroke="white" stroke-width="0.333333" stroke-miterlimit="10"></path>
<path d="M257.019 353.467L478.012 130.398L512.248 105.535" stroke="white" stroke-width="0.333333" stroke-miterlimit="10"></path>
<path d="M259.271 356.662L480.263 133.592L524.069 103.372" stroke="white" stroke-width="0.333333" stroke-miterlimit="10"></path>
<path d="M261.521 359.856L482.514 136.785L533.768 100.156" stroke="white" stroke-width="0.333333" stroke-miterlimit="10"></path>
<path d="M536.341 97.6559C536.419 98.9645 535.387 100.085 534.035 100.161C532.683 100.236 531.524 99.2374 531.446 97.9289C531.368 96.6219 532.4 95.4996 533.752 95.4258C535.104 95.3487 536.263 96.349 536.341 97.6559Z" fill="#1A2746"></path>
<path d="M524.294 101.594C524.372 102.903 523.34 104.024 521.989 104.099C520.636 104.175 519.477 103.176 519.399 101.869C519.321 100.56 520.353 99.4397 521.705 99.3642C523.058 99.2888 524.216 100.287 524.294 101.594Z" fill="#1A2746"></path>
<path d="M512.248 105.534C512.326 106.841 511.293 107.964 509.942 108.039C508.589 108.115 507.431 107.114 507.353 105.807C507.275 104.499 508.307 103.378 509.658 103.303C511.011 103.227 512.17 104.226 512.248 105.534Z" fill="#1A2746"></path>
<path d="M500.201 109.473C500.279 110.78 499.247 111.902 497.895 111.978C496.542 112.053 495.384 111.055 495.306 109.746C495.228 108.439 496.26 107.317 497.611 107.241C498.964 107.166 500.123 108.164 500.201 109.473Z" fill="#1A2746"></path>
<path d="M488.154 113.412C488.232 114.72 487.2 115.841 485.849 115.916C484.496 115.992 483.337 114.993 483.259 113.685C483.181 112.378 484.214 111.257 485.565 111.18C486.918 111.106 488.076 112.105 488.154 113.412Z" fill="#1A2746"></path>
<path d="M476.108 117.35C476.186 118.659 475.153 119.779 473.802 119.855C472.449 119.93 471.291 118.932 471.213 117.625C471.135 116.316 472.167 115.195 473.518 115.12C474.871 115.044 476.03 116.043 476.108 117.35Z" fill="#1A2746"></path>
<path d="M257.466 440.186C252.688 467.524 232.973 490.538 209.963 507.072C186.952 523.608 160.442 534.847 135.225 548.032C110.008 561.219 85.2668 577.061 69.1363 599.981C60.9855 611.563 55.2864 624.631 51.115 638.049C42.8059 664.778 37.1554 683.186 45.4398 709.922" stroke="#1A2746" stroke-width="2.66667" stroke-miterlimit="10" stroke-linecap="round" stroke-linejoin="round"></path>
<path d="M212.787 77.6555C215.641 79.3301 217.995 81.7127 219.686 84.4936C223.619 90.9624 230.194 104.886 227.002 121.867C222.568 145.454 189.868 141.166 180.445 121.867C174.534 105.284 164.294 87.1412 184.783 77.071C194.414 72.3362 204.047 72.524 212.787 77.6555Z" fill="#C46454"></path>
<path d="M187.636 93.8459C191.824 93.4782 196.087 93.9117 200.104 95.1159" stroke="#1A2746" stroke-width="2.66667" stroke-miterlimit="10" stroke-linecap="round" stroke-linejoin="round"></path>
<path d="M211.818 94.5894C214.098 92.5776 216.688 90.895 219.475 89.6137" stroke="#1A2746" stroke-width="2.66667" stroke-miterlimit="10" stroke-linecap="round" stroke-linejoin="round"></path>
<path d="M176.304 101.818C182.21 104.382 186.054 111.263 184.879 117.578C183.344 125.839 171.79 123.968 166.538 120.065C158.076 113.776 159.117 100.562 171.563 100.779C173.239 100.808 174.835 101.18 176.304 101.818Z" fill="#C46454"></path>
<path d="M166.231 108.704C166.81 107.472 167.882 106.443 169.202 105.995C170.522 105.547 172.076 105.722 173.191 106.538C174.899 107.789 175.246 110.096 175.457 112.157C173.936 113.142 171.695 114.249 172.076 115.98C172.386 117.398 174.363 118.175 175.608 117.372" stroke="#1A2746" stroke-width="0.666667" stroke-miterlimit="10" stroke-linecap="round" stroke-linejoin="round"></path>
<path d="M172.628 101.18C176.544 101.513 180.204 103.927 181.951 107.334" stroke="#1A2746" stroke-width="0.666667" stroke-miterlimit="10" stroke-linecap="round" stroke-linejoin="round"></path>
<path d="M180.518 123.013C181.792 122.454 182.94 121.629 183.863 120.612" stroke="#1A2746" stroke-width="0.666667" stroke-miterlimit="10" stroke-linecap="round" stroke-linejoin="round"></path>
<path d="M169.597 100.623C178.589 102.681 188.742 97.3911 191.912 88.9971C196.263 89.3391 200.737 87.7207 203.791 84.7038C206.846 81.6869 208.421 77.3262 207.976 73.126C207.556 69.1667 203.229 68.5967 199.225 67.6799C195.221 66.7615 190.993 67.4776 187.089 68.738C181.826 70.4383 176.908 73.1309 172.69 76.6198C168.863 79.786 165.518 83.7951 164.441 88.554C163.365 93.3113 164.697 99.5024 169.597 100.623Z" fill="#F7981C"></path>
<path d="M204.575 77.5124C209.12 86.0781 217.466 92.6738 227.05 95.2781C227.375 95.3664 227.77 95.4338 228.011 95.2074C228.253 94.9795 227.931 94.448 227.675 94.6615C225.43 88.0578 223.688 81.7816 218.667 76.8092C213.644 71.8351 205.881 68.8953 199.089 71.1655C200.986 73.4728 203.182 74.8905 204.575 77.5124Z" fill="#F7981C"></path>
<path d="M193.192 103.908C193.192 103.908 197.349 102.569 200.676 106.053" stroke="#1A2746" stroke-width="0.666667" stroke-miterlimit="10" stroke-linecap="round" stroke-linejoin="round"></path>
<path d="M213.121 105.663C213.121 105.663 215.402 102.044 220.267 102.632" stroke="#1A2746" stroke-width="0.666667" stroke-miterlimit="10" stroke-linecap="round" stroke-linejoin="round"></path>
<path d="M209.231 104.19C209.728 107.164 210.224 110.136 210.72 113.109C210.818 113.697 210.914 114.312 210.722 114.877C210.48 115.593 209.799 116.109 209.062 116.358C207.204 116.982 204.925 115.898 204.301 114.094" stroke="#1A2746" stroke-width="0.666667" stroke-miterlimit="10" stroke-linecap="round" stroke-linejoin="round"></path>
<path d="M215.085 123.207C215.085 123.207 196.519 117.31 195.133 117.578C193.747 117.846 193.192 128.835 203.446 130.175C213.7 131.516 215.085 123.207 215.085 123.207Z" fill="#1A2746"></path>
<path d="M211.344 122.001L209.507 125.275C209.047 126.094 208.024 126.439 207.136 126.076C203.738 124.683 195.981 121.13 195.548 117.578L211.344 122.001Z" fill="white"></path>
<path d="M143.653 237.641C145.02 243.733 146.393 249.874 146.451 256.105C146.526 264.014 144.486 271.78 142.459 279.442" stroke="#1A2746" stroke-width="0.666667" stroke-miterlimit="10" stroke-linecap="round" stroke-linejoin="round"></path>
<path d="M228.097 328.236C224.452 331.147 221.28 334.611 218.733 338.463" stroke="#1A2746" stroke-width="0.666667" stroke-miterlimit="10" stroke-linecap="round" stroke-linejoin="round"></path>
<path d="M420.151 384.182C425.312 385.465 429.239 389.719 431.353 394.449C433.466 399.179 435.393 406.75 435.946 411.875" stroke="#1A2746" stroke-width="0.666667" stroke-miterlimit="10" stroke-linecap="round" stroke-linejoin="round"></path>
<path d="M316.934 390.962C316.381 406.888 315.772 423.116 310.209 438.113C304.595 453.247 294.059 466.779 291.586 482.679" stroke="#1A2746" stroke-width="0.666667" stroke-miterlimit="10" stroke-linecap="round" stroke-linejoin="round"></path>
<path d="M329.736 390.172C328.866 409.19 321.436 427.874 308.903 442.553" stroke="#1A2746" stroke-width="0.666667" stroke-miterlimit="10" stroke-linecap="round" stroke-linejoin="round"></path>
<path d="M222.863 135.596C223.856 145.287 224.85 154.978 225.845 164.669" stroke="#1A2746" stroke-width="0.666667" stroke-miterlimit="10" stroke-linecap="round" stroke-linejoin="round"></path>
<path d="M51.8641 291.797L226.447 328.786C226.447 328.786 236.424 316.992 244.737 308.415C253.05 299.838 270.786 298.231 275.22 299.303C279.654 300.374 281.87 305.735 275.774 310.56C269.677 315.385 266.352 312.703 263.027 316.992C259.7 321.28 253.605 330.93 264.689 330.394C275.774 329.857 286.304 328.25 290.738 322.889C295.171 317.528 285.195 313.24 286.304 308.415C287.413 303.59 293.51 299.838 301.269 306.271C309.027 312.703 312.352 322.889 308.473 332.539C308.473 332.539 317.895 337.898 307.918 351.836C307.918 351.836 315.125 353.981 307.918 366.31C307.918 366.31 312.907 375.958 298.496 385.608C284.088 395.257 257.484 404.907 219.241 390.969C219.241 390.969 131.674 388.289 101.191 387.216C70.7083 386.144 40.829 371.05 43.551 336.827C45.7681 308.951 51.8641 291.797 51.8641 291.797Z" fill="#C46454"></path>
<path d="M133.653 299.59C131.63 301.673 130.921 305.329 132.808 307.527C134.375 309.354 137.493 310.359 140.498 310.414" stroke="#1A2746" stroke-width="0.666667" stroke-miterlimit="10" stroke-linecap="round" stroke-linejoin="round"></path>
<path d="M289.076 313.508C289.076 313.508 281.315 316.189 277.713 314.58C274.111 312.971 271.34 308.683 276.604 301.715C281.869 294.747 285.749 290.993 287.967 293.674C290.183 296.354 292.955 302.251 292.955 302.251C292.955 302.251 286.026 304.931 286.303 308.415C286.581 311.899 289.076 313.508 289.076 313.508Z" fill="white"></path>
<path d="M226.447 328.786C226.447 328.786 219.241 335.218 216.471 350.227C213.7 365.238 216.471 385.608 219.241 390.969L181.554 389.896C181.554 389.896 166.036 358.269 187.097 319.137L226.447 328.786Z" fill="#1A2746"></path>
<path d="M309.557 327.166C305.478 336.159 296.338 342.819 286.275 344.128" stroke="#1A2746" stroke-width="0.666667" stroke-miterlimit="10" stroke-linecap="round" stroke-linejoin="round"></path>
<path d="M308.998 349.652C303.34 353.713 296.626 356.385 289.652 357.348" stroke="#1A2746" stroke-width="0.666667" stroke-miterlimit="10" stroke-linecap="round" stroke-linejoin="round"></path>
<path d="M310.187 364.22C304.502 369.252 297.231 372.583 289.605 373.649" stroke="#1A2746" stroke-width="0.666667" stroke-miterlimit="10" stroke-linecap="round" stroke-linejoin="round"></path>
<path d="M129.495 359.495C119.164 351.248 105.085 347.568 91.8655 349.657C90.8443 337.404 84.6815 325.625 75.0794 317.57C67.5322 311.241 57.929 307.283 48.0046 306.241C46.3413 313.863 44.551 324.248 43.551 336.827C40.829 371.05 70.7083 386.144 101.191 387.217C111.52 387.579 128.406 388.129 146.218 388.694C144.626 377.418 138.579 366.745 129.495 359.495Z" fill="#D96F60"></path>
</g>
<mask id="mask14_217_10624" style="mask-type:luminance" maskUnits="userSpaceOnUse" x="341" y="574" width="402" height="137">
<path d="M742.695 710.954H341.716V574.249H742.695V710.954Z" fill="white"></path>
</mask>
<g mask="url(#mask14_217_10624)">
<path d="M672.212 607.645H365.731V719.81H672.212V607.645Z" fill="#36B66B"></path>
<path d="M713.166 607.645H421.23V719.81H713.166V607.645Z" fill="#226953"></path>
</g>
<mask id="mask15_217_10624" style="mask-type:luminance" maskUnits="userSpaceOnUse" x="341" y="574" width="402" height="137">
<path d="M742.695 710.954H341.716V574.249H742.695V710.954Z" fill="white"></path>
</mask>
<g mask="url(#mask15_217_10624)">
<mask id="mask16_217_10624" style="mask-type:luminance" maskUnits="userSpaceOnUse" x="421" y="607" width="293" height="113">
<path d="M713.166 607.645H421.23V719.81H713.166V607.645Z" fill="white"></path>
</mask>
<g mask="url(#mask16_217_10624)">
<path d="M691.249 745.847C691.249 810.218 637.296 862.402 570.743 862.402C504.19 862.402 450.237 810.218 450.237 745.847C450.237 681.477 504.19 629.292 570.743 629.292C637.296 629.292 691.249 681.477 691.249 745.847Z" fill="#319D5E"></path>
<path d="M680.897 745.847C680.897 804.69 631.58 852.39 570.743 852.39C509.905 852.39 460.588 804.69 460.588 745.847C460.588 687.005 509.905 639.304 570.743 639.304C631.58 639.304 680.897 687.005 680.897 745.847Z" fill="#36B66B"></path>
</g>
</g>
<mask id="mask17_217_10624" style="mask-type:luminance" maskUnits="userSpaceOnUse" x="341" y="574" width="402" height="137">
<path d="M742.695 710.954H341.716V574.249H742.695V710.954Z" fill="white"></path>
</mask>
<g mask="url(#mask17_217_10624)">
<mask id="mask18_217_10624" style="mask-type:luminance" maskUnits="userSpaceOnUse" x="421" y="607" width="293" height="113">
<path d="M713.166 607.645H421.23V719.81H713.166V607.645Z" fill="white"></path>
</mask>
<g mask="url(#mask18_217_10624)">
<mask id="mask19_217_10624" style="mask-type:luminance" maskUnits="userSpaceOnUse" x="461" y="640" width="219" height="212">
<path d="M679.797 745.847C679.797 804.102 630.973 851.325 570.743 851.325C510.513 851.325 461.689 804.102 461.689 745.847C461.689 687.592 510.513 640.367 570.743 640.367C630.973 640.367 679.797 687.592 679.797 745.847Z" fill="white"></path>
</mask>
<g mask="url(#mask19_217_10624)">
<path d="M634.656 533.943L349.999 809.267" stroke="#226953" stroke-width="0.666667" stroke-miterlimit="10"></path>
<path d="M644.028 543.007L359.37 818.332" stroke="#226953" stroke-width="0.666667" stroke-miterlimit="10"></path>
<path d="M653.399 552.071L368.742 827.395" stroke="#226953" stroke-width="0.666667" stroke-miterlimit="10"></path>
<path d="M662.772 561.135L378.113 836.461" stroke="#226953" stroke-width="0.666667" stroke-miterlimit="10"></path>
<path d="M672.142 570.2L387.486 845.524" stroke="#226953" stroke-width="0.666667" stroke-miterlimit="10"></path>
<path d="M681.515 579.264L396.856 854.589" stroke="#226953" stroke-width="0.666667" stroke-miterlimit="10"></path>
<path d="M690.885 588.329L406.227 863.653" stroke="#226953" stroke-width="0.666667" stroke-miterlimit="10"></path>
<path d="M700.258 597.392L415.599 872.718" stroke="#226953" stroke-width="0.666667" stroke-miterlimit="10"></path>
<path d="M709.628 606.455L424.97 881.781" stroke="#226953" stroke-width="0.666667" stroke-miterlimit="10"></path>
<path d="M718.999 615.521L434.342 890.846" stroke="#226953" stroke-width="0.666667" stroke-miterlimit="10"></path>
<path d="M728.372 624.584L443.713 899.91" stroke="#226953" stroke-width="0.666667" stroke-miterlimit="10"></path>
<path d="M737.742 633.649L453.085 908.973" stroke="#226953" stroke-width="0.666667" stroke-miterlimit="10"></path>
<path d="M747.115 642.712L462.456 918.038" stroke="#226953" stroke-width="0.666667" stroke-miterlimit="10"></path>
<path d="M756.485 651.778L471.829 927.102" stroke="#226953" stroke-width="0.666667" stroke-miterlimit="10"></path>
<path d="M765.858 660.841L481.199 936.167" stroke="#226953" stroke-width="0.666667" stroke-miterlimit="10"></path>
<path d="M775.228 669.906L490.572 945.23" stroke="#226953" stroke-width="0.666667" stroke-miterlimit="10"></path>
<path d="M784.601 678.97L499.942 954.295" stroke="#226953" stroke-width="0.666667" stroke-miterlimit="10"></path>
<path d="M793.971 688.034L509.313 963.359" stroke="#226953" stroke-width="0.666667" stroke-miterlimit="10"></path>
<path d="M349.999 688.034L634.656 963.359" stroke="#226953" stroke-width="0.666667" stroke-miterlimit="10"></path>
<path d="M359.37 678.97L644.028 954.295" stroke="#226953" stroke-width="0.666667" stroke-miterlimit="10"></path>
<path d="M368.742 669.906L653.399 945.23" stroke="#226953" stroke-width="0.666667" stroke-miterlimit="10"></path>
<path d="M378.113 660.841L662.772 936.167" stroke="#226953" stroke-width="0.666667" stroke-miterlimit="10"></path>
<path d="M387.486 651.778L672.142 927.102" stroke="#226953" stroke-width="0.666667" stroke-miterlimit="10"></path>
<path d="M396.856 642.712L681.515 918.038" stroke="#226953" stroke-width="0.666667" stroke-miterlimit="10"></path>
<path d="M406.227 633.649L690.885 908.973" stroke="#226953" stroke-width="0.666667" stroke-miterlimit="10"></path>
<path d="M415.599 624.584L700.258 899.91" stroke="#226953" stroke-width="0.666667" stroke-miterlimit="10"></path>
<path d="M424.97 615.521L709.628 890.846" stroke="#226953" stroke-width="0.666667" stroke-miterlimit="10"></path>
<path d="M434.342 606.455L718.999 881.781" stroke="#226953" stroke-width="0.666667" stroke-miterlimit="10"></path>
<path d="M443.713 597.392L728.372 872.718" stroke="#226953" stroke-width="0.666667" stroke-miterlimit="10"></path>
<path d="M453.085 588.329L737.742 863.653" stroke="#226953" stroke-width="0.666667" stroke-miterlimit="10"></path>
<path d="M462.456 579.264L747.115 854.589" stroke="#226953" stroke-width="0.666667" stroke-miterlimit="10"></path>
<path d="M471.829 570.2L756.485 845.524" stroke="#226953" stroke-width="0.666667" stroke-miterlimit="10"></path>
<path d="M481.199 561.135L765.858 836.461" stroke="#226953" stroke-width="0.666667" stroke-miterlimit="10"></path>
<path d="M490.572 552.071L775.228 827.395" stroke="#226953" stroke-width="0.666667" stroke-miterlimit="10"></path>
<path d="M499.942 543.007L784.601 818.332" stroke="#226953" stroke-width="0.666667" stroke-miterlimit="10"></path>
<path d="M509.313 533.943L793.971 809.267" stroke="#226953" stroke-width="0.666667" stroke-miterlimit="10"></path>
</g>
</g>
</g>
</svg>