<svg width="830" height="712" viewBox="0 0 830 712" fill="none" xmlns="http://www.w3.org/2000/svg">
<g clip-path="url(#clip0_220_35089)">
<path d="M291.68 240.707C282.307 265.328 272.277 290.931 252.689 308.548C225.66 332.858 185.808 337.231 156.216 358.347C121.871 382.854 106.008 428.452 111.723 470.256C117.439 512.06 142.441 549.65 174.956 576.537C204.369 600.861 239.967 613.272 277.249 620.943C317.243 629.172 358.451 628.343 399.047 627.111C474.057 624.835 546.436 601.509 604.947 553.511C671.533 498.886 713.113 414.908 716.189 328.838C717.877 281.642 708.02 237.495 675.153 203.583C647.989 175.554 608.093 155.896 569.571 149.614C507.324 139.463 445.592 142.618 387.248 168.519C343.283 188.038 298.149 219.547 281.983 266.814" fill="#F0CBA6"></path>
<path d="M82 230.892C102.725 230.86 180.448 234.859 277.463 290.658C386.047 353.111 485.981 385.432 569.415 385.428C582.997 385.428 596.156 384.571 608.831 382.848C683.524 372.688 731.311 342.658 748.667 329.983V326.614C733.107 338.27 685.1 369.732 608.464 380.156C518.544 392.384 404.552 360.622 278.817 288.303C181.353 232.247 103.115 228.152 82 228.178V230.892Z" fill="#1A2746"></path>
<path d="M134.325 271.859C166.974 278.142 217.901 293.415 275.1 330.495C331.708 367.194 391.351 396.183 447.577 414.33C493.359 429.106 535.557 436.534 573.532 436.532C585.741 436.532 597.517 435.764 608.831 434.226C683.652 424.05 731.444 400.53 748.667 390.799V387.676C732.96 396.731 684.969 421.13 608.464 431.534C519.173 443.687 395.103 405.054 276.577 328.216C182.135 266.992 103.293 263.734 82 264.114V266.812C90.6177 266.624 109.101 267.006 134.325 271.859Z" fill="#1A2746"></path>
<path d="M608.464 485.979C563.396 492.112 509.537 484.193 448.395 462.455C394.345 443.235 334.932 412.994 276.58 374.996C166.936 303.599 100.884 295.134 82 294.294V297.004C100.483 297.828 165.93 306.184 275.097 377.271C333.628 415.383 393.237 445.723 447.485 465.012C495.555 482.105 539.185 490.704 577.671 490.704C588.465 490.703 598.861 490.025 608.831 488.671C683.652 478.495 731.444 454.975 748.667 445.243V442.121C732.96 451.176 684.969 475.575 608.464 485.979Z" fill="#1A2746"></path>
<path d="M245.872 409.48C213.412 389.742 164.899 364.476 118.107 356.2C100.752 353.13 88.776 353.287 82 353.895V356.675C99.176 355.19 153.435 356.448 244.46 411.8C365.745 485.558 489.271 528.759 577.831 528.754C581.268 528.754 584.667 528.69 587.996 528.558C669.011 525.368 730.567 503.899 748.667 496.903V493.99C732.131 500.464 670.103 522.606 587.889 525.844C499.252 529.327 371.424 485.831 245.872 409.48Z" fill="#1A2746"></path>
<path d="M748.667 549.168C698.791 569.597 529.881 594.56 444.225 564.484C354.895 533.115 284.789 496.066 202.251 436.602C144.321 394.867 99.6156 392.687 82 393.922V396.631C98.9172 395.394 143.056 397.302 200.661 438.806C283.427 498.432 353.733 535.586 443.327 567.047C472.075 577.14 510.128 581.076 549.965 581.076C628.707 581.075 714.372 565.694 748.667 552.096V549.168Z" fill="#1A2746"></path>
<mask id="mask0_220_35089" style="mask-type:luminance" maskUnits="userSpaceOnUse" x="82" y="436" width="209" height="253">
<path d="M290.82 688.954H82V436.1H290.82V688.954Z" fill="white"></path>
</mask>
<g mask="url(#mask0_220_35089)">
<path d="M184.87 630.992L180.398 631.634L157.177 472.272L161.649 471.63L184.87 630.992Z" fill="#1A2746"></path>
<path d="M92.3787 507.771L221.131 471.63L251.625 545.042L121.743 598.123L92.3787 507.771Z" fill="white"></path>
<path d="M111.955 602.642L259.155 541.276L262.543 550.688L114.967 610.923L111.955 602.642Z" fill="#1A2746"></path>
<path d="M192.229 645.148L177.323 647.29L174.325 626.422L189.23 624.28L192.229 645.148Z" fill="#1A2746"></path>
<path d="M92.3787 507.771L251.625 545.042" stroke="#1A2746" stroke-width="2.66667" stroke-miterlimit="10" stroke-linecap="round" stroke-linejoin="round"></path>
<path d="M221.131 471.63L121.743 598.123" stroke="#1A2746" stroke-width="2.66667" stroke-miterlimit="10" stroke-linecap="round" stroke-linejoin="round"></path>
<path d="M188.755 705.04L183.277 635.784L152.614 702.028" stroke="#1A2746" stroke-width="2.66667" stroke-miterlimit="10" stroke-linecap="round" stroke-linejoin="round"></path>
<path d="M183.277 635.784L220.379 702.782" stroke="#1A2746" stroke-width="2.66667" stroke-miterlimit="10" stroke-linecap="round" stroke-linejoin="round"></path>
</g>
<mask id="mask1_220_35089" style="mask-type:luminance" maskUnits="userSpaceOnUse" x="468" y="548" width="281" height="141">
<path d="M748.667 688.954H468.831V548.435H748.667V688.954Z" fill="white"></path>
</mask>
<g mask="url(#mask1_220_35089)">
<path d="M676.66 582.311L721.836 615.064L736.519 706.547L677.789 699.77L676.66 582.311Z" fill="#1A2746"></path>
<path d="M507.248 700.899L525.319 598.123L676.66 582.311L677.789 699.77L507.248 700.899Z" fill="#F7981C"></path>
<path d="M523.563 699.77L537.617 610.923L661.601 598.876L660.095 700.272L523.563 699.77Z" fill="#F04035"></path>
</g>
<mask id="mask2_220_35089" style="mask-type:luminance" maskUnits="userSpaceOnUse" x="468" y="548" width="281" height="141">
<path d="M748.667 688.954H468.831V548.435H748.667V688.954Z" fill="white"></path>
</mask>
<g mask="url(#mask2_220_35089)">
<mask id="mask3_220_35089" style="mask-type:luminance" maskUnits="userSpaceOnUse" x="523" y="598" width="139" height="103">
<path d="M523.562 699.77L537.617 610.923L661.601 598.876L660.094 700.272L523.562 699.77Z" fill="white"></path>
</mask>
<g mask="url(#mask3_220_35089)">
<path d="M487.23 670.043L486.606 669.261L608.582 571.882L609.208 572.663L487.23 670.043Z" fill="#F7981C"></path>
<path d="M495.765 676.568L495.14 675.787L617.116 578.407L617.74 579.188L495.765 676.568Z" fill="#F7981C"></path>
<path d="M504.297 683.094L503.673 682.313L625.649 584.932L626.274 585.713L504.297 683.094Z" fill="#F7981C"></path>
<path d="M512.832 689.62L512.207 688.839L634.183 591.459L634.808 592.24L512.832 689.62Z" fill="#F7981C"></path>
<path d="M521.367 696.143L520.736 695.367L648.736 591.461L649.367 592.237L521.367 696.143Z" fill="#F7981C"></path>
<path d="M526.388 706.182L525.757 705.406L663.794 593.47L664.425 594.246L526.388 706.182Z" fill="#F7981C"></path>
<path d="M538.433 709.195L537.805 708.416L672.33 599.992L672.957 600.771L538.433 709.195Z" fill="#F7981C"></path>
<path d="M546.964 715.721L546.34 714.94L668.316 617.56L668.941 618.342L546.964 715.721Z" fill="#F7981C"></path>
<path d="M555.498 722.247L554.873 721.466L676.849 624.085L677.474 624.867L555.498 722.247Z" fill="#F7981C"></path>
<path d="M564.03 728.772L563.405 727.991L685.382 630.611L686.008 631.392L564.03 728.772Z" fill="#F7981C"></path>
<path d="M572.564 735.299L571.94 734.518L693.916 637.137L694.541 637.919L572.564 735.299Z" fill="#F7981C"></path>
<path d="M581.098 741.823L580.473 741.041L702.449 643.661L703.073 644.443L581.098 741.823Z" fill="#F7981C"></path>
<path d="M589.63 748.349L589.006 747.568L710.982 650.188L711.608 650.97L589.63 748.349Z" fill="#F7981C"></path>
<path d="M614.098 748.344L491.62 647.45L492.256 646.679L614.733 747.573L614.098 748.344Z" fill="#F7981C"></path>
<path d="M625.143 740.814L502.664 639.92L503.298 639.15L625.779 740.043L625.143 740.814Z" fill="#F7981C"></path>
<path d="M636.185 733.284L513.707 632.391L514.341 631.62L636.821 732.513L636.185 733.284Z" fill="#F7981C"></path>
<path d="M647.229 725.756L524.75 624.861L525.386 624.091L647.864 724.984L647.229 725.756Z" fill="#F7981C"></path>
<path d="M658.272 718.225L532.782 614.821L533.417 614.051L658.906 717.455L658.272 718.225Z" fill="#F7981C"></path>
<path d="M669.315 710.697L543.825 607.294L544.46 606.523L669.951 709.925L669.315 710.697Z" fill="#F7981C"></path>
<path d="M680.357 703.167L557.88 602.273L558.515 601.503L680.993 702.396L680.357 703.167Z" fill="#F7981C"></path>
<path d="M691.4 695.639L568.922 594.744L569.558 593.973L692.036 694.867L691.4 695.639Z" fill="#F7981C"></path>
<path d="M702.444 688.108L579.965 587.213L580.601 586.443L703.078 687.337L702.444 688.108Z" fill="#F7981C"></path>
<path d="M713.486 680.579L591.008 579.685L591.644 578.915L714.121 679.808L713.486 680.579Z" fill="#F7981C"></path>
<path d="M724.53 673.049L602.052 572.155L602.686 571.384L725.166 672.279L724.53 673.049Z" fill="#F7981C"></path>
<path d="M735.07 665.019L612.593 564.124L613.229 563.354L735.706 664.248L735.07 665.019Z" fill="#F7981C"></path>
</g>
</g>
<path d="M374.097 404.031L367.804 415.046C367.804 415.046 347.348 420.552 308.796 469.334C270.244 518.114 193.926 620.394 196.286 647.931C198.647 675.468 214.382 724.248 214.382 724.248L349.708 721.888L390.62 407.178L374.097 404.031Z" fill="#2D8668"></path>
<path d="M237.936 632.415C247.231 620.819 252.58 606.636 257.783 592.715C260.321 585.925 262.859 579.136 265.397 572.346C266.124 570.401 266.859 568.44 267.971 566.685C269.003 565.056 270.336 563.643 271.637 562.218C283.097 549.668 292.616 535.468 300.637 520.511C310.617 501.894 319.612 482.636 324.355 461.956C325.163 458.432 327.556 452.047 327.671 447.172C321.959 453.332 315.671 460.634 308.796 469.334C270.244 518.114 193.926 620.394 196.286 647.931C196.387 649.104 196.52 650.328 196.667 651.573C197.681 651.752 198.708 651.87 199.729 651.93C214.565 652.797 228.643 644.012 237.936 632.415Z" fill="#36B66B"></path>
<path d="M351.677 548.891C334.419 577.518 315.525 605.159 295.119 631.634C292.06 635.601 288.889 639.699 287.669 644.558C286.763 648.167 286.999 651.954 287.263 655.666C288.875 678.358 291.269 700.994 294.44 723.522" stroke="#1A2746" stroke-width="0.666667" stroke-miterlimit="10" stroke-linecap="round" stroke-linejoin="round"></path>
<path d="M370.951 406.391C370.951 406.391 359.149 480.348 350.495 536.996C341.84 593.643 339.48 649.504 336.332 668.387C333.185 687.27 341.84 717.954 341.84 717.954H503.129C503.129 717.954 492.115 690.418 489.753 678.615C487.393 666.813 487.393 636.13 496.835 601.511C506.276 566.894 535.387 493.723 516.504 430.782L370.951 406.391Z" fill="#36B66B"></path>
<path d="M515.371 535.728C498.967 551.395 489.379 574.067 489.847 596.77C489.872 597.99 489.917 599.247 489.485 600.388C488.968 601.754 487.835 602.775 486.768 603.772C468.184 621.149 459.304 646.335 452.339 670.806C447.957 686.194 444.152 703.011 449.288 717.954H503.129C503.129 717.954 492.115 690.416 489.753 678.615C487.393 666.813 487.393 636.13 496.835 601.511C501.087 585.922 509.32 562.501 515.371 535.728Z" fill="#2D8668"></path>
<path d="M463.533 434.756C466.088 444.878 464.485 455.535 462.733 465.826C455.113 510.578 441.428 554.019 432.148 598.456C427.073 622.754 423.129 637.328 421.304 657.372C419.48 677.416 421.061 701.008 432.319 717.692" stroke="#1A2746" stroke-width="0.666667" stroke-miterlimit="10" stroke-linecap="round" stroke-linejoin="round"></path>
<path d="M408.225 427.719C413.469 458.128 430.64 486.318 455.255 504.928" stroke="#1A2746" stroke-width="0.666667" stroke-miterlimit="10" stroke-linecap="round" stroke-linejoin="round"></path>
<path d="M404.583 425.002C409.864 457.332 427.836 487.416 453.801 507.391" stroke="#1A2746" stroke-width="0.666667" stroke-miterlimit="10" stroke-linecap="round" stroke-linejoin="round"></path>
<path d="M383.539 418.718C383.539 418.718 421.304 430.256 462.216 437.6C503.129 444.943 520.437 445.467 520.437 445.467L516.504 430.782L385.637 409.276L383.539 418.718Z" fill="#1A2746"></path>
<path d="M419.337 415.439L415.404 430.782L419.337 431.962L422.877 416.619L419.337 415.439Z" fill="#226953"></path>
<path d="M478.913 428.505L477.629 444.292L481.705 444.791L482.603 429.071L478.913 428.505Z" fill="#226953"></path>
<path d="M388.361 422.36L367.965 416.424L371.373 404.715L391.769 410.651L388.361 422.36Z" fill="#F9CF17"></path>
<path d="M349.199 259.02C349.603 258.714 350.072 258.427 350.612 258.163C371.477 247.956 395.599 249.64 416.04 260.387C418.283 261.567 420.527 262.9 422.127 264.911C423.727 266.922 424.577 269.755 423.695 272.195C423.099 273.842 421.812 275.108 420.484 276.204C409.7 285.099 394.756 285.947 381 285.016C377.065 284.751 373.113 284.367 369.309 283.288C364.128 281.819 359.081 278.479 354.977 275.084C350.748 271.586 343.492 263.347 349.199 259.02Z" fill="#1A2746"></path>
<path d="M413.256 288.144C413.809 287.88 414.272 287.498 414.596 286.948C415.217 285.898 415.387 284.65 415.548 283.439C416.789 274.199 418.395 265.007 420.359 255.892C421.191 252.034 421.607 247.37 423.341 243.862C424.924 240.659 428.199 238.148 430.731 235.739C435.388 231.303 440.197 227.027 445.148 222.92C446.728 221.61 448.347 220.291 449.485 218.582C450.623 216.874 451.224 214.68 450.561 212.738C449.831 210.599 447.68 209.171 445.455 208.779C443.228 208.386 440.939 208.875 438.793 209.587C435.785 210.583 432.924 212.022 430.329 213.842C430.039 214.047 429.723 214.264 429.367 214.255C428.557 214.232 428.275 213.135 428.447 212.344C429.124 209.224 430.504 206.026 430.912 202.842C431.024 201.976 431.059 201.044 431.577 200.344C432.061 199.692 432.863 199.38 433.557 198.959C436.816 196.987 437.452 191.607 437.464 188.127C437.471 185.94 437.009 183.752 436.119 181.755C435.475 180.31 434.573 178.927 433.26 178.043C431.427 176.808 429.011 176.712 426.872 177.276C424.735 177.842 422.485 178.494 420.591 179.634C419.305 176.043 416.612 172.866 413.049 171.503C409.488 170.14 405.064 170.746 402.449 173.522C400.32 171.591 397.157 171.124 394.343 171.706C391.528 172.287 389.567 174.28 387.192 175.9C382.595 174.698 377.653 177.263 374.761 181.034C371.869 184.804 370.635 189.563 369.689 194.219C368.441 200.362 369.568 206.83 367.844 212.856C361.185 236.122 357.529 260.243 356.995 284.436C356.953 286.29 379.141 289.112 381.5 289.335C389.637 290.099 397.839 289.895 405.935 288.776C407.953 288.498 411.216 289.122 413.256 288.144Z" fill="#BC6042"></path>
<path d="M359.541 252.598C358.227 262.274 357.405 272.015 357.097 281.776L406.781 288.708C408.783 288.633 411.481 288.995 413.256 288.144C413.809 287.88 414.272 287.497 414.596 286.948C415.217 285.897 415.387 284.649 415.548 283.439C416.32 277.7 417.248 271.983 418.299 266.288C404.723 263.099 374.663 256.051 359.541 252.598Z" fill="#A2453C"></path>
<path d="M420.332 179.782C420.295 183.823 420.796 187.87 421.819 191.78C422.136 192.992 422.508 194.203 423.143 195.283C424.236 197.144 426.111 198.53 428.211 199.028C430.311 199.527 432.608 199.131 434.421 197.959" stroke="#1A2746" stroke-width="0.666667" stroke-miterlimit="10" stroke-linecap="round" stroke-linejoin="round"></path>
<path d="M420.079 179.31C420.529 183.247 420.856 187.652 418.388 190.752C416.747 192.814 413.972 193.908 411.365 193.522C408.76 193.136 406.421 191.284 405.448 188.836C404.989 187.682 404.816 186.419 404.268 185.303" stroke="#1A2746" stroke-width="0.666667" stroke-miterlimit="10" stroke-linecap="round" stroke-linejoin="round"></path>
<path d="M402.16 173.506C402.568 175.855 403.428 177.648 403.837 179.998C404.284 182.568 404.701 185.355 403.501 187.671C401.827 190.906 397.484 191.95 393.963 191.022C392.843 190.726 391.741 190.258 390.896 189.466C390.052 188.674 388.664 185.672 388.784 184.52" stroke="#1A2746" stroke-width="0.666667" stroke-miterlimit="10" stroke-linecap="round" stroke-linejoin="round"></path>
<path d="M387.448 176.395C387.86 179.275 388.271 182.155 388.683 185.036C388.852 186.219 388.992 187.534 388.305 188.511C387.337 189.892 385.313 189.862 383.641 189.635C381.132 189.295 378.441 188.739 376.743 186.86" stroke="#1A2746" stroke-width="0.666667" stroke-miterlimit="10" stroke-linecap="round" stroke-linejoin="round"></path>
<path d="M552.456 281.66C551.529 273.052 547.244 264.85 540.707 259.174C538.048 256.866 534.989 254.944 531.597 254.007C528.371 253.115 524.957 253.138 521.628 253.488C504.099 255.335 488.807 265.78 474.58 276.187C458.408 288.015 442.513 300.222 426.912 312.794L424.541 314.343C425.335 300.691 426.496 286.854 427.908 273.251C412.344 281.27 393.969 282.35 376.649 279.788C370.532 278.883 364.38 277.512 358.969 274.518C353.559 271.524 348.919 266.718 347.264 260.76C346.424 287.242 347.739 313.46 350.936 339.762C351.84 347.198 352.928 354.706 355.763 361.639C358.597 368.574 363.376 374.972 370.061 378.354C379.479 383.114 390.879 381.18 400.841 377.703C447.267 361.504 491.736 341.219 535.865 319.536C540.283 317.366 544.833 315.058 547.907 311.214C550 308.595 551.276 305.411 552.153 302.175C553.957 295.515 553.195 288.52 552.456 281.66Z" fill="#4361B6"></path>
<path d="M346.141 281.846C353.347 292.459 367.685 295.255 380.511 295.548C395.635 295.895 410.808 294.024 425.396 290.015" stroke="#1A2746" stroke-width="0.666667" stroke-miterlimit="10" stroke-linecap="round" stroke-linejoin="round"></path>
<path d="M383.297 335.37C381.672 338.238 380.809 341.467 380.028 344.67C377.2 356.268 375.24 368.078 374.148 379.966C377.916 381.099 381.9 381.371 385.915 381.06L389.047 379.247L383.297 335.37Z" fill="#1A2746"></path>
<path d="M537.353 234.874L552.848 254.543L604.361 260.838L580.983 226.219L537.353 234.874Z" fill="#C66941"></path>
<path d="M563.449 244.315C573.236 240.184 577.721 237.234 584.245 230.94L577.517 221.499L537.353 234.874L547.187 247.356C552.033 246.872 557.303 246.91 563.449 244.315Z" fill="#1A2746"></path>
<path d="M530.435 169.418C530.435 169.418 527.537 172.047 538.76 182.412C549.981 192.776 567.912 206.231 579.472 214.259C591.032 222.288 610.491 230.663 610.685 224.73C610.88 218.795 569.164 188.392 557.604 180.364C546.045 172.335 529.623 166.783 530.435 169.418Z" fill="#1A2746"></path>
<path d="M565.259 183.762C553.963 183.863 544.196 190.847 537.668 200.006C534.679 201.82 530.009 202.399 528.596 205.59C527.536 207.983 528.939 211.138 531.42 211.966C531.109 212.843 530.825 213.72 530.575 214.598C530.239 215.771 529.953 216.974 529.744 218.188C529.161 221.571 529.175 225.043 530.383 228.223C532.821 234.64 539.713 238.492 546.531 239.304C563.684 241.348 583.249 231.486 590.119 215.166C596.945 198.94 581.063 183.618 565.259 183.762Z" fill="#C66941"></path>
<path d="M546.401 202.223C546.401 202.223 545.221 208.124 552.696 205.763" stroke="#1A2746" stroke-width="0.666667" stroke-miterlimit="10" stroke-linecap="round" stroke-linejoin="round"></path>
<path d="M551.909 194.355C551.909 194.355 558.989 190.815 563.711 199.076" stroke="#1A2746" stroke-width="2.66667" stroke-miterlimit="10" stroke-linecap="round" stroke-linejoin="round"></path>
<path d="M565.259 183.762C565.259 183.762 573.939 188.455 574.332 198.682C574.725 208.911 570.792 219.532 580.233 223.859L588.495 223.466C588.495 223.466 592.821 218.352 595.575 210.484C598.329 202.616 589.281 190.815 580.627 186.487C571.972 182.16 565.259 183.762 565.259 183.762Z" fill="#1A2746"></path>
<path d="M605.051 269.275C576.736 264.395 549.053 261.224 520.328 261.77C523.735 256.312 527.743 251.231 532.255 246.647C560.397 245.391 588.545 248.124 616.424 252.171C613.668 258.295 610.005 264.743 605.051 269.275Z" fill="#4C72C1"></path>
<path d="M446.089 286.415C450.885 283.756 455.021 279.919 458.031 275.335C458.424 274.736 458.813 274.063 458.733 273.351C458.605 272.203 457.371 271.556 456.275 271.188C451.989 269.75 447.404 269.488 442.884 269.448C423.532 269.279 404.153 273 386.241 280.327C381.349 282.328 375.792 285.77 375.975 291.052C376.113 295.027 382.052 294.534 386.028 294.583C406.192 294.832 428.453 296.194 446.089 286.415Z" fill="#1A2746"></path>
<path d="M521.872 432.81C542.605 405.394 572.432 385.643 590.904 356.656C606.589 332.04 613.408 317.223 613.801 289.686C613.925 281.083 610.595 268.724 603.312 262.935C599.871 260.2 593.113 262.739 588.953 261.32C576.088 256.935 563.848 256.512 550.471 257.256C538.56 257.918 526.277 258.783 515.627 264.155C510.665 266.656 506.223 270.062 501.893 273.544C467.915 300.883 435.336 329.876 408.961 364.878C408.264 365.804 407.553 366.748 406.604 367.412C405.471 368.204 404.087 368.532 402.744 368.86C393.055 371.228 383.173 374.639 376.169 381.739C369.164 388.839 365.948 400.527 371.131 409.048C417.895 420.199 463.699 430.132 511.18 437.666C513.437 438.023 515.799 438.37 517.968 437.65C520.136 436.928 522.276 435.059 521.872 432.81Z" fill="#4C72C1"></path>
<path d="M580.553 370.74C560.549 370.7 540.604 378.206 525.652 391.504C524.48 392.547 523.309 393.643 521.876 394.284C520.329 394.976 518.595 395.087 516.904 395.206C503.672 396.134 490.325 398.199 478.229 403.643C467.316 408.554 457.451 416.484 451.687 426.896C471.352 430.848 491.113 434.482 511.18 437.666C513.437 438.023 515.799 438.37 517.968 437.65C520.136 436.928 522.276 435.059 521.872 432.81C539.072 410.066 562.512 392.583 580.553 370.74Z" fill="#4361B6"></path>
<path d="M569.019 353.287C569.019 353.287 505.489 385.935 472.839 398.13C440.187 410.326 406.356 416.226 397.308 398.523L569.019 353.287Z" fill="#1A2746"></path>
<path d="M431.1 202.819C431.1 202.819 456.212 209.647 471.264 215.598C488.18 222.286 492.341 229.016 490.54 238.022C488.967 245.888 484.247 252.183 466.544 251.003C448.841 249.823 304.468 222.679 296.207 221.106C287.945 219.532 276.537 209.698 281.652 196.715C286.765 183.734 299.748 180.98 311.549 182.16V176.652C311.549 176.652 303.288 175.866 293.06 178.226C282.832 180.587 277.324 187.667 274.571 196.322C271.817 204.976 276.144 221.499 293.847 227.4C311.549 233.3 376.459 243.528 402.421 247.463C428.385 251.396 469.145 258.98 483.46 256.116C499.195 252.97 499.588 232.514 494.868 225.039C490.147 217.564 479.525 215.204 464.971 208.911L431.1 202.819Z" fill="#F7981C"></path>
<path d="M294.06 184.142C298.104 182.503 302.624 181.874 307.136 181.916L310.107 179.275L294.496 177.918C294.02 178.016 293.545 178.114 293.06 178.226C290.839 178.739 288.853 179.486 287.057 180.411C289.333 181.622 291.829 182.952 294.06 184.142Z" fill="#1A2746"></path>
<path d="M451.203 208.709C458.033 210.836 465.408 213.283 471.264 215.598C473.109 216.327 474.776 217.057 476.327 217.791C479.228 217.748 482.211 217.455 485.129 217.256C480.533 215.007 474.791 212.991 468.116 210.236C462.507 209.452 456.861 208.952 451.203 208.709Z" fill="#1A2746"></path>
<path d="M527.125 217.171C527.125 217.171 415.404 197.108 367.411 186.88C319.417 176.652 262.688 157.716 252.148 150.69C237.985 141.248 234.445 128.266 231.299 116.464C229.715 110.527 213.989 132.2 211.235 161.311C208.482 190.422 215.956 206.55 219.889 207.731C223.824 208.911 225.791 182.554 250.968 178.226C273.667 174.324 377.245 195.928 400.455 200.65C423.664 205.37 526.732 221.499 526.732 221.499L529.879 224.252C529.879 224.252 532.633 221.892 531.453 216.384L527.125 217.171Z" fill="#F7981C"></path>
<path d="M263.425 167.998C235.6 162.223 218.903 168.142 210.648 172.742C210.508 194.628 216.505 206.715 219.889 207.731C223.824 208.911 225.791 182.554 250.968 178.226C273.667 174.324 377.245 195.928 400.455 200.65C423.664 205.37 526.732 221.499 526.732 221.499L529.879 224.252C529.879 224.252 531.432 222.92 531.705 219.926C511.964 216.11 463.528 208.124 406.093 197.371C346.601 186.234 285.333 172.546 263.425 167.998Z" fill="#F18C16"></path>
<path d="M553.484 181.742C553.484 181.742 568.025 171.987 574.655 169.912C581.284 167.838 588.993 171.139 594.668 178.848C600.343 186.558 608.065 187.555 609.632 193.042C611.197 198.53 592.959 214.363 592.959 214.363C592.959 214.363 575.404 198.039 568.629 192.899C561.853 187.759 553.484 181.742 553.484 181.742Z" fill="#1A2746"></path>
<path d="M562.203 176.235C557.464 179.075 553.484 181.742 553.484 181.742C553.484 181.742 561.853 187.759 568.629 192.899C575.404 198.039 592.959 214.363 592.959 214.363C592.959 214.363 597.909 210.063 602.431 205.17C589.921 194.347 576.441 184.652 562.203 176.235Z" fill="#F9CF17"></path>
<path d="M447.176 285.094C444.172 267.411 443.452 257.539 440.449 239.858C438.44 228.03 435.567 211.103 425.763 204.19C418.433 199.022 409.828 196.06 401.025 194.627C391.781 193.12 383.587 194.27 374.381 195.012C371.132 195.275 367.991 196.167 365.323 198.04C362.165 200.256 362.559 203.14 362.559 203.14C362.559 203.14 357.444 204.059 354.953 207.468C353.463 209.507 353.577 211.672 354.035 214.156C354.021 214.079 352.649 215.538 352.461 215.73C351.664 216.544 351.465 218.371 351.513 219.462C351.568 220.714 351.843 222.074 352.811 222.87C353.897 223.764 355.467 223.654 356.865 223.495C359.729 223.171 362.972 223.039 365.813 222.548C368.852 222.023 372.952 222.172 375.147 221.762C371.46 222.399 365.025 225.11 361.565 226.535C358 228.003 354.379 230.331 354.807 234.755C354.855 235.26 354.963 235.768 355.216 236.207C355.945 237.478 357.631 237.815 359.096 237.755C362.339 237.622 365.308 236.248 368.379 235.362C371.587 234.435 374.173 235.08 377.324 234.826C375.936 244.643 380.751 252.756 388.793 259.988C389.052 270.675 387.964 286.118 388.379 299.39C406.905 297.186 429.045 289.495 447.176 285.094Z" fill="#C66941"></path>
<path d="M361.096 203.251C371.005 201.919 381.039 201.502 391.024 202.006" stroke="#1A2746" stroke-width="0.666667" stroke-miterlimit="10" stroke-linecap="round" stroke-linejoin="round"></path>
<path d="M353.84 213.93C364.673 210.85 375.948 209.32 387.211 209.4" stroke="#1A2746" stroke-width="0.666667" stroke-miterlimit="10" stroke-linecap="round" stroke-linejoin="round"></path>
<path d="M369.379 222.031C374.429 221.392 379.5 220.912 384.58 220.592" stroke="#1A2746" stroke-width="0.666667" stroke-miterlimit="10" stroke-linecap="round" stroke-linejoin="round"></path>
<path d="M371.739 234.186C373.947 234.188 376.153 234.276 378.355 234.45C377.003 237.746 377.219 241.538 378.375 244.906C379.531 248.275 381.565 251.275 383.804 254.047C385.603 256.275 387.585 258.418 390.044 259.886" stroke="#1A2746" stroke-width="0.666667" stroke-miterlimit="10" stroke-linecap="round" stroke-linejoin="round"></path>
<path d="M388.521 283.916L445.695 275.262L448.317 292.047L388.26 303.323L388.521 283.916Z" fill="#AB5044"></path>
<path d="M562.977 231.703C566.724 234.386 571.357 235.808 575.964 235.688C580.451 235.574 585.068 233.868 587.864 230.358C590.66 226.847 591.149 221.391 588.315 217.911C585.155 214.031 579.099 213.751 574.513 215.754L562.977 231.703Z" fill="#C66941"></path>
<path d="M585.069 221.811C583.433 220.57 581.148 220.243 579.231 220.976C577.313 221.711 575.829 223.48 575.441 225.496C576.765 225.459 577.903 226.538 578.073 227.851C578.244 229.164 577.435 230.512 576.24 231.086C575.047 231.659 573.559 231.483 572.459 230.747" stroke="#1A2746" stroke-width="0.666667" stroke-miterlimit="10" stroke-linecap="round" stroke-linejoin="round"></path>
<path d="M566.181 221.42C569.611 217.67 574.397 215.188 579.437 214.547" stroke="#1A2746" stroke-width="0.666667" stroke-miterlimit="10" stroke-linecap="round" stroke-linejoin="round"></path>
<path d="M547.663 181.312L597.157 218.403C597.157 218.403 604.193 219.22 598.604 212.054C593.015 204.887 554.955 178.524 554.955 178.524L547.663 181.312Z" fill="#1A2746"></path>
<path d="M458.664 273.3C458.079 287.239 457.489 301.636 457.376 315.587C473.172 301.406 490.873 289.351 509.853 279.85C523.043 273.247 537.164 267.804 551.9 267.184C566.635 266.566 582.149 271.366 591.852 282.474C600.759 292.67 603.783 307.674 599.52 320.524C594.721 334.99 582.021 345.338 569.019 353.287C557.611 360.262 545.732 366.071 533.319 371.036C501.145 383.906 484.481 389.478 458.441 397.554C441.587 402.78 423.535 407.572 406.524 402.871C401.828 401.574 397.252 399.516 393.655 396.23C385.128 388.436 383.768 375.716 382.991 364.19C381.308 339.227 381.153 316.132 375.737 291.706C404.723 289.38 431.093 282.543 458.664 273.3Z" fill="#55A5E0"></path>
<path d="M600.7 300.947C577.567 303.331 556.372 316.555 540.244 333.467C538.871 334.907 537.504 336.395 535.808 337.436C534.228 338.407 532.431 338.95 530.663 339.51C496.185 350.41 464.572 371.794 444.165 401.606C448.984 400.415 453.76 399.006 458.441 397.554C484.481 389.478 501.145 383.906 533.319 371.036C545.732 366.071 557.611 360.262 569.019 353.287C582.021 345.338 594.721 334.99 599.52 320.524C601.604 314.242 601.935 307.446 600.7 300.947Z" fill="#5496D7"></path>
<path d="M457.833 306.727C457.36 320.64 456.625 334.544 455.628 348.43" stroke="#1A2746" stroke-width="0.666667" stroke-miterlimit="10" stroke-linecap="round" stroke-linejoin="round"></path>
<path d="M456.185 337.679C456.185 337.679 467.855 315.519 475.199 301.094C475.199 301.094 464.839 309.224 457.376 315.587L456.185 337.679Z" fill="#1A2746"></path>
<path d="M378.267 309.947C385.083 310.31 391.864 308.962 398.529 307.492C418.333 303.124 437.883 297.604 457.047 290.97" stroke="#1A2746" stroke-width="0.666667" stroke-miterlimit="10" stroke-linecap="round" stroke-linejoin="round"></path>
<path d="M525.664 254.007C523.571 257.419 521.476 260.831 519.383 264.243C546.689 263.57 574.564 264.615 601.743 267.347" stroke="#1A2746" stroke-width="0.666667" stroke-miterlimit="10" stroke-linecap="round" stroke-linejoin="round"></path>
<path d="M469.547 300.426C485.315 285.128 502.243 271.898 521.225 260.838" stroke="#1A2746" stroke-width="0.666667" stroke-miterlimit="10" stroke-linecap="round" stroke-linejoin="round"></path>
<path d="M489.449 273.675C488.157 277.738 487.069 281.866 486.191 286.038C486.191 286.038 484.508 281.294 484.771 278.934" stroke="#1A2746" stroke-width="0.666667" stroke-miterlimit="10" stroke-linecap="round" stroke-linejoin="round"></path>
<path d="M574.928 264.803C575.924 264.924 576.92 265.046 577.917 265.172L607.171 267.119C611.068 262.819 614.079 257.383 616.424 252.171C612.508 251.603 608.585 251.064 604.657 250.555C596.183 257.74 585.841 262.711 574.928 264.803Z" fill="#4361B6"></path>
<path d="M166.924 348.33C166.924 348.33 135.163 346.7 113.175 306.796C91.1869 266.892 133.534 265.263 150.636 292.952C167.738 320.64 166.924 348.33 166.924 348.33Z" fill="#36B66B"></path>
<path d="M164.478 347.143C163.912 347.143 163.34 346.976 162.841 346.63C161.531 345.724 161.203 343.927 162.109 342.618L237.031 234.306C237.935 232.994 239.735 232.667 241.043 233.574C242.353 234.48 242.681 236.276 241.775 237.587L166.853 345.899C166.294 346.708 165.394 347.143 164.478 347.143Z" fill="#36B66B"></path>
<path d="M231.26 242.46L267.092 330.414L286.637 321.455L243.475 223.73L231.26 242.46Z" fill="#36B66B"></path>
<path d="M325.975 374.062C326.901 384.934 315.055 391.882 295.324 393.562C275.595 395.242 253.325 385.124 254.527 380.146C256.156 373.398 268.845 359.099 288.575 357.419C308.305 355.739 325.049 363.19 325.975 374.062Z" fill="#4361B6"></path>
<path d="M230.096 463.176C229.816 463.176 229.531 463.131 229.249 463.038C227.853 462.57 227.1 461.059 227.568 459.662L254.967 377.786C255.435 376.391 256.941 375.639 258.343 376.103C259.74 376.571 260.492 378.082 260.024 379.479L232.625 461.355C232.251 462.471 231.212 463.176 230.096 463.176Z" fill="#4361B6"></path>
<path d="M666.696 404.123C657.976 399.371 658.645 386.89 667.271 371.066C675.895 355.242 694.752 343.41 697.929 346.82C702.236 351.443 706.725 368.254 698.1 384.078C689.475 399.902 675.415 408.876 666.696 404.123Z" fill="#F04035"></path>
<path d="M697.589 352.502C696.797 352.502 696.013 352.15 695.488 351.478L647.069 289.586C646.163 288.426 646.367 286.75 647.527 285.842C648.685 284.936 650.361 285.139 651.271 286.299L699.688 348.191C700.596 349.352 700.391 351.027 699.231 351.935C698.743 352.316 698.165 352.502 697.589 352.502Z" fill="#F04035"></path>
<path d="M675.32 481.29L591.665 477.86L593.528 450.806L680.747 454.131L675.32 481.29Z" fill="#F7981C"></path>
<path d="M530.027 533.048C534.4 524.125 546.907 524.252 563.1 532.188C579.293 540.123 591.939 558.46 588.668 561.784C584.233 566.289 567.623 571.507 551.431 563.572C535.237 555.637 525.655 541.971 530.027 533.048Z" fill="#F7981C"></path>
<path d="M586.811 561.643C586.739 561.643 586.664 561.64 586.591 561.634C585.255 561.513 584.269 560.332 584.389 558.996L593.967 453.052C594.087 451.716 595.275 450.748 596.604 450.851C597.94 450.972 598.925 452.154 598.804 453.488L589.228 559.434C589.113 560.695 588.053 561.643 586.811 561.643Z" fill="#F7981C"></path>
<path d="M613.135 536.287C617.121 527.186 629.621 526.776 646.14 534.01C662.659 541.243 676.08 559.022 672.953 562.483C668.716 567.175 652.345 573.099 635.827 565.866C619.309 558.632 609.149 545.39 613.135 536.287Z" fill="#F7981C"></path>
<path d="M670.989 562.424C670.928 562.424 670.867 562.422 670.805 562.416C669.468 562.316 668.464 561.151 668.565 559.813L676.328 456.422C676.428 455.084 677.573 454.078 678.931 454.182C680.268 454.282 681.271 455.447 681.171 456.786L673.408 560.176C673.312 561.452 672.248 562.424 670.989 562.424Z" fill="#F7981C"></path>
</g>
<defs>
<clipPath id="clip0_220_35089">
<rect width="666.667" height="666.667" fill="white" transform="translate(82 22.2868)"></rect>
</clipPath>
</defs>
</svg>