<svg viewBox="0 0 200 320" xmlns="http://www.w3.org/2000/svg">
  <defs>
    
    <linearGradient id="hair" x1="0" y1="0" x2="0" y2="1">
      <stop offset="0%" stop-color="#F472B6"></stop>
      <stop offset="60%" stop-color="#A78BFA"></stop>
      <stop offset="100%" stop-color="#6D28D9"></stop>
    </linearGradient>
    
    <linearGradient id="dress" x1="0" y1="0" x2="0" y2="1">
      <stop offset="0%" stop-color="#FCD34D"></stop>
      <stop offset="50%" stop-color="#F59E0B"></stop>
      <stop offset="100%" stop-color="#B45309"></stop>
    </linearGradient>
    
    <pattern id="sequins" x="0" y="0" width="10" height="10" patternUnits="userSpaceOnUse">
      <circle cx="2" cy="2" r="1.2" fill="#FEF3C7" opacity="0.6"></circle>
      <circle cx="7" cy="6" r="0.8" fill="#FFFBEB" opacity="0.7"></circle>
      <circle cx="4" cy="8" r="0.6" fill="#FBBF24" opacity="0.5"></circle>
    </pattern>
    
    <linearGradient id="skin" x1="0" y1="0" x2="1" y2="1">
      <stop offset="0%" stop-color="#FED7AA"></stop>
      <stop offset="100%" stop-color="#FCA98C"></stop>
    </linearGradient>
    
    <linearGradient id="micG" x1="0" y1="0" x2="0" y2="1">
      <stop offset="0%" stop-color="#E5E7EB"></stop>
      <stop offset="100%" stop-color="#6B7280"></stop>
    </linearGradient>
    
    <filter id="glow" x="-50%" y="-50%" width="200%" height="200%">
      <feGaussianBlur stdDeviation="3" result="blur"></feGaussianBlur>
      <feMerge>
        <feMergeNode in="blur"></feMergeNode>
        <feMergeNode in="SourceGraphic"></feMergeNode>
      </feMerge>
    </filter>
  </defs>

  
  <ellipse cx="100" cy="180" rx="85" ry="120" fill="url(#hair)" opacity="0.15" filter="url(#glow)"></ellipse>

  
  
  <path d="M 110,225 Q 113,265 112,290 L 120,295 L 122,302 L 113,304 L 102,302 L 102,290 Q 105,265 102,225 Z" fill="url(#skin)" stroke="#1a1a1a" stroke-width="1.8" stroke-linejoin="round"></path>
  
  <path d="M 90,225 Q 87,265 88,290 L 80,295 L 78,302 L 87,304 L 98,302 L 98,290 Q 95,265 98,225 Z" fill="url(#skin)" stroke="#1a1a1a" stroke-width="1.8" stroke-linejoin="round"></path>

  
  <path d="M 76,302 L 76,308 L 95,310 L 102,304 L 96,303 Z" fill="#1a1a1a" stroke="#1a1a1a" stroke-width="1.5" stroke-linejoin="round"></path>
  <path d="M 124,302 L 124,308 L 105,310 L 98,304 L 104,303 Z" fill="#1a1a1a" stroke="#1a1a1a" stroke-width="1.5" stroke-linejoin="round"></path>
  
  <ellipse cx="86" cy="306" rx="6" ry="1.2" fill="#fff" opacity="0.25"></ellipse>
  <ellipse cx="114" cy="306" rx="6" ry="1.2" fill="#fff" opacity="0.25"></ellipse>

  
  
  <path d="M 72,175 L 128,175 L 138,232 Q 100,242 62,232 Z" fill="url(#dress)" stroke="#1a1a1a" stroke-width="2" stroke-linejoin="round"></path>
  
  <path d="M 72,175 L 128,175 L 138,232 Q 100,242 62,232 Z" fill="url(#sequins)" opacity="0.7"></path>
  
  <path d="M 75,180 L 90,232" fill="none" stroke="#FEF3C7" stroke-width="2" opacity="0.4" stroke-linecap="round"></path>

  
  <path d="M 78,128 Q 75,150 72,175 L 128,175 Q 125,150 122,128&#xA;           Q 120,120 100,118 Q 80,120 78,128 Z" fill="url(#dress)" stroke="#1a1a1a" stroke-width="2" stroke-linejoin="round"></path>
  <path d="M 78,128 Q 75,150 72,175 L 128,175 Q 125,150 122,128&#xA;           Q 120,120 100,118 Q 80,120 78,128 Z" fill="url(#sequins)" opacity="0.7"></path>
  
  <path d="M 88,122 Q 100,132 112,122" fill="none" stroke="#1a1a1a" stroke-width="1.8" stroke-linecap="round"></path>

  
  
  <path d="M 76,135 Q 65,165 60,200 Q 58,215 64,222 Q 70,222 71,215 Q 73,180 82,150 Z" fill="url(#skin)" stroke="#1a1a1a" stroke-width="1.8" stroke-linejoin="round"></path>
  
  <circle cx="64" cy="218" r="6" fill="url(#skin)" stroke="#1a1a1a" stroke-width="1.6"></circle>

  
  <path d="M 124,135 Q 138,150 145,135 Q 148,118 142,108 Q 134,110 132,118 Q 130,128 122,138 Z" fill="url(#skin)" stroke="#1a1a1a" stroke-width="1.8" stroke-linejoin="round"></path>
  
  <circle cx="143" cy="108" r="6.5" fill="url(#skin)" stroke="#1a1a1a" stroke-width="1.6"></circle>

  
  
  <rect x="146" y="80" width="3" height="30" fill="url(#micG)" stroke="#1a1a1a" stroke-width="1.2"></rect>
  
  <circle cx="147.5" cy="78" r="9" fill="#2a2a2a" stroke="#1a1a1a" stroke-width="1.8"></circle>
  
  <circle cx="147.5" cy="78" r="6.5" fill="none" stroke="#FBBF24" stroke-width="0.5" opacity="0.6"></circle>
  <circle cx="147.5" cy="78" r="4" fill="none" stroke="#FBBF24" stroke-width="0.4" opacity="0.5"></circle>
  
  <circle cx="147.5" cy="78" r="11" fill="none" stroke="#F472B6" stroke-width="1.5" opacity="0.5" filter="url(#glow)"></circle>

  
  <path d="M 92,108 L 92,120 Q 100,124 108,120 L 108,108 Z" fill="url(#skin)" stroke="#1a1a1a" stroke-width="1.8" stroke-linejoin="round"></path>
  
  <path d="M 92,112 Q 100,117 108,112" fill="none" stroke="#1a1a1a" stroke-width="2.5"></path>
  <circle cx="100" cy="115" r="1.8" fill="#FBBF24"></circle>

  
  
  <path d="M 72,95 Q 65,75 70,55 Q 78,38 100,35 Q 122,38 130,55 Q 135,75 128,95&#xA;           Q 130,110 124,118 L 122,108 Q 122,98 118,90 Q 100,85 82,90 Q 78,98 78,108 L 76,118&#xA;           Q 70,110 72,95 Z" fill="url(#hair)" stroke="#1a1a1a" stroke-width="1.8" stroke-linejoin="round"></path>
  
  <ellipse cx="100" cy="78" rx="22" ry="26" fill="url(#skin)" stroke="#1a1a1a" stroke-width="1.8"></ellipse>
  
  <path d="M 80,62 Q 85,52 100,50 Q 115,52 120,62 Q 118,70 110,68 Q 100,64 90,68 Q 82,70 80,62 Z" fill="url(#hair)" stroke="#1a1a1a" stroke-width="1.6" stroke-linejoin="round"></path>

  
  
  <path d="M 86,72 Q 91,70 95,72" fill="none" stroke="#1a1a1a" stroke-width="2" stroke-linecap="round"></path>
  <path d="M 105,72 Q 109,70 114,72" fill="none" stroke="#1a1a1a" stroke-width="2" stroke-linecap="round"></path>
  
  <path d="M 86,80 Q 91,84 95,80" fill="none" stroke="#1a1a1a" stroke-width="1.6" stroke-linecap="round"></path>
  <path d="M 105,80 Q 109,84 114,80" fill="none" stroke="#1a1a1a" stroke-width="1.6" stroke-linecap="round"></path>
  
  <path d="M 84,77 Q 90,75 96,77" fill="none" stroke="#A78BFA" stroke-width="2" opacity="0.45" stroke-linecap="round"></path>
  <path d="M 104,77 Q 110,75 116,77" fill="none" stroke="#A78BFA" stroke-width="2" opacity="0.45" stroke-linecap="round"></path>
  
  <line x1="84" y1="80" x2="82" y2="78" stroke="#1a1a1a" stroke-width="1.2" stroke-linecap="round"></line>
  <line x1="95" y1="80" x2="97" y2="78" stroke="#1a1a1a" stroke-width="1.2" stroke-linecap="round"></line>
  <line x1="104" y1="80" x2="102" y2="78" stroke="#1a1a1a" stroke-width="1.2" stroke-linecap="round"></line>
  <line x1="115" y1="80" x2="117" y2="78" stroke="#1a1a1a" stroke-width="1.2" stroke-linecap="round"></line>

  
  <ellipse cx="86" cy="86" rx="4" ry="2.5" fill="#F472B6" opacity="0.5"></ellipse>
  <ellipse cx="114" cy="86" rx="4" ry="2.5" fill="#F472B6" opacity="0.5"></ellipse>

  
  <path d="M 100,84 Q 99,88 100,90 Q 102,90 102,88" fill="none" stroke="#1a1a1a" stroke-width="1.3" stroke-linecap="round"></path>

  
  <path d="M 92,96 Q 100,93 108,96 Q 105,100 100,100 Q 95,100 92,96 Z" fill="#DC2626" stroke="#1a1a1a" stroke-width="1.5" stroke-linejoin="round"></path>
  
  <ellipse cx="100" cy="95" rx="3" ry="0.8" fill="#FCA5A5" opacity="0.7"></ellipse>
  
  <ellipse cx="100" cy="98" rx="2" ry="1" fill="#7F1D1D"></ellipse>

  
  <circle cx="78" cy="86" r="2" fill="#FBBF24" stroke="#1a1a1a" stroke-width="1"></circle>
  <path d="M 78,88 L 78,93" stroke="#FBBF24" stroke-width="1.2"></path>
  <circle cx="78" cy="95" r="2.5" fill="#FBBF24" stroke="#1a1a1a" stroke-width="1"></circle>
  <circle cx="122" cy="86" r="2" fill="#FBBF24" stroke="#1a1a1a" stroke-width="1"></circle>
  <path d="M 122,88 L 122,93" stroke="#FBBF24" stroke-width="1.2"></path>
  <circle cx="122" cy="95" r="2.5" fill="#FBBF24" stroke="#1a1a1a" stroke-width="1"></circle>

  
  <g opacity="0.85">
    <text x="40" y="60" font-size="14" fill="#FBBF24">✦</text>
    <text x="155" y="45" font-size="12" fill="#F472B6">✧</text>
    <text x="30" y="180" font-size="11" fill="#A78BFA">✦</text>
    <text x="165" y="200" font-size="13" fill="#FBBF24">✨</text>
    <text x="50" y="270" font-size="10" fill="#F472B6">✦</text>
    <text x="155" y="280" font-size="11" fill="#A78BFA">✧</text>
  </g>

  
  <text x="160" y="65" font-size="16" fill="#F472B6" opacity="0.85">♪</text>
  <text x="170" y="95" font-size="14" fill="#A78BFA" opacity="0.85">♫</text>
</svg>