<svg width="830" height="712" viewBox="0 0 830 712" fill="none" xmlns="http://www.w3.org/2000/svg">
<g clip-path="url(#clip0_220_43206)">
<path d="M351.28 626.3L670.965 619.959L134.709 22.2867H88.0676L351.28 626.3Z" fill="#FFF9F7"></path>
<path d="M36.9907 628.993H545.977L998 63.2173V22.2866H893.253L36.9907 628.993Z" fill="#FEF2F0"></path>
<path d="M998 688.953H-2V609.635H998V688.953Z" fill="#FBCBB8"></path>
<path d="M48.2332 609.793H304.609L291.056 448.288H64.0452L34.6806 460.712L19.9983 609.793H48.2332Z" fill="#FABAAE"></path>
<path d="M282.948 532.732C282.948 560.241 260.648 582.542 233.139 582.542C205.629 582.542 183.329 560.241 183.329 532.732C183.329 505.224 205.629 482.923 233.139 482.923C260.648 482.923 282.948 505.224 282.948 532.732Z" fill="#F794A9"></path>
<path d="M277.312 532.732C277.312 557.129 257.535 576.906 233.139 576.906C208.743 576.906 188.965 557.129 188.965 532.732C188.965 508.336 208.743 488.559 233.139 488.559C257.535 488.559 277.312 508.336 277.312 532.732Z" stroke="#FABAAE" stroke-width="0.666667" stroke-miterlimit="10"></path>
<mask id="mask0_220_43206" style="mask-type:luminance" maskUnits="userSpaceOnUse" x="188" y="488" width="90" height="89">
<path d="M277.312 532.732C277.312 557.129 257.535 576.906 233.139 576.906C208.743 576.906 188.965 557.129 188.965 532.732C188.965 508.336 208.743 488.559 233.139 488.559C257.535 488.559 277.312 508.336 277.312 532.732Z" fill="white"></path>
</mask>
<g mask="url(#mask0_220_43206)">
<path d="M192.003 474.783V591.105" stroke="#FABAAE" stroke-width="0.666667" stroke-miterlimit="10"></path>
<path d="M198.348 474.783V591.105" stroke="#FABAAE" stroke-width="0.666667" stroke-miterlimit="10"></path>
<path d="M204.693 474.783V591.105" stroke="#FABAAE" stroke-width="0.666667" stroke-miterlimit="10"></path>
<path d="M211.037 474.783V591.105" stroke="#FABAAE" stroke-width="0.666667" stroke-miterlimit="10"></path>
<path d="M217.383 474.783V591.105" stroke="#FABAAE" stroke-width="0.666667" stroke-miterlimit="10"></path>
<path d="M223.727 474.783V591.105" stroke="#FABAAE" stroke-width="0.666667" stroke-miterlimit="10"></path>
<path d="M230.072 474.783V591.105" stroke="#FABAAE" stroke-width="0.666667" stroke-miterlimit="10"></path>
<path d="M236.417 474.783V591.105" stroke="#FABAAE" stroke-width="0.666667" stroke-miterlimit="10"></path>
<path d="M242.761 474.783V591.105" stroke="#FABAAE" stroke-width="0.666667" stroke-miterlimit="10"></path>
<path d="M249.107 474.783V591.105" stroke="#FABAAE" stroke-width="0.666667" stroke-miterlimit="10"></path>
<path d="M255.451 474.783V591.105" stroke="#FABAAE" stroke-width="0.666667" stroke-miterlimit="10"></path>
<path d="M261.796 474.783V591.105" stroke="#FABAAE" stroke-width="0.666667" stroke-miterlimit="10"></path>
<path d="M268.141 474.783V591.105" stroke="#FABAAE" stroke-width="0.666667" stroke-miterlimit="10"></path>
<path d="M274.485 474.783V591.105" stroke="#FABAAE" stroke-width="0.666667" stroke-miterlimit="10"></path>
<path d="M175.084 574.185H291.405" stroke="#FABAAE" stroke-width="0.666667" stroke-miterlimit="10"></path>
<path d="M175.084 567.841H291.405" stroke="#FABAAE" stroke-width="0.666667" stroke-miterlimit="10"></path>
<path d="M175.084 561.496H291.405" stroke="#FABAAE" stroke-width="0.666667" stroke-miterlimit="10"></path>
<path d="M175.084 555.151H291.405" stroke="#FABAAE" stroke-width="0.666667" stroke-miterlimit="10"></path>
<path d="M175.084 548.807H291.405" stroke="#FABAAE" stroke-width="0.666667" stroke-miterlimit="10"></path>
<path d="M175.084 542.461H291.405" stroke="#FABAAE" stroke-width="0.666667" stroke-miterlimit="10"></path>
<path d="M175.084 536.116H291.405" stroke="#FABAAE" stroke-width="0.666667" stroke-miterlimit="10"></path>
<path d="M175.084 529.772H291.405" stroke="#FABAAE" stroke-width="0.666667" stroke-miterlimit="10"></path>
<path d="M175.084 523.427H291.405" stroke="#FABAAE" stroke-width="0.666667" stroke-miterlimit="10"></path>
<path d="M175.084 517.083H291.405" stroke="#FABAAE" stroke-width="0.666667" stroke-miterlimit="10"></path>
<path d="M175.084 510.737H291.405" stroke="#FABAAE" stroke-width="0.666667" stroke-miterlimit="10"></path>
<path d="M175.084 504.392H291.405" stroke="#FABAAE" stroke-width="0.666667" stroke-miterlimit="10"></path>
<path d="M175.084 498.048H291.405" stroke="#FABAAE" stroke-width="0.666667" stroke-miterlimit="10"></path>
<path d="M175.084 491.703H291.405" stroke="#FABAAE" stroke-width="0.666667" stroke-miterlimit="10"></path>
</g>
<path d="M178.288 532.732C178.288 560.241 155.988 582.542 128.479 582.542C100.969 582.542 78.6694 560.241 78.6694 532.732C78.6694 505.224 100.969 482.923 128.479 482.923C155.988 482.923 178.288 505.224 178.288 532.732Z" fill="#F794A9"></path>
<path d="M172.652 532.732C172.652 557.129 152.875 576.906 128.479 576.906C104.082 576.906 84.3052 557.129 84.3052 532.732C84.3052 508.336 104.082 488.559 128.479 488.559C152.875 488.559 172.652 508.336 172.652 532.732Z" stroke="#FABAAE" stroke-width="0.666667" stroke-miterlimit="10"></path>
<mask id="mask1_220_43206" style="mask-type:luminance" maskUnits="userSpaceOnUse" x="84" y="488" width="89" height="89">
<path d="M172.652 532.732C172.652 557.129 152.875 576.906 128.479 576.906C104.082 576.906 84.3052 557.129 84.3052 532.732C84.3052 508.336 104.082 488.559 128.479 488.559C152.875 488.559 172.652 508.336 172.652 532.732Z" fill="white"></path>
</mask>
<g mask="url(#mask1_220_43206)">
<path d="M87.3425 474.783V591.105" stroke="#FABAAE" stroke-width="0.666667" stroke-miterlimit="10"></path>
<path d="M93.6873 474.783V591.105" stroke="#FABAAE" stroke-width="0.666667" stroke-miterlimit="10"></path>
<path d="M100.032 474.783V591.105" stroke="#FABAAE" stroke-width="0.666667" stroke-miterlimit="10"></path>
<path d="M106.377 474.783V591.105" stroke="#FABAAE" stroke-width="0.666667" stroke-miterlimit="10"></path>
<path d="M112.722 474.783V591.105" stroke="#FABAAE" stroke-width="0.666667" stroke-miterlimit="10"></path>
<path d="M119.067 474.783V591.105" stroke="#FABAAE" stroke-width="0.666667" stroke-miterlimit="10"></path>
<path d="M125.412 474.783V591.105" stroke="#FABAAE" stroke-width="0.666667" stroke-miterlimit="10"></path>
<path d="M131.756 474.783V591.105" stroke="#FABAAE" stroke-width="0.666667" stroke-miterlimit="10"></path>
<path d="M138.101 474.783V591.105" stroke="#FABAAE" stroke-width="0.666667" stroke-miterlimit="10"></path>
<path d="M144.447 474.783V591.105" stroke="#FABAAE" stroke-width="0.666667" stroke-miterlimit="10"></path>
<path d="M150.791 474.783V591.105" stroke="#FABAAE" stroke-width="0.666667" stroke-miterlimit="10"></path>
<path d="M157.136 474.783V591.105" stroke="#FABAAE" stroke-width="0.666667" stroke-miterlimit="10"></path>
<path d="M163.481 474.783V591.105" stroke="#FABAAE" stroke-width="0.666667" stroke-miterlimit="10"></path>
<path d="M169.825 474.783V591.105" stroke="#FABAAE" stroke-width="0.666667" stroke-miterlimit="10"></path>
<path d="M70.4233 574.185H186.745" stroke="#FABAAE" stroke-width="0.666667" stroke-miterlimit="10"></path>
<path d="M70.4233 567.841H186.745" stroke="#FABAAE" stroke-width="0.666667" stroke-miterlimit="10"></path>
<path d="M70.4233 561.496H186.745" stroke="#FABAAE" stroke-width="0.666667" stroke-miterlimit="10"></path>
<path d="M70.4233 555.151H186.745" stroke="#FABAAE" stroke-width="0.666667" stroke-miterlimit="10"></path>
<path d="M70.4233 548.807H186.745" stroke="#FABAAE" stroke-width="0.666667" stroke-miterlimit="10"></path>
<path d="M70.4233 542.461H186.745" stroke="#FABAAE" stroke-width="0.666667" stroke-miterlimit="10"></path>
<path d="M70.4233 536.116H186.745" stroke="#FABAAE" stroke-width="0.666667" stroke-miterlimit="10"></path>
<path d="M70.4233 529.772H186.745" stroke="#FABAAE" stroke-width="0.666667" stroke-miterlimit="10"></path>
<path d="M70.4233 523.427H186.745" stroke="#FABAAE" stroke-width="0.666667" stroke-miterlimit="10"></path>
<path d="M70.4233 517.083H186.745" stroke="#FABAAE" stroke-width="0.666667" stroke-miterlimit="10"></path>
<path d="M70.4233 510.737H186.745" stroke="#FABAAE" stroke-width="0.666667" stroke-miterlimit="10"></path>
<path d="M70.4233 504.392H186.745" stroke="#FABAAE" stroke-width="0.666667" stroke-miterlimit="10"></path>
<path d="M70.4233 498.048H186.745" stroke="#FABAAE" stroke-width="0.666667" stroke-miterlimit="10"></path>
<path d="M70.4233 491.703H186.745" stroke="#FABAAE" stroke-width="0.666667" stroke-miterlimit="10"></path>
</g>
<path d="M712.019 609.793H968.395L954.843 448.288H727.831L698.467 460.712L683.784 609.793H712.019Z" fill="#FABAAE"></path>
<path d="M842.073 532.732C842.073 560.241 819.773 582.542 792.264 582.542C764.755 582.542 742.455 560.241 742.455 532.732C742.455 505.224 764.755 482.923 792.264 482.923C819.773 482.923 842.073 505.224 842.073 532.732Z" fill="#F794A9"></path>
<path d="M836.437 532.732C836.437 557.129 816.66 576.906 792.264 576.906C767.868 576.906 748.091 557.129 748.091 532.732C748.091 508.336 767.868 488.559 792.264 488.559C816.66 488.559 836.437 508.336 836.437 532.732Z" stroke="#FABAAE" stroke-width="0.666667" stroke-miterlimit="10"></path>
<mask id="mask2_220_43206" style="mask-type:luminance" maskUnits="userSpaceOnUse" x="748" y="488" width="89" height="89">
<path d="M836.437 532.732C836.437 557.129 816.66 576.906 792.264 576.906C767.868 576.906 748.091 557.129 748.091 532.732C748.091 508.336 767.868 488.559 792.264 488.559C816.66 488.559 836.437 508.336 836.437 532.732Z" fill="white"></path>
</mask>
<g mask="url(#mask2_220_43206)">
<path d="M734.209 574.185H850.531" stroke="#FABAAE" stroke-width="0.666667" stroke-miterlimit="10"></path>
<path d="M734.209 567.841H850.531" stroke="#FABAAE" stroke-width="0.666667" stroke-miterlimit="10"></path>
<path d="M734.209 561.496H850.531" stroke="#FABAAE" stroke-width="0.666667" stroke-miterlimit="10"></path>
<path d="M734.209 555.151H850.531" stroke="#FABAAE" stroke-width="0.666667" stroke-miterlimit="10"></path>
<path d="M734.209 548.807H850.531" stroke="#FABAAE" stroke-width="0.666667" stroke-miterlimit="10"></path>
<path d="M734.209 542.461H850.531" stroke="#FABAAE" stroke-width="0.666667" stroke-miterlimit="10"></path>
<path d="M734.209 536.116H850.531" stroke="#FABAAE" stroke-width="0.666667" stroke-miterlimit="10"></path>
<path d="M734.209 529.772H850.531" stroke="#FABAAE" stroke-width="0.666667" stroke-miterlimit="10"></path>
<path d="M734.209 523.427H850.531" stroke="#FABAAE" stroke-width="0.666667" stroke-miterlimit="10"></path>
<path d="M734.209 517.083H850.531" stroke="#FABAAE" stroke-width="0.666667" stroke-miterlimit="10"></path>
<path d="M734.209 510.737H850.531" stroke="#FABAAE" stroke-width="0.666667" stroke-miterlimit="10"></path>
<path d="M734.209 504.392H850.531" stroke="#FABAAE" stroke-width="0.666667" stroke-miterlimit="10"></path>
<path d="M734.209 498.048H850.531" stroke="#FABAAE" stroke-width="0.666667" stroke-miterlimit="10"></path>
<path d="M734.209 491.703H850.531" stroke="#FABAAE" stroke-width="0.666667" stroke-miterlimit="10"></path>
</g>
<path d="M683.784 609.793H732.476L727.831 448.288L698.467 460.712L683.784 609.793Z" fill="#F794A9"></path>
<path d="M252.331 648.57C252.331 656.055 203.788 662.123 143.908 662.123C84.027 662.123 35.4844 656.055 35.4844 648.57C35.4844 641.085 84.027 635.017 143.908 635.017C203.788 635.017 252.331 641.085 252.331 648.57Z" fill="#FAB8A5"></path>
<path d="M943.259 647.432C943.259 654.288 887.024 659.846 817.653 659.846C748.284 659.846 692.048 654.288 692.048 647.432C692.048 640.575 748.284 635.017 817.653 635.017C887.024 635.017 943.259 640.575 943.259 647.432Z" fill="#FAB8A5"></path>
<path d="M694.665 642.308C694.665 649.661 606.096 655.623 496.84 655.623C387.583 655.623 299.013 649.661 299.013 642.308C299.013 634.955 387.583 628.994 496.84 628.994C606.096 628.994 694.665 634.955 694.665 642.308Z" fill="#FAB8A5"></path>
<path d="M478.871 545.544L522.959 583.128L490.435 638.781H404.425C404.425 638.781 409.484 624.327 431.891 616.376C454.296 608.425 458.633 612.039 460.801 609.871L429.721 594.694L478.871 545.544Z" fill="#1A2548"></path>
<path d="M452.395 606.623C455.252 603.97 458.299 601.455 461.793 599.724C466.12 597.583 470.973 596.719 475.383 594.756C485.532 590.24 492.632 579.57 492.876 568.464C493.12 557.359 486.496 546.385 476.555 541.428C474.959 540.632 473.2 539.968 471.429 540.189C469.964 540.373 468.647 541.143 467.384 541.909C450.972 551.885 436.049 564.308 423.26 578.637C421.999 580.051 420.695 581.627 420.565 583.516C420.304 587.346 424.661 589.617 428.292 590.863C428.081 591.908 427.872 592.953 427.663 593.999L452.395 606.623Z" fill="#EF372C"></path>
<path d="M607.719 541.652L590.401 580.052L709.365 607.911C709.365 607.911 705.601 594.359 695.06 580.805C684.519 567.252 669.46 571.771 664.189 569.511C658.919 567.252 667.953 555.959 667.953 555.959L607.719 541.652Z" fill="#1A2548"></path>
<path d="M623.531 504.759L607.719 541.652C607.719 541.652 607.719 552.947 626.543 558.217C645.365 563.488 674.731 553.7 674.731 553.7L681.507 519.064L623.531 504.759Z" fill="#EF372C"></path>
<path d="M611.196 244.311C613.317 239.143 617.639 235.16 622.247 231.943C631.547 225.451 642.567 221.391 653.895 220.28C658.728 219.807 664.639 220.448 666.775 224.76C667.668 226.561 667.673 228.664 667.465 230.659C666.444 240.431 660.427 249.564 651.799 254.439C646.065 257.679 639.424 259.056 632.835 259.491C624.201 260.061 606.036 256.889 611.196 244.311Z" fill="#1A2548"></path>
<path d="M622.604 265.853C622.604 265.853 607.681 227.109 607.577 226.839C606.927 225.149 602.155 223.301 600.649 222.06C597.744 219.667 595.617 216.548 593.752 213.313C589.831 206.516 587.212 198.663 581.252 193.263C578.628 190.885 575.487 189.159 572.671 187.009C571.015 185.745 569.337 184.041 569.423 181.959C569.501 180.037 571.16 178.457 573.005 177.915C574.851 177.372 576.835 177.665 578.707 178.105C584.177 179.393 589.352 181.925 593.725 185.455C598.327 189.169 597.44 181.556 597.644 178.863C597.869 175.885 598.093 172.908 598.317 169.932L652.927 183.3L655.708 214.383L668.508 249.343L622.604 265.853Z" fill="#F68541"></path>
<path d="M601.695 190.783C615.707 190.08 625.751 204.416 631.912 217.02" stroke="#1A2548" stroke-width="0.666667" stroke-miterlimit="10" stroke-linecap="round" stroke-linejoin="round"></path>
<path d="M542.091 166.175C543.909 167.009 546.06 166.213 546.896 164.395C547.731 162.576 546.935 160.425 545.116 159.589C543.297 158.755 541.147 159.552 540.312 161.369C539.476 163.188 540.273 165.339 542.091 166.175Z" fill="#1A2548"></path>
<path d="M544.671 161.225L653.551 203.557C655.749 204.412 656.773 206.941 655.788 209.085C654.857 211.111 652.479 212.02 650.433 211.132L543.159 164.517L544.671 161.225Z" fill="#1A2548"></path>
<path d="M597.955 172.111C598.031 170.617 598.677 169.193 599.433 167.869C600.053 166.783 600.783 165.705 601.844 165C603.432 163.944 605.585 163.9 607.319 164.62C609.053 165.341 610.396 166.741 611.32 168.321C613.344 167.333 615.444 166.325 617.691 166.197C620.995 166.011 624.257 167.972 625.487 170.887C627.708 170.472 630.1 168.916 632.344 169.043C634.021 169.136 635.513 170.117 636.553 171.363C637.593 172.607 638.248 174.104 638.892 175.581C642.053 174.475 645.961 173.54 648.708 175.291C650.577 176.481 651.585 178.564 652.336 180.603C654.036 185.223 653.844 190.287 652.637 195C652.041 197.324 651.065 199.36 650.152 201.528C649.175 203.849 648 205.96 646.244 207.795C645.284 208.797 644.172 209.709 642.849 210.128C641.525 210.545 639.957 210.389 638.931 209.456C637.763 208.393 637.553 206.659 637.485 205.081C637.371 202.384 637.451 199.679 637.727 196.993C637.532 198.892 635.825 201.921 634.651 203.395C633.361 205.009 631.797 206.641 629.757 207.247C628.837 207.52 626.903 207.877 625.956 207.477C624.603 206.905 624.121 204.737 623.895 203.471C623.515 201.344 623.367 199.177 623.453 197.02C622.98 198.628 622.257 200.163 621.32 201.553C619.748 203.883 617.392 205.185 614.653 203.588C612.88 202.553 611.783 200.615 611.309 198.617C611.109 197.775 611.009 196.916 610.961 196.053C610.932 195.528 611.209 193.897 610.797 193.543C610.139 192.976 609.971 194.485 609.807 194.924C609.485 195.783 609.111 196.621 608.687 197.435C607.756 199.216 606.468 200.968 604.579 201.656C604.095 201.833 603.552 201.932 603.067 201.756C602.727 201.632 602.448 201.385 602.191 201.131C598.609 197.587 597.756 192.652 597.521 187.803C597.272 182.628 597.692 177.297 597.955 172.111Z" fill="#F68541"></path>
<path d="M610.733 167.345C612.197 175.307 612.244 183.528 610.867 191.507C610.349 194.503 609.115 197.553 606.907 199.705C603.204 203.315 600.316 200.908 599.289 196.764C597.424 189.236 596.96 181.364 597.928 173.669" stroke="#1A2548" stroke-width="0.666667" stroke-miterlimit="10" stroke-linecap="round" stroke-linejoin="round"></path>
<path d="M622.844 168.219C624.688 171.253 625.217 174.901 625.391 178.448C625.704 184.88 624.972 191.361 623.232 197.561C622.415 200.468 620.908 203.744 617.944 204.324C615.461 204.809 612.984 203.023 611.835 200.769C610.685 198.516 610.559 195.897 610.455 193.371" stroke="#1A2548" stroke-width="0.666667" stroke-miterlimit="10" stroke-linecap="round" stroke-linejoin="round"></path>
<path d="M638.048 175.095C639.307 182.613 639.607 190.489 637.18 197.717C636.008 201.212 634.095 204.624 631.013 206.647C629.929 207.359 628.645 207.893 627.36 207.715C625.567 207.465 624.205 205.852 623.695 204.113C623.183 202.376 623.073 198.979 623.247 197.176" stroke="#1A2548" stroke-width="0.666667" stroke-miterlimit="10" stroke-linecap="round" stroke-linejoin="round"></path>
<path d="M652.424 181.107C654.077 190.872 651.776 201.636 644.828 208.693C643.953 209.58 642.916 210.448 641.673 210.537C640.416 210.627 639.211 209.86 638.489 208.828C637.767 207.795 637.457 206.531 637.279 205.284C637.011 203.407 637.189 199.359 637.452 197.481" stroke="#1A2548" stroke-width="0.666667" stroke-miterlimit="10" stroke-linecap="round" stroke-linejoin="round"></path>
<path d="M606.965 225.417C610.537 227.319 615.428 230.043 619.46 229.721" stroke="#1A2548" stroke-width="0.666667" stroke-miterlimit="10" stroke-linecap="round" stroke-linejoin="round"></path>
<path d="M374.055 269.908C378.039 269.699 382.072 269.776 385.957 270.685C390.283 271.697 394.832 274.336 395.655 278.697C396.547 283.429 392.691 287.693 388.765 290.485C376.993 298.859 361.357 301.919 347.305 298.468C332.424 294.815 333.573 278.76 347.201 273.229C355.909 269.696 364.669 270.399 374.055 269.908Z" fill="#1A2548"></path>
<path d="M389.868 303.724L393.381 262.061C393.381 262.061 400.911 253.528 407.436 241.48C413.963 229.433 421.492 226.924 424.503 222.908C427.515 218.892 415.343 211.363 395.767 229.936L386.355 204.837L337.664 232.947L343.688 263.567L341.177 300.712L389.868 303.724Z" fill="#F68541"></path>
<path d="M394.488 230.48C380.839 233.725 369.663 245.619 367.272 259.444" stroke="#1A2548" stroke-width="0.666667" stroke-miterlimit="10" stroke-linecap="round" stroke-linejoin="round"></path>
<path d="M635.577 308.995L604.579 281.376C597.301 274.893 588.493 270.32 578.959 268.303C548.021 261.755 519.625 262.312 519.625 262.312L508.331 266.076C484.889 270.153 456.848 281.819 441.172 288.932C433.381 292.468 426.499 297.715 421.021 304.288L391.876 342.876L395.892 281.136C395.892 281.136 364.268 309.747 337.163 282.641C337.163 282.641 327.285 375.388 332.143 396.587C337.664 420.68 365.272 428.712 386.355 419.175C407.436 409.637 441.068 373.496 441.068 373.496L444.08 436.241C444.08 436.241 490.26 439.253 524.895 434.233C559.531 429.213 604.205 412.649 604.205 412.649L597.177 350.405C597.177 350.405 625.287 370.987 660.424 369.48C695.561 367.975 702.589 331.833 692.048 300.209C681.507 268.587 666.448 223.912 666.448 223.912C666.448 223.912 658.919 259.049 610.731 252.021L635.577 308.995Z" fill="#5BB0E6"></path>
<path d="M439.625 332.044C423.823 342.555 411.256 357.861 404.024 375.408C403.005 377.88 402.06 380.445 400.337 382.491C398.285 384.927 395.335 386.384 392.519 387.875C377.679 395.727 363.876 406.945 355.364 421.164C365.165 424.255 376.476 423.643 386.355 419.175C406.529 410.048 438.176 376.58 440.863 373.715L439.625 332.044Z" fill="#5799D9"></path>
<path d="M655.035 359.664C650.369 355.353 644.392 352.777 638.459 350.508C637.181 350.02 635.872 349.525 634.824 348.645C633.127 347.217 632.363 345.003 631.515 342.953C625.324 328.009 610.316 317.123 594.188 315.879L597.26 349.245L597.552 350.671C600.949 353.047 627.62 370.887 660.424 369.48C660.723 369.468 661.004 369.432 661.299 369.415C660.184 365.723 657.889 362.303 655.035 359.664Z" fill="#5799D9"></path>
<path d="M596.489 345.481C592.088 344.835 587.588 344.856 583.193 345.544C579.305 346.152 575.509 347.277 571.836 348.691C555.533 354.963 543.103 366.259 534.665 381.552C499.817 379.267 464.356 395.801 443.48 423.749L443.661 427.519L495.001 436.776C505.041 436.379 515.401 435.609 524.895 434.233C559.531 429.213 604.205 412.649 604.205 412.649L597.177 350.405C597.177 350.405 597.309 350.503 597.552 350.671L597.26 349.245L596.489 345.481Z" fill="#5799D9"></path>
<path d="M642.353 368.476C654.851 356.239 671.167 352.069 688.315 355.52C688.315 355.52 680.001 365.464 675.483 367.724C670.965 369.983 642.353 368.476 642.353 368.476Z" fill="#1A2548"></path>
<path d="M633.577 303.743C635.585 308.816 637.595 313.889 639.603 318.964C641.217 323.044 642.8 327.811 640.629 331.624" stroke="#1A2548" stroke-width="0.666667" stroke-miterlimit="10" stroke-linecap="round" stroke-linejoin="round"></path>
<path d="M593.1 305.597C595.108 320.831 596.264 336.177 596.557 351.54" stroke="#1A2548" stroke-width="0.666667" stroke-miterlimit="10" stroke-linecap="round" stroke-linejoin="round"></path>
<path d="M602.111 307.489C601.865 319.131 599.825 330.732 596.085 341.76" stroke="#1A2548" stroke-width="0.666667" stroke-miterlimit="10" stroke-linecap="round" stroke-linejoin="round"></path>
<path d="M441.068 373.496L440.189 344.005L421.743 392.195L441.068 373.496Z" fill="#1A2548"></path>
<path d="M438.716 321.792C439.255 331.829 439.793 341.867 440.331 351.904" stroke="#1A2548" stroke-width="0.666667" stroke-miterlimit="10" stroke-linecap="round" stroke-linejoin="round"></path>
<path d="M391.691 341.74C391.464 347.865 391.237 353.991 391.011 360.116C390.917 362.647 390.828 365.219 391.456 367.673C392.084 370.127 393.543 372.489 395.815 373.607" stroke="#1A2548" stroke-width="0.666667" stroke-miterlimit="10" stroke-linecap="round" stroke-linejoin="round"></path>
<path d="M484.236 271.347C481.775 274.304 476.351 279.181 474.273 282.42C472.62 284.999 471.076 287.699 470.299 290.661C469.523 293.623 469.575 296.903 471.009 299.609C471.539 300.608 472.265 301.528 473.227 302.124C474.64 302.999 476.391 303.085 478.053 303.089C484.844 303.109 491.637 302.179 498.173 300.336" stroke="#1A2548" stroke-width="0.666667" stroke-miterlimit="10" stroke-linecap="round" stroke-linejoin="round"></path>
<path d="M493.757 302.109C487.953 304.577 482.149 307.045 476.345 309.513C476.819 310.567 477.853 311.237 478.836 311.844C495.716 322.273 510.965 329.324 530.543 337.983" stroke="#1A2548" stroke-width="0.666667" stroke-miterlimit="10" stroke-linecap="round" stroke-linejoin="round"></path>
<path d="M544.848 263.441C549.972 265.221 553.545 268.289 558.024 271.347C560.859 273.281 564.163 276.789 565.873 279.765C567.583 282.74 568.109 286.58 566.483 289.601C564.961 292.429 561.905 294.056 558.915 295.223C555.107 296.708 551.113 297.717 547.057 298.22" stroke="#1A2548" stroke-width="0.666667" stroke-miterlimit="10" stroke-linecap="round" stroke-linejoin="round"></path>
<path d="M553.872 297.395C558.929 298.437 563.883 299.981 568.636 301.997C561.044 313.572 551.113 322.639 539.955 330.829C537.644 332.525 534.684 334.971 530.919 337.229" stroke="#1A2548" stroke-width="0.666667" stroke-miterlimit="10" stroke-linecap="round" stroke-linejoin="round"></path>
<path d="M529.036 322.547C532.575 359.135 536.228 395.032 538.321 431.731" stroke="#1A2548" stroke-width="0.666667" stroke-miterlimit="10" stroke-linecap="round" stroke-linejoin="round"></path>
<path d="M542.213 424.947C542.213 424.947 602.448 391.064 625.789 377.512C649.131 363.959 686.777 347.395 713.883 379.017C740.989 410.641 719.907 464.853 699.577 507.017C679.248 549.181 675.483 562.735 675.483 562.735L604.707 526.593L622.777 490.452C622.777 490.452 586.491 505.185 548.989 510.783C498.543 518.312 457.131 517.559 457.131 517.559L497.789 550.688L434.543 606.406C434.543 606.406 332.139 526.293 329.131 489.7C324.613 434.735 357.279 425.428 392.377 423.441C432.284 421.183 519.752 428.704 519.752 428.704L542.213 424.947Z" fill="#5BB0E6"></path>
<path d="M654.781 412.483L622.777 490.452L604.707 526.593L675.483 562.735C675.483 562.735 676.997 557.295 683.255 542.627C683.609 539.94 683.816 537.235 683.841 534.519C683.967 521.431 680.167 508.533 671.556 498.676C682.103 469.785 675.392 435.309 654.781 412.483Z" fill="#5799D9"></path>
<path d="M417.476 475.848C407.6 497.789 409.605 524.667 422.627 544.9C423.807 546.732 425.087 548.548 425.72 550.635C426.524 553.287 426.212 556.134 425.841 558.88C424.435 569.296 422.273 579.672 422.324 590.183C422.335 592.388 422.461 594.611 422.707 596.821C429.955 602.815 434.543 606.406 434.543 606.406L497.789 550.688L466.671 525.332L466.165 525.088L465.315 524.227L457.131 517.559C457.131 517.559 457.699 517.568 458.736 517.575L417.476 475.848Z" fill="#5799D9"></path>
<path d="M437.555 494.971L488.755 516.805L457.884 517.559L437.555 494.971Z" fill="#1A2548"></path>
<path d="M484.739 271.599C484.739 271.599 509.308 305.797 528.157 321.543C543.969 293.936 544.472 263.316 544.472 263.316C544.472 263.316 519.123 260.932 513.601 261.183C508.08 261.433 484.739 271.599 484.739 271.599Z" fill="#F5F5F5"></path>
<path d="M526.869 276.265C526.149 264.384 524.648 256.871 523.615 245.013C514.743 244.893 505.849 244.085 496.98 243.825C497.332 252.604 497.24 261.401 496.704 270.171C496.704 270.171 496.252 274.265 510.272 277.139C524.291 280.013 526.869 276.265 526.869 276.265Z" fill="#F68541"></path>
<path d="M523.615 245.013C520.792 244.975 517.967 244.857 515.141 244.72L497.117 248.836C497.149 250.343 497.161 251.848 497.167 253.355C500.604 256.281 504.735 258.397 509.137 259.399C514.404 260.597 520.012 260.205 525.077 258.337C524.568 254.232 524.051 250.009 523.615 245.013Z" fill="#1A2548"></path>
<path d="M512.387 280.817C512.387 280.817 513.899 287.069 519.131 287.709C524.363 288.348 524.519 277.747 524.519 277.747L517.747 277.3L512.387 280.817Z" fill="#EF372C"></path>
<path d="M533.743 310.312L522.668 283.589L516.46 284.728L518.307 312.571C523.633 317.66 528.472 322.171 528.472 322.171C531.107 316.9 532.012 314.801 533.743 310.312Z" fill="#EF372C"></path>
<path d="M496.365 262.932C502.319 269.559 509.495 274.271 517.747 277.3L510.727 288.2C502.599 281.137 494.811 274.159 492.647 268.545L496.365 262.932Z" fill="#F5F5F5"></path>
<path d="M517.747 277.3L527.808 284.976C528.567 285.42 532.951 273.283 533.177 262.312L525.147 258.799C525.147 258.799 524.975 274.011 517.747 277.3Z" fill="#F5F5F5"></path>
<path d="M493.161 268.988C496.564 275.281 503.312 283.691 511.271 288.356L517.747 277.3L527.808 284.976C527.808 284.976 534.872 274.359 534.872 263.065" stroke="#1A2548" stroke-width="0.666667" stroke-miterlimit="10" stroke-linecap="round" stroke-linejoin="round"></path>
<path d="M539.708 215.049C537.157 214.865 534.648 215.656 532.228 216.477C511.865 223.392 492.515 233.277 474.979 245.724C474.979 245.724 480.26 246.209 501.145 239.289C522.031 232.369 539.708 215.049 539.708 215.049Z" fill="#1A2548"></path>
<path d="M496.339 237.437C496.961 240.264 498.007 243.008 499.432 245.552C500.38 247.245 501.503 248.857 502.872 250.248C506.657 254.091 512.353 256.012 517.665 255.237C519.739 254.935 521.792 254.219 523.356 252.864C530.596 246.593 527.852 231.195 522.817 224.276C519.217 219.331 513.096 215.928 507.013 216.521C498.156 217.387 493.353 226.667 495.515 234.687C495.84 235.895 496.069 236.217 496.339 237.437Z" fill="#F68541"></path>
<path d="M501.429 226.887C501.379 229.956 501.155 233.023 500.761 236.068C500.544 237.753 500.203 239.571 498.948 240.719C498.809 240.845 498.645 240.968 498.457 240.971C498.296 240.972 498.148 240.883 498.009 240.796C496.531 239.871 495.052 238.945 493.572 238.02C493.321 235.975 492.741 233.969 491.86 232.107C495.109 230.483 498.18 228.509 501.429 226.887Z" fill="#1A2548"></path>
<path d="M474.979 245.724C474.979 245.724 495.727 232.263 507.048 226.892C518.371 221.521 534.369 215.256 539.708 215.049C539.708 215.049 528.111 214.68 522.161 215.684C510.053 199.696 498.159 202.315 495.885 210.12C490.781 207.532 479.436 211.433 488.043 231.017L474.979 245.724Z" fill="#1A2548"></path>
<path d="M521.941 215.401C520.613 213.664 519.331 212.132 518.095 210.791C511.216 212.525 496.647 217.049 486.093 226.176C486.62 227.641 487.264 229.245 488.043 231.017L487.535 231.589C497.588 223.692 509.448 218.111 521.941 215.401Z" fill="#F89B0F"></path>
<path d="M499.137 238.88C497.701 235.947 493.728 235.263 491.509 237.66C491.304 237.881 491.111 238.115 490.933 238.36C489.487 240.348 489.056 243.075 489.956 245.363C490.931 247.841 493.292 249.564 495.813 250.423C498.631 251.384 502.013 251.323 504.292 249.407L499.137 238.88Z" fill="#F68541"></path>
<path d="M492.412 242.589C492.209 241.78 492.864 240.923 493.675 240.725C494.485 240.529 495.353 240.876 495.969 241.439C496.587 242 496.995 242.751 497.361 243.5C497.437 243.653 497.608 243.788 497.568 243.955C497.527 244.121 497.223 243.889 497.395 243.885C496.777 244.528 496.133 245.196 495.907 246.057C495.68 246.919 496.036 248.003 496.887 248.268C497.901 248.584 498.836 247.647 499.488 246.807" stroke="#1A2548" stroke-width="0.666667" stroke-miterlimit="10" stroke-linecap="round" stroke-linejoin="round"></path>
<path d="M491.803 237.412C494.22 235.972 497.675 236.649 499.369 238.896" stroke="#1A2548" stroke-width="0.666667" stroke-miterlimit="10" stroke-linecap="round" stroke-linejoin="round"></path>
<path d="M504.477 235.855C505.575 233.849 508.167 232.804 510.347 233.488" stroke="#1A2548" stroke-miterlimit="10" stroke-linecap="round" stroke-linejoin="round"></path>
<path d="M517.205 231.175C518.061 229.536 520.177 228.681 521.931 229.267" stroke="#1A2548" stroke-miterlimit="10" stroke-linecap="round" stroke-linejoin="round"></path>
<path d="M516.751 237.129C517.517 238.592 518.284 240.055 519.052 241.517C519.299 241.988 519.551 242.48 519.576 243.011C519.611 243.764 519.131 244.513 518.431 244.795C517.732 245.075 516.867 244.868 516.371 244.3" stroke="#1A2548" stroke-width="0.666667" stroke-miterlimit="10" stroke-linecap="round" stroke-linejoin="round"></path>
<path d="M510.8 239.169C510.705 239.631 510.255 239.927 509.793 239.832C509.333 239.737 509.037 239.287 509.132 238.827C509.227 238.365 509.676 238.069 510.137 238.164C510.597 238.259 510.895 238.709 510.8 239.169Z" fill="#1A2548"></path>
<path d="M521.316 236.136C521.221 236.597 520.772 236.893 520.311 236.799C519.851 236.704 519.553 236.253 519.648 235.793C519.744 235.332 520.193 235.036 520.655 235.131C521.115 235.225 521.412 235.676 521.316 236.136Z" fill="#1A2548"></path>
<path d="M521.44 246.256L512.389 247.276C512.389 247.276 514.293 250.166 516.988 250.144C519.682 250.123 521.44 246.256 521.44 246.256Z" fill="#1A2548"></path>
<path d="M439.285 185.503C437.773 186.813 435.485 186.649 434.175 185.137C432.864 183.625 433.028 181.337 434.54 180.027C436.051 178.717 438.34 178.88 439.649 180.392C440.96 181.904 440.797 184.192 439.285 185.503Z" fill="#1A2548"></path>
<path d="M435.424 181.473L342.732 252.571C340.86 254.005 340.585 256.721 342.129 258.503C343.589 260.188 346.128 260.396 347.843 258.971L437.797 184.211L435.424 181.473Z" fill="#1A2548"></path>
<path d="M387.312 206.828C386.823 205.416 385.801 204.229 384.707 203.169C383.808 202.3 382.805 201.469 381.588 201.089C379.769 200.52 377.689 201.079 376.227 202.256C374.763 203.433 373.865 205.153 373.421 206.928C371.2 206.547 368.903 206.167 366.709 206.672C363.485 207.416 360.901 210.212 360.537 213.353C358.289 213.577 355.556 212.753 353.437 213.501C351.852 214.061 350.696 215.42 350.045 216.905C349.395 218.392 349.184 220.013 348.98 221.611C345.636 221.433 341.621 221.628 339.475 224.077C338.013 225.744 337.627 228.025 337.477 230.192C337.136 235.103 338.737 239.912 341.215 244.099C342.436 246.164 343.944 247.847 345.427 249.671C347.015 251.627 348.733 253.325 350.932 254.596C352.135 255.289 353.456 255.853 354.844 255.885C356.231 255.916 357.693 255.327 358.417 254.144C359.243 252.797 358.957 251.073 358.581 249.54C357.939 246.919 357.104 244.344 356.088 241.843C356.805 243.611 359.291 246.041 360.832 247.128C362.52 248.317 364.479 249.447 366.607 249.457C367.568 249.463 369.525 249.264 370.321 248.616C371.461 247.688 371.316 245.471 371.179 244.192C370.949 242.044 370.485 239.923 369.799 237.876C370.703 239.288 371.825 240.559 373.115 241.631C375.276 243.427 377.903 244.02 380.085 241.72C381.497 240.229 382.009 238.061 381.905 236.012C381.861 235.148 381.717 234.295 381.523 233.452C381.404 232.94 380.68 231.453 380.977 230.997C381.452 230.269 382.035 231.671 382.315 232.045C382.864 232.78 383.457 233.48 384.092 234.143C385.484 235.593 387.211 236.915 389.216 237.047C389.732 237.081 390.28 237.024 390.696 236.719C390.988 236.505 391.187 236.191 391.363 235.875C393.809 231.469 393.248 226.493 392.117 221.772C390.909 216.733 389.016 211.735 387.312 206.828Z" fill="#F68541"></path>
<path d="M373.711 205.827C374.532 213.881 376.788 221.787 380.341 229.061C381.676 231.793 383.715 234.377 386.436 235.825C391 238.255 393.1 235.136 392.927 230.871C392.612 223.121 390.856 215.433 387.775 208.316" stroke="#1A2548" stroke-width="0.666667" stroke-miterlimit="10" stroke-linecap="round" stroke-linejoin="round"></path>
<path d="M362.327 210.053C361.405 213.483 361.919 217.132 362.744 220.587C364.241 226.849 366.757 232.868 370.164 238.333C371.76 240.895 374.124 243.619 377.131 243.347C379.651 243.119 381.529 240.711 382.003 238.225C382.476 235.74 381.865 233.191 381.257 230.736" stroke="#1A2548" stroke-width="0.666667" stroke-miterlimit="10" stroke-linecap="round" stroke-linejoin="round"></path>
<path d="M349.653 220.907C350.548 228.479 352.464 236.124 356.815 242.384C358.919 245.411 361.709 248.152 365.233 249.232C366.473 249.613 367.856 249.768 369.04 249.236C370.692 248.495 371.547 246.565 371.552 244.753C371.556 242.943 370.712 239.649 370.041 237.967" stroke="#1A2548" stroke-width="0.666667" stroke-miterlimit="10" stroke-linecap="round" stroke-linejoin="round"></path>
<path d="M337.533 230.701C338.677 240.539 343.897 250.229 352.543 255.061C353.631 255.669 354.869 256.212 356.087 255.949C357.319 255.683 358.261 254.611 358.667 253.417C359.071 252.224 359.015 250.924 358.837 249.676C358.569 247.8 357.265 243.963 356.488 242.233" stroke="#1A2548" stroke-width="0.666667" stroke-miterlimit="10" stroke-linecap="round" stroke-linejoin="round"></path>
<path d="M393.355 262.536C390.457 265.36 386.741 267.335 382.78 268.155" stroke="#1A2548" stroke-width="0.666667" stroke-miterlimit="10" stroke-linecap="round" stroke-linejoin="round"></path>
<path d="M442.825 424.193C442.825 424.193 523.389 427.959 530.165 428.712C536.943 429.464 589.648 399.347 601.695 391.817" stroke="#1A2548" stroke-width="0.666667" stroke-miterlimit="10" stroke-linecap="round" stroke-linejoin="round"></path>
<path d="M656.061 405.424C643.773 440.853 629.419 475.567 613.097 509.328" stroke="#1A2548" stroke-width="0.666667" stroke-miterlimit="10" stroke-linecap="round" stroke-linejoin="round"></path>
<path d="M594.919 500.241L643.86 439.253L622.777 490.452L594.919 500.241Z" fill="#1A2548"></path>
<path d="M458.296 517.132C443.703 501.868 429.108 486.604 414.515 471.34" stroke="#1A2548" stroke-width="0.666667" stroke-miterlimit="10" stroke-linecap="round" stroke-linejoin="round"></path>
<path d="M421.743 595.111L483.484 539.393" stroke="#1A2548" stroke-width="0.666667" stroke-miterlimit="10" stroke-linecap="round" stroke-linejoin="round"></path>
<path d="M611.483 515.3L681.507 546.923" stroke="#1A2548" stroke-width="0.666667" stroke-miterlimit="10" stroke-linecap="round" stroke-linejoin="round"></path>
<path d="M528.64 428.269C541.46 448.288 540.94 480.203 540.705 479.911" stroke="#1A2548" stroke-width="0.666667" stroke-miterlimit="10" stroke-linecap="round" stroke-linejoin="round"></path>
<path d="M540.547 434.757C543.119 453.725 542.988 473.057 540.159 491.989" stroke="#1A2548" stroke-width="0.666667" stroke-miterlimit="10" stroke-linecap="round" stroke-linejoin="round"></path>
<path d="M373.893 447.861C373.893 447.861 439.665 439.501 497.076 448.419L495.961 504.157C495.961 504.157 414.583 510.847 377.795 509.175L373.893 447.861Z" fill="#4B60B6"></path>
<path d="M595.733 432.255C595.733 432.255 672.095 426.681 696.62 432.812C692.16 490.78 691.603 503.6 691.603 503.6C691.603 503.6 611.897 499.699 586.257 496.912L582.356 434.484L595.733 432.255Z" fill="#4B60B6"></path>
<path d="M473.108 601.142L441.895 639.603L446.911 645.176L482.584 607.83L473.108 601.142Z" fill="#1A2548"></path>
<path d="M585.7 597.241C587.372 599.471 609.668 647.963 609.668 647.963L615.799 645.176L596.848 591.667L585.7 597.241Z" fill="#1A2548"></path>
<path d="M508.596 447.051C508.255 454.223 488.88 459.131 465.32 458.013C441.76 456.895 422.936 450.173 423.276 443.001C423.616 435.829 442.992 430.921 466.552 432.039C490.112 433.157 508.936 439.877 508.596 447.051Z" fill="#1A2548"></path>
<path d="M427.403 383.205C456.857 376.307 485.801 378.685 514.355 388.221L508.781 446.747C508.781 446.747 466.977 426.124 422.944 442.288L427.403 383.205Z" fill="#F89B0F"></path>
<path d="M547.425 445.796C547.765 452.968 567.141 457.877 590.701 456.759C614.261 455.64 633.085 448.92 632.745 441.748C632.404 434.575 613.029 429.667 589.469 430.785C565.909 431.903 547.085 438.624 547.425 445.796Z" fill="#1A2548"></path>
<path d="M631.127 381.951C601.673 375.052 572.728 377.432 544.175 386.967L547.24 445.493C547.24 445.493 589.044 424.869 633.077 441.033L631.127 381.951Z" fill="#F89B0F"></path>
<path d="M634.192 534.229C634.192 589.317 587.164 633.973 529.152 633.973C471.14 633.973 424.112 589.317 424.112 534.229C424.112 479.141 471.14 434.484 529.152 434.484C587.164 434.484 634.192 479.141 634.192 534.229Z" fill="#F89B0F"></path>
<path d="M623.757 534.229C623.757 583.844 581.401 624.064 529.152 624.064C476.904 624.064 434.548 583.844 434.548 534.229C434.548 484.615 476.904 444.395 529.152 444.395C581.401 444.395 623.757 484.615 623.757 534.229Z" fill="#F9D107"></path>
<path d="M642.553 301.269L634.749 646.291L640.324 645.734L646.455 300.712L642.553 301.269Z" fill="#F89B0F"></path>
<path d="M585.7 333.04C585.7 333.04 607.439 337.499 641.996 334.712C676.553 331.925 697.177 321.335 697.177 321.335C697.177 321.335 668.588 310.301 640.324 313.532C601.307 317.991 585.7 333.04 585.7 333.04Z" fill="#F9D107"></path>
<path d="M638.652 593.896L667.078 649.635L672.094 649.077L639.209 585.536L638.652 593.896Z" fill="#F89B0F"></path>
<path d="M638.095 590.552L597.405 643.504L601.864 645.176L639.767 595.012L638.095 590.552Z" fill="#F89B0F"></path>
<path d="M406.129 305.469L417.433 650.395L411.855 649.893L402.223 304.952L406.129 305.469Z" fill="#F89B0F"></path>
<path d="M463.303 336.663C463.303 336.663 441.611 341.341 407.027 338.905C372.441 336.469 351.712 326.089 351.712 326.089C351.712 326.089 380.188 314.765 408.484 317.709C447.544 321.772 463.303 336.663 463.303 336.663Z" fill="#F9D107"></path>
<path d="M413 598.042L385.14 654.067L380.119 653.56L412.359 589.688L413 598.042Z" fill="#F89B0F"></path>
<path d="M413.524 594.693L454.748 647.229L450.307 648.947L411.897 599.168L413.524 594.693Z" fill="#F89B0F"></path>
<path d="M545.525 398.769C573.227 390.575 602.891 394.879 631.447 399.245" stroke="#1A2548" stroke-width="0.666667" stroke-miterlimit="10" stroke-linecap="round" stroke-linejoin="round"></path>
<path d="M427.087 399.639C455.74 395.892 485.025 397.017 513.307 402.952" stroke="#1A2548" stroke-width="0.666667" stroke-miterlimit="10" stroke-linecap="round" stroke-linejoin="round"></path>
<path d="M510.984 513.081L525.713 482.981C527.136 480.073 531.255 480.001 532.777 482.857L548.14 511.663C548.793 512.887 550.036 513.68 551.421 513.757L584.421 515.591C588 515.789 589.501 520.253 586.771 522.575L562.416 543.276C561.46 544.089 560.945 545.307 561.027 546.559L563.724 587.696C563.937 590.951 560.352 593.058 557.613 591.288L525.709 570.684C524.697 570.031 523.444 569.872 522.303 570.253L484.965 582.699C481.697 583.788 478.688 580.48 480.083 577.329L494.495 544.745C495.2 543.149 494.781 541.28 493.461 540.139L472.804 522.273C470.025 519.869 471.725 515.305 475.399 515.305H507.42C508.935 515.305 510.317 514.443 510.984 513.081Z" fill="white"></path>
<path d="M335.988 594.816C335.988 594.816 351.972 626.156 359.447 638.433L407.528 616.371L383.992 553.527L335.988 594.816Z" fill="#F9D107"></path>
<path d="M139.391 387.3L263.625 491.205L338.595 611.108L399.613 581.393C399.613 581.393 352.843 472.684 341.857 455.299C330.873 437.913 246.308 358.688 246.308 358.688L139.391 387.3Z" fill="#4B60B6"></path>
<path d="M310.308 430.217C310.308 430.217 319.845 465.355 311.312 505.512C306.292 529.131 299.403 547.752 299.403 547.752L279.688 517.056L310.308 430.217Z" fill="#1A2548"></path>
<path d="M351.28 626.3L364.659 653.345L471.101 602.834C471.101 602.834 459.199 589.271 441.212 593.615C423.225 597.96 408.731 603.384 400.768 594.163C400.768 594.163 393.111 611.453 373.419 621.616C360.271 628.403 351.28 626.3 351.28 626.3Z" fill="#223A65"></path>
<path d="M156.827 156.956C154.312 157.413 152.079 158.804 149.94 160.203C131.943 171.975 115.667 186.372 101.787 202.797C101.787 202.797 107.023 201.949 125.524 190.043C144.025 178.135 156.827 156.956 156.827 156.956Z" fill="#1A2548"></path>
<path d="M262.324 211.701C258.288 208.537 252.729 208.156 247.629 208.695C240.321 209.465 233.109 211.911 227.219 216.304C221.328 220.697 216.839 227.115 215.368 234.315C215.08 235.723 214.912 237.22 215.405 238.569C216.569 241.752 220.632 242.612 224.021 242.652C234.755 242.777 245.448 239.403 254.305 233.372C261.081 228.757 272.563 219.727 262.324 211.701Z" fill="#1A2548"></path>
<path d="M253.46 198.312L266.637 232.571C266.637 232.571 238.025 242.359 228.989 238.971C219.955 235.583 226.731 213.371 226.731 213.371L253.46 198.312Z" fill="#F9A797"></path>
<path d="M247.94 183.032C245.601 179.009 244.429 174.316 244.604 169.665C244.665 168.021 244.891 166.363 244.624 164.739C244.357 163.113 243.484 161.472 241.975 160.816C239.949 159.936 237.508 161.188 236.309 163.041C235.109 164.895 234.847 167.181 234.613 169.377C234.248 172.832 233.921 176.516 235.505 179.608L247.94 183.032Z" fill="#FAB6A8"></path>
<path d="M222.947 237.873C228.583 240.055 234.901 238.249 240.619 236.289C245.796 234.513 250.979 232.593 255.592 229.647C260.204 226.7 264.255 222.623 266.293 217.544C266.293 217.544 287.719 290.924 286.589 308.995C285.46 327.065 242.92 340.241 227.484 284.524L222.947 237.873Z" fill="#4B60B6"></path>
<path d="M269.465 227.301C269.567 235.077 263.113 241.405 256.315 245.184C246.46 250.66 234.841 252.904 223.656 251.489" stroke="#1A2548" stroke-width="0.666667" stroke-miterlimit="10" stroke-linecap="round" stroke-linejoin="round"></path>
<path d="M220.157 342.768C180.192 357.864 139.267 370.418 97.712 380.331C92.8536 381.49 87.5396 381.623 82.85 379.905C70.9682 336.988 73.1229 291.606 75.3702 247.131C75.6708 241.183 69.3432 232.884 75.014 231.066C125.461 214.878 168.568 207.83 212.836 214.262C218.26 215.05 219.965 222.555 220.96 227.944C222.495 236.255 223.312 244.699 223.4 253.15C223.455 258.303 223.239 263.455 223.021 268.604C221.977 293.459 220.932 318.315 219.888 343.171C219.157 343.197 220.841 342.51 220.157 342.768Z" fill="#5BA7E0"></path>
<path d="M147.296 254.407C147.296 254.407 160.849 263.817 170.637 270.595C180.425 277.371 184.567 281.512 184.567 281.512" stroke="#1A2548" stroke-width="0.666667" stroke-miterlimit="10" stroke-linecap="round" stroke-linejoin="round"></path>
<path d="M118.696 219.027C115.42 222.475 112.449 226.212 109.829 230.181C108.515 232.171 107.241 234.564 107.979 236.832C108.856 239.525 112.03 240.579 114.78 241.257C120.663 242.708 126.569 244.163 132.597 244.784" stroke="#1A2548" stroke-width="0.666667" stroke-miterlimit="10" stroke-linecap="round" stroke-linejoin="round"></path>
<path d="M125.461 244.241C125.461 244.241 117.931 252.524 117.179 254.029C116.425 255.536 135.625 265.324 170.637 270.595" stroke="#1A2548" stroke-width="0.666667" stroke-miterlimit="10" stroke-linecap="round" stroke-linejoin="round"></path>
<path d="M171.767 211.865C171.767 211.865 188.331 216.007 190.591 221.653C192.849 227.3 174.779 239.724 174.779 239.724" stroke="#1A2548" stroke-width="0.666667" stroke-miterlimit="10" stroke-linecap="round" stroke-linejoin="round"></path>
<path d="M182.684 233.324C182.684 233.324 191.343 233.324 193.601 236.336C195.86 239.347 166.496 267.207 166.496 267.207" stroke="#1A2548" stroke-width="0.666667" stroke-miterlimit="10" stroke-linecap="round" stroke-linejoin="round"></path>
<path d="M96.8489 238.217C96.8489 238.217 110.025 243.112 113.414 269.088C116.802 295.065 120.567 335.599 120.567 335.599L98.3546 330.328L96.8489 238.217Z" fill="#1A2548"></path>
<path d="M163.108 265.324C163.108 265.324 122.449 239.347 119.061 218.641C119.061 218.641 143.155 212.241 171.767 211.865C171.767 211.865 172.143 252.9 163.108 265.324Z" fill="white"></path>
<path d="M158.213 219.771C155.427 208.2 152.633 201.064 149.541 189.571C140.785 191.005 131.888 191.765 123.11 193.061C124.992 201.644 126.441 210.321 127.448 219.049C127.448 219.049 127.72 223.159 142.025 223.536C156.331 223.912 158.213 219.771 158.213 219.771Z" fill="#FAB6A8"></path>
<path d="M149.541 189.571C146.756 190.027 143.953 190.405 141.148 190.765L124.122 197.971C124.417 199.448 124.693 200.929 124.961 202.411C128.857 204.692 133.295 206.052 137.805 206.268C143.2 206.525 148.652 205.159 153.312 202.435C152.093 198.481 150.844 194.413 149.541 189.571Z" fill="#1A2548"></path>
<path d="M120.408 189.448C121.715 192.029 123.412 194.427 125.425 196.535C126.767 197.939 128.255 199.22 129.928 200.225C134.552 203.003 140.547 203.444 145.497 201.369C147.431 200.559 149.24 199.353 150.417 197.652C155.865 189.776 149.371 175.547 142.769 170.101C138.051 166.209 131.274 164.44 125.532 166.531C117.17 169.576 114.832 179.76 118.924 186.988C119.54 188.077 119.843 188.333 120.408 189.448Z" fill="#FAB6A8"></path>
<path d="M119.051 191.997C122.89 191.191 125.916 188.205 128.096 184.945C129.571 182.74 130.779 180.321 131.331 177.727C131.883 175.132 131.747 172.347 130.643 169.935C124.006 174.849 117.907 179.72 111.854 185.337C113.987 187.956 116.559 189.719 119.051 191.997Z" fill="#F9D107"></path>
<path d="M131.36 173.245C136.212 173.085 141.065 172.925 145.917 172.764C145.048 169.475 142.041 165.409 138.639 165.345C135.972 166.936 133.671 168.699 131.585 170.997C131.169 171.456 130.748 171.964 130.661 172.579C130.574 173.192 130.741 173.219 131.36 173.245Z" fill="#F9D107"></path>
<path d="M143.155 227.677C143.155 227.677 145.413 233.7 150.684 233.7C155.955 233.7 154.825 223.159 154.825 223.159L148.049 223.536L143.155 227.677Z" fill="#1A2548"></path>
<path d="M175.783 350.908L86.4333 377.009C86.4333 377.009 84.3349 394.523 90.5083 416.137C111.779 409.005 131.616 397.609 148.449 382.776C161.76 381.543 174.172 378.184 185.749 372.392C179.616 359.035 175.783 350.908 175.783 350.908Z" fill="#5993D5"></path>
<path d="M117.053 597.872C117.053 597.872 103.5 624.977 100.488 639.034L157.712 641.542L180.3 600.884L117.053 597.872Z" fill="#F9D107"></path>
<path d="M105.006 616.444L98.4802 652.084L223.468 654.594C223.468 654.594 217.445 635.017 202.387 631.001C187.327 626.985 169.759 629.496 170.26 620.46C170.26 620.46 148.676 625.48 130.104 625.48C111.531 625.48 105.006 616.444 105.006 616.444Z" fill="#223A65"></path>
<path d="M86.4333 377.009C86.4333 377.009 81.4136 418.672 109.523 452.805C137.633 486.939 154.197 501.997 155.201 503.504C156.205 505.009 118.559 565.747 109.021 602.389L177.288 612.93C177.288 612.93 218.951 548.179 227.987 516.555C237.021 484.931 220.456 449.793 204.393 413.653C188.331 377.512 175.783 350.908 175.783 350.908L86.4333 377.009Z" fill="#5BA7E0"></path>
<path d="M147.259 523.063C152.297 549.185 171.371 572.163 196.119 581.925L210.417 555.708L147.259 523.063Z" fill="#1A2548"></path>
<path d="M86.1572 388.524C86.2712 391.793 86.5504 395.625 87.1207 399.877L171.265 381.277L86.1572 388.524Z" fill="#1A2548"></path>
<path d="M229.993 235.959C229.993 235.959 219.091 255.685 198.872 273.607C176.787 293.183 148.676 325.809 152.692 370.484C152.692 370.484 190.339 361.449 188.331 391.567C186.324 421.684 158.213 410.641 158.213 410.641C158.213 410.641 151.187 429.716 149.68 474.892C148.175 520.068 162.456 570.637 218.449 572.775C284.205 575.284 316.727 514.789 310.809 416.163C310.809 416.163 303.272 413.033 300.268 413.151C291.256 413.504 278.809 414.783 279.185 391.064C279.688 359.441 308.801 364.963 308.801 364.963C308.801 364.963 308.028 315.585 279.688 286.155C253.587 259.049 243.547 248.007 241.037 234.453L229.993 235.959Z" fill="#EF372C"></path>
<path d="M219.453 232.947C219.453 232.947 208.549 252.673 188.331 270.595C166.245 290.171 147.672 316.775 151.688 361.449C151.688 361.449 184.316 355.425 182.308 385.543C180.3 415.66 147.672 407.629 147.672 407.629C147.672 407.629 140.645 426.704 139.139 471.88C137.633 517.056 151.915 567.625 207.908 569.763C273.664 572.272 306.185 511.777 300.268 413.151C300.268 413.151 268.143 419.676 268.645 388.053C269.147 356.429 298.26 361.951 298.26 361.951C298.26 361.951 297.487 312.573 269.147 283.143C243.045 256.037 233.005 244.995 230.496 231.441L219.453 232.947Z" fill="#F89B0F"></path>
<path d="M222.213 140.336L204.143 384.288L228.989 383.535L238.025 140.336H222.213Z" fill="#1A2548"></path>
<path d="M199.876 416.163L227.484 415.66C227.484 415.66 220.959 523.08 217.947 557.715C215.447 586.471 213.637 639.791 213.096 657.067C213.001 660.075 210.38 662.371 207.385 662.071C204.805 661.813 202.811 659.704 202.709 657.115C201.867 635.701 198.311 543.548 197.868 501.997C197.367 454.813 199.876 416.163 199.876 416.163Z" fill="#1A2548"></path>
<path d="M184.379 414.895C182.855 413.736 180.728 413.485 178.864 413.995C176.843 414.548 175.109 415.872 173.667 417.393C163.813 427.78 167.017 443.431 170.063 455.807C172.027 463.795 175.037 473.689 172.973 481.917C172.408 484.169 171.244 486.349 169.632 488.007C169.936 487.139 170.077 486.2 169.992 485.225C169.669 481.549 166.428 478.832 162.753 479.155C159.079 479.477 156.361 482.719 156.684 486.393C156.815 487.892 157.449 489.215 158.384 490.255C158.36 490.248 158.336 490.243 158.313 490.237C158.527 490.469 158.765 490.672 159 490.88C159.021 490.899 159.039 490.919 159.06 490.937C161.555 493.105 165.124 493.939 168.4 493.353C175.453 492.093 178.459 486.567 179.725 480.087C181.807 469.437 178.215 458.619 175.516 448.109C173.464 440.117 169.819 429.624 174.997 422.049C175.695 425.193 178.604 427.423 181.899 427.133C185.484 426.819 188.135 423.657 187.82 420.072C187.62 417.791 186.261 415.896 184.379 414.895Z" fill="#1A2548"></path>
<path d="M245.765 415.548C247.384 414.525 249.525 414.459 251.337 415.128C253.304 415.853 254.917 417.323 256.223 418.961C265.144 430.159 260.603 445.475 256.501 457.544C253.855 465.331 250.003 474.929 251.349 483.305C251.719 485.599 252.691 487.871 254.153 489.66C253.925 488.769 253.865 487.821 254.035 486.857C254.673 483.224 258.136 480.796 261.769 481.435C265.403 482.072 267.831 485.535 267.192 489.168C266.932 490.651 266.187 491.915 265.165 492.869C265.189 492.865 265.213 492.863 265.239 492.859C265.005 493.071 264.749 493.253 264.497 493.44C264.475 493.456 264.456 493.475 264.433 493.491C261.761 495.437 258.133 495.959 254.92 495.092C248.001 493.229 245.484 487.464 244.781 480.899C243.625 470.109 248.136 459.641 251.731 449.404C254.465 441.619 259.001 431.479 254.496 423.485C253.529 426.559 250.44 428.528 247.181 427.956C243.637 427.333 241.268 423.955 241.891 420.411C242.287 418.153 243.804 416.384 245.765 415.548Z" fill="#1A2548"></path>
<path d="M248.316 136.069H210.417V133.559H248.316V136.069Z" fill="#1A2548"></path>
<path d="M209.911 141.335C207.833 141.241 206.224 139.484 206.316 137.407L206.495 133.395C206.587 131.317 208.345 129.708 210.423 129.8C212.499 129.892 214.108 131.651 214.016 133.728L213.839 137.74C213.747 139.817 211.988 141.425 209.911 141.335Z" fill="#1A2548"></path>
<path d="M249.064 140.581C246.987 140.489 245.377 138.731 245.469 136.653L245.647 132.641C245.74 130.564 247.497 128.956 249.575 129.047C251.652 129.139 253.261 130.897 253.169 132.975L252.992 136.987C252.9 139.064 251.141 140.673 249.064 140.581Z" fill="#1A2548"></path>
<path d="M248.567 119.253H210.668V116.744H248.567V119.253Z" fill="#1A2548"></path>
<path d="M248.567 103.692H210.668V101.183H248.567V103.692Z" fill="#1A2548"></path>
<path d="M210.161 124.519C208.085 124.427 206.476 122.668 206.568 120.591L206.745 116.579C206.837 114.501 208.596 112.892 210.673 112.984C212.751 113.077 214.36 114.835 214.268 116.912L214.089 120.924C213.997 123.001 212.239 124.611 210.161 124.519Z" fill="#1A2548"></path>
<path d="M249.315 124.519C247.237 124.427 245.628 122.668 245.72 120.591L245.899 116.579C245.991 114.501 247.749 112.892 249.825 112.984C251.903 113.077 253.512 114.835 253.42 116.912L253.243 120.924C253.151 123.001 251.392 124.611 249.315 124.519Z" fill="#1A2548"></path>
<path d="M250.319 107.954C248.241 107.862 246.632 106.103 246.724 104.026L246.903 100.015C246.995 97.9375 248.753 96.3282 250.829 96.4202C252.907 96.5122 254.516 98.2708 254.424 100.348L254.247 104.359C254.155 106.436 252.396 108.046 250.319 107.954Z" fill="#1A2548"></path>
<path d="M217.445 142.595L240.033 142.092C240.033 142.092 245.053 108.461 246.559 92.3987C248.064 76.336 241.037 63.7867 223.468 63.2841C205.9 62.7827 201.383 65.292 200.88 74.8294C200.379 84.368 198.371 106.956 217.947 106.956C217.947 106.956 216.943 132.556 217.445 142.595Z" fill="#F89B0F"></path>
<path d="M200.88 74.8295C200.509 81.8735 199.328 96.0255 206.615 102.95C210.28 103.211 214.029 102.396 217.172 100.484C218.797 99.4948 220.291 98.2055 221.196 96.5335C222.721 93.7175 222.369 90.2681 221.609 87.1574C220.819 83.9241 219.631 80.7868 218.081 77.8401C222.967 76.8001 225.473 70.5922 224.565 65.6802C224.413 64.8548 224.152 64.0642 223.813 63.3108C223.695 63.3055 223.588 63.2882 223.468 63.2855C205.9 62.7828 201.383 65.2921 200.88 74.8295Z" fill="#F9AF0B"></path>
<path d="M217.696 111.473C221.453 111.761 224.937 111.041 228.62 110.235C230.231 109.88 231.879 109.513 233.275 108.635C235.42 107.285 236.745 104.728 236.612 102.197C236.612 102.197 234.009 106.203 228.739 106.453C223.468 106.704 217.696 106.956 217.696 106.956V111.473Z" fill="#1A2548"></path>
<path d="M217.683 106.444C220.115 106.509 222.547 106.573 224.979 106.639C228.481 106.732 232.379 106.683 234.932 104.284C237.537 101.836 237.783 97.8507 237.853 94.2747C237.96 88.872 238.068 83.468 238.175 78.064" stroke="#1A2548" stroke-width="0.666667" stroke-miterlimit="10" stroke-linecap="round" stroke-linejoin="round"></path>
<path d="M180.3 323.3C180.3 323.3 181.931 321.041 184.191 331.959C186.449 342.876 186.072 357.183 185.32 363.959C184.567 370.735 182.684 383.535 174.025 375.253C165.367 366.971 160.849 343.253 163.108 334.971C165.367 326.688 180.3 323.3 180.3 323.3Z" fill="#1A2548"></path>
<path d="M167.752 253.932L153.696 229.183L147.672 231.065L152.908 258.169C158.812 262.575 163.108 265.324 163.108 265.324C165.064 262.633 166.579 258.599 167.752 253.932Z" fill="#1A2548"></path>
<path d="M125.085 211.865C131.796 217.723 139.491 221.529 148.049 223.536L142.401 235.207C133.477 229.181 124.901 223.197 122.073 217.888L125.085 211.865Z" fill="#F5F5F5"></path>
<path d="M148.049 223.536L158.967 229.936C158.967 229.936 161.601 221.653 163.108 211.865L155.201 208.477C155.201 208.477 154.825 219.395 148.049 223.536Z" fill="#F5F5F5"></path>
<path d="M122.637 218.265C126.779 224.1 134.496 231.629 142.961 235.295L148.049 223.536L158.967 229.936C158.967 229.936 163.296 219.395 163.296 211.677" stroke="#1A2548" stroke-width="0.666667" stroke-miterlimit="10" stroke-linecap="round" stroke-linejoin="round"></path>
<path d="M129.1 386.045C129.1 386.045 165.492 382.531 180.425 379.017" stroke="#1A2548" stroke-width="0.666667" stroke-miterlimit="10" stroke-linecap="round" stroke-linejoin="round"></path>
<path d="M246.345 179.188C239.296 174.127 229.211 172.707 220.887 174.265C218.692 174.677 216.472 175.291 214.676 176.619C212.881 177.947 211.573 180.117 211.8 182.339C212.027 184.561 214.133 186.58 216.341 186.245C214.248 187.4 211.744 189.424 210.437 191.425C209.132 193.427 209.041 196.44 210.895 197.949C212.504 199.261 214.837 198.991 216.885 198.649C214.539 199.481 212.505 200.696 210.907 202.605C210.279 203.355 209.7 204.299 209.911 205.255C210.036 205.825 210.428 206.301 210.853 206.701C212.604 208.353 215.164 209.104 217.529 208.659C212.544 209.941 208.929 215.237 207.269 220.111C206.824 221.417 206.56 222.881 207.084 224.16C207.963 226.311 210.917 227.06 213.009 226.049C215.101 225.037 216.328 222.74 216.671 220.441C223.379 220.299 228.335 219.661 235.013 219.017V224.413C236.141 225.22 237.105 225.464 238.391 224.943C244.409 222.503 248.931 217.083 251.176 210.988C254.853 201.003 256.635 187.576 247.544 180.108C247.155 179.789 246.755 179.483 246.345 179.188Z" fill="#FAB6A8"></path>
<path d="M213.877 207.737C217.555 205.584 221.964 204.709 226.184 205.299" stroke="#1A2548" stroke-width="0.666667" stroke-miterlimit="10" stroke-linecap="round" stroke-linejoin="round"></path>
<path d="M214.488 189.341C218.856 187.723 223.612 187.161 228.237 187.719" stroke="#1A2548" stroke-width="0.666667" stroke-miterlimit="10" stroke-linecap="round" stroke-linejoin="round"></path>
<path d="M234.639 174.208C237.509 174.635 240.267 175.807 242.567 177.576" stroke="#1A2548" stroke-width="0.666667" stroke-miterlimit="10" stroke-linecap="round" stroke-linejoin="round"></path>
<path d="M215.071 198.716C220.013 197.016 225.272 196.239 230.496 196.433" stroke="#1A2548" stroke-width="0.666667" stroke-miterlimit="10" stroke-linecap="round" stroke-linejoin="round"></path>
<path d="M101.787 202.797C101.787 202.797 118.525 184.588 128.151 176.565C137.777 168.541 151.709 158.487 156.827 156.956C156.827 156.956 145.505 159.489 139.992 161.944C124.282 149.479 116.31 152.492 116.055 160.616C104.687 166.832 97.5567 168.476 110.773 185.297L101.787 202.797Z" fill="#1A2548"></path>
<path d="M139.709 161.724C137.991 160.373 136.367 159.209 134.835 158.219C128.606 161.613 115.624 169.625 107.679 181.095C108.554 182.383 109.577 183.776 110.773 185.297L110.424 185.977C118.192 175.824 128.286 167.463 139.709 161.724Z" fill="#5BB0E6"></path>
<path d="M123.478 190.147C121.356 187.664 117.337 187.992 115.786 190.867C115.642 191.132 115.514 191.407 115.403 191.688C114.497 193.975 114.759 196.721 116.201 198.712C117.764 200.869 120.48 201.949 123.135 202.155C126.104 202.383 129.364 201.479 131.094 199.056L123.478 190.147Z" fill="#FAB6A8"></path>
<path d="M117.89 195.415C117.491 194.681 117.912 193.689 118.647 193.296C119.383 192.903 120.311 193.023 121.048 193.413C121.785 193.804 122.367 194.429 122.909 195.063C123.021 195.193 123.22 195.281 123.223 195.452C123.225 195.624 122.873 195.475 123.038 195.428C122.6 196.204 122.142 197.012 122.137 197.903C122.132 198.793 122.749 199.755 123.638 199.8C124.699 199.853 125.371 198.711 125.793 197.736" stroke="#1A2548" stroke-width="0.666667" stroke-miterlimit="10" stroke-linecap="round" stroke-linejoin="round"></path>
<path d="M116.008 190.553C117.991 188.556 121.505 188.351 123.707 190.105" stroke="#1A2548" stroke-width="0.666667" stroke-miterlimit="10" stroke-linecap="round" stroke-linejoin="round"></path>
<path d="M133.155 188.561C133.863 189.004 134.836 188.973 135.513 188.487C136.192 188 136.532 187.087 136.337 186.275" stroke="#1A2548" stroke-width="0.666667" stroke-miterlimit="10" stroke-linecap="round" stroke-linejoin="round"></path>
<path d="M141.925 183.516C142.633 183.959 143.607 183.928 144.284 183.441C144.961 182.955 145.301 182.041 145.108 181.231" stroke="#1A2548" stroke-width="0.666667" stroke-miterlimit="10" stroke-linecap="round" stroke-linejoin="round"></path>
<path d="M127.895 185.885C128.457 183.671 130.708 182.012 132.989 182.131" stroke="#1A2548" stroke-miterlimit="10" stroke-linecap="round" stroke-linejoin="round"></path>
<path d="M139.055 178.18C139.475 176.38 141.311 175.025 143.155 175.155" stroke="#1A2548" stroke-miterlimit="10" stroke-linecap="round" stroke-linejoin="round"></path>
<path d="M140.099 184.061C141.205 185.287 142.313 186.512 143.42 187.737C143.777 188.132 144.144 188.544 144.301 189.053C144.523 189.773 144.243 190.619 143.636 191.065C143.029 191.512 142.139 191.527 141.517 191.1" stroke="#1A2548" stroke-width="0.666667" stroke-miterlimit="10" stroke-linecap="round" stroke-linejoin="round"></path>
<path d="M138.084 193.975C138.908 195.097 140.333 195.751 141.723 195.643C143.112 195.533 144.419 194.667 145.057 193.428" stroke="#1A2548" stroke-width="0.666667" stroke-miterlimit="10" stroke-linecap="round" stroke-linejoin="round"></path>
<path d="M162.336 328.02C162.336 328.02 183.844 326.295 192.517 323.523C201.191 320.751 218.633 307.531 226.983 307.117C235.332 306.704 233.04 312.879 229.015 315.929C224.989 318.98 216.429 324.412 216.429 324.412C216.429 324.412 232.456 324.095 241.176 323.612C249.895 323.131 261.803 327.413 261.523 332.061C261.244 336.711 255.416 336.268 255.416 336.268C255.416 336.268 262.029 338.861 261.749 343.509C261.471 348.157 255.667 345.796 252.568 345.611C252.568 345.611 260.36 348.365 259.34 353.152C258.321 357.939 252.285 356.387 247.869 355.299C243.452 354.209 234.664 354.321 234.664 354.321C234.664 354.321 253.904 356.851 254.203 362.54C254.501 368.228 247.124 367.693 236.741 365.423C236.741 365.423 219.695 370.527 208.247 370.753C196.799 370.98 187.829 370.987 187.829 370.987L171.265 375.756C171.265 375.756 156.889 356.232 162.336 328.02Z" fill="#FAB6A8"></path>
<path d="M228.612 344.693C237.692 344.744 246.768 345.488 255.735 346.917" stroke="#1A2548" stroke-width="0.666667" stroke-miterlimit="10" stroke-linecap="round" stroke-linejoin="round"></path>
<path d="M228.992 335.08C238.569 334.908 248.163 335.592 257.619 337.121" stroke="#1A2548" stroke-width="0.666667" stroke-miterlimit="10" stroke-linecap="round" stroke-linejoin="round"></path>
<path d="M229.743 354.171C232.253 354.171 234.763 354.171 237.272 354.171" stroke="#1A2548" stroke-width="0.666667" stroke-miterlimit="10" stroke-linecap="round" stroke-linejoin="round"></path>
<path d="M180.425 378.013C160.096 382.013 139.481 384.661 118.872 386.707C100.012 388.577 76.358 394.048 60.7214 380.149C58.2678 377.968 56.1272 375.441 54.3252 372.697C46.835 361.296 46.9861 346.713 46.0709 333.547C45.1422 320.181 44.6793 292.648 45.4646 279.263C46.3637 263.941 48.8933 245.993 62.6105 236.623C74.6413 228.405 91.3506 227.513 100.159 240.388C106.111 249.087 108.547 259.421 108.897 269.841C109.213 279.303 109.405 298.253 109.712 307.693C109.785 309.944 110.306 326.679 112.392 327.524C113.136 327.825 113.964 327.827 114.766 327.824C134.021 327.755 158.716 325.809 180.3 323.801C180.3 323.801 170.335 332.188 170.763 348.9C171.264 368.476 180.425 378.013 180.425 378.013Z" fill="#5BB0E6"></path>
<path d="M167.631 324.813C160.964 328.715 157.991 336.829 157.039 344.495C155.437 357.384 158.245 370.78 164.887 381.941" stroke="#1A2548" stroke-width="0.666667" stroke-miterlimit="10" stroke-linecap="round" stroke-linejoin="round"></path>
<path d="M101.938 318.359C102.075 322.16 104.937 325.476 108.394 327.065C111.851 328.653 115.801 328.78 119.592 328.456" stroke="#1A2548" stroke-width="0.666667" stroke-miterlimit="10" stroke-linecap="round" stroke-linejoin="round"></path>
<path d="M819.852 615.688C820.279 615.423 820.704 615.154 821.127 614.885C823.748 620.575 824.043 625.745 825.291 631.64C826.288 636.344 826.913 638.624 827.773 642.13C828.272 644.163 826.784 646.145 824.693 646.239L711.513 651.268C711.513 651.268 716.137 633.948 733.829 630.176C745.748 627.634 753.849 629.957 761.87 619.465C769.882 626.737 781.429 628.916 791.947 627.279C801.968 625.72 811.223 621.07 819.852 615.688Z" fill="#1A2548"></path>
<path d="M894.911 350.536C894.911 350.536 913.023 383.029 898.576 421.493C884.128 459.959 806.131 486.859 800.095 492.963L825.193 607.409L755.923 614.437C755.923 614.437 707.713 499.901 711.749 459.331C715.552 421.112 824.803 372.501 824.803 372.501L894.911 350.536Z" fill="#5281CA"></path>
<path d="M703.821 277.801C705.301 275.496 707.624 273.873 709.969 272.459C719.668 266.608 730.867 263.269 742.185 262.852C744.319 262.773 746.617 262.847 748.339 264.112C750.684 265.835 751.135 269.335 750.059 272.039C748.983 274.743 746.719 276.787 744.383 278.523C734.348 285.984 721.503 289.567 709.055 288.375C703.165 287.811 700.356 283.2 703.821 277.801Z" fill="#1A2548"></path>
<path d="M748.319 279.124C748.537 272.723 749.033 266.331 749.803 259.972C749.973 258.557 750.161 257.128 750.677 255.799C752.009 252.363 755.332 250.036 756.836 246.671C758.392 243.189 757.819 239.005 759.547 235.607C761.403 231.953 765.417 230.063 768.908 227.917C770.831 226.736 780.185 217.56 773.524 216.784C772.277 216.639 771.067 217.191 769.932 217.731C767.06 219.096 764.187 220.461 761.315 221.827C760.069 222.419 758.633 223.02 757.361 222.489C755.799 221.84 755.315 219.855 754.057 218.723C752.099 216.96 749.031 217.744 746.559 218.66C736.005 222.569 725.543 227.132 716.635 234.011C714.509 235.651 712.448 237.457 711.056 239.752C707.581 245.48 707.711 255.495 707.296 261.956C706.704 271.177 706.849 280.447 707.735 289.644C721.653 288.257 736.68 286.885 748.319 279.124Z" fill="#CC543D"></path>
<path d="M707.204 286.347C720.679 282.199 733.277 275.229 743.951 266.019L744.76 278.523L716.519 288.288L707.204 286.347Z" fill="#1A2548"></path>
<path d="M815.531 378.264C849.099 384.765 871.624 374.5 922.824 357.183C932.997 353.741 948.956 346.835 954.448 337.605C942.532 301.037 929.66 253.589 909.399 220.899C905.913 215.275 900.068 211.399 893.813 209.244C887.559 207.088 880.873 206.513 874.259 206.344C866.988 206.156 860.177 204.221 849.161 204.837C841.2 205.283 836.761 210 829.755 213.805C817.136 220.659 804.883 228.185 793.064 236.34C784.555 242.212 782.401 252.9 776.753 263.441L758.677 299.96C757.035 289.672 755.888 279.064 754.245 268.776C741.144 277.649 726.06 283.576 710.424 285.993C708.624 286.272 706.732 286.496 705.027 285.857C703.321 285.22 701.904 283.439 702.3 281.661C704.201 299.511 708.88 317.253 716.349 333.575C718.868 339.079 721.755 344.54 726.041 348.813C733.647 356.396 745.003 361.428 755.671 360.195C766.34 358.961 777.883 352.288 784.845 345.261C792.404 337.632 796.808 331.931 803.903 323.869L815.531 378.264Z" fill="#5BB0E6"></path>
<path d="M785.577 344.507C779.336 335.947 769.569 329.96 759.052 328.533C756.815 323.661 754.375 318.883 751.741 314.213C749.668 310.539 747.436 306.881 744.36 303.995C739.492 299.427 732.943 297.165 726.537 295.289C719.165 293.129 711.381 291.311 703.853 292.628C706.271 306.733 710.415 320.604 716.349 333.575C718.868 339.079 721.755 344.54 726.04 348.813C733.647 356.396 745.003 361.428 755.671 360.195C766.34 358.96 777.883 352.288 784.845 345.261C785.101 345.003 785.328 344.761 785.577 344.507Z" fill="#5BBDED"></path>
<path d="M791.561 210.359C791.561 210.359 693.931 252.273 686.903 257.292C679.876 262.312 674.353 280.884 674.353 280.884L658.199 240.133C658.199 240.133 672.848 251.269 683.891 247.755C694.935 244.241 790.683 208.477 790.683 208.477L791.561 210.359Z" fill="#F89B0F"></path>
<path d="M714.857 243.17C714.287 243.671 711.969 245.892 710.636 249.894C710.029 251.71 710.241 253.561 711.228 255.111C712.752 257.501 715.963 259.042 720.511 259.563C728.664 260.499 751.905 248.303 763.069 242.443C765.575 241.127 767.552 240.088 768.896 239.432C772.044 237.896 773.732 232.989 772.437 229.137C771.136 225.264 767.283 223.747 761.58 224.871C746.175 227.904 717.603 241.822 714.857 243.17ZM721.385 263.608C720.917 263.608 720.475 263.584 720.055 263.536C712.744 262.699 709.385 259.66 707.856 257.26C706.232 254.712 705.861 251.567 706.841 248.628C708.768 242.846 712.385 240.014 712.539 239.896L712.869 239.69C714.139 239.059 744.169 224.223 760.805 220.945C768.495 219.432 774.263 222.016 776.229 227.864C778.176 233.656 775.621 240.6 770.651 243.027C769.36 243.658 767.404 244.684 764.928 245.984C748.593 254.56 730.561 263.608 721.385 263.608Z" fill="#F89B0F"></path>
<path d="M787.012 268.873C783.523 263.608 780.033 258.344 776.543 253.079C776.375 246.919 777.128 240.516 778.365 234.483C778.719 232.764 779.051 230.733 777.875 229.452C776.709 228.181 774.549 228.417 773.233 229.523C771.917 230.629 771.263 232.343 770.765 234.008C769.972 236.675 769.444 239.423 769.195 242.197C766.792 239.327 764.449 236.591 761.375 234.492C758.3 232.393 754.46 231.172 750.861 232.047C748.597 232.597 746.535 233.973 745.132 235.871C741.225 234.235 736.512 235.715 733.02 238.139C729.327 237.708 725.267 238.688 721.917 240.336C720.648 240.961 719.401 241.767 718.647 242.983C717.893 244.199 717.757 245.908 718.645 247.025C719.161 247.676 719.948 248.049 720.743 248.257C722.929 248.827 725.224 248.287 727.46 247.972C732.8 247.22 738.315 247.792 743.397 249.625C743.133 249.631 742.871 249.636 742.608 249.641C737.116 249.336 731.255 249.995 725.883 251.201C723.643 251.704 721.395 252.412 719.535 253.783C717.673 255.155 716.237 257.285 716.151 259.627C716.112 260.685 716.407 261.843 717.245 262.467C718.225 263.196 719.623 262.963 720.692 262.38C721.761 261.796 722.652 260.913 723.713 260.313C725.94 259.057 728.627 259.183 731.153 258.881C731.28 258.865 731.435 258.827 731.467 258.7C731.499 258.573 731.244 258.507 731.265 258.636C732.119 263.871 733.351 269.719 735.711 274.448C738.069 279.177 742.791 283.159 747.971 282.709C747.987 282.708 748.001 282.703 748.015 282.695C751.7 286.843 754.179 295.604 757.864 299.751C757.864 299.751 772.561 286.452 778.541 280.931C784.52 275.409 787.012 268.873 787.012 268.873Z" fill="#DD5F3F"></path>
<path d="M730.314 238.481C736.801 237.603 743.533 238.729 749.405 241.673" stroke="#1A2548" stroke-width="0.666667" stroke-miterlimit="10" stroke-linecap="round" stroke-linejoin="round"></path>
<path d="M744.361 235.484C749.717 236 755.508 236.711 759.4 240.503" stroke="#1A2548" stroke-width="0.666667" stroke-miterlimit="10" stroke-linecap="round" stroke-linejoin="round"></path>
<path d="M745.609 283.081C748.049 282.796 750.369 281.563 751.997 279.685" stroke="#1A2548" stroke-width="0.666667" stroke-miterlimit="10" stroke-linecap="round" stroke-linejoin="round"></path>
<path d="M721.043 233.955C721.343 235.19 722.401 236.138 723.588 236.588C724.776 237.04 726.083 237.062 727.349 236.97C728.744 236.868 730.215 236.599 731.252 235.66C733.021 234.059 732.82 231.178 731.852 228.996C730.337 225.58 727.36 222.955 723.999 221.323C722.153 220.427 720.023 219.796 718.063 220.403C715.027 221.343 713.603 224.762 712.768 227.83C711.837 231.247 711.152 234.731 710.717 238.247C714.48 236.487 717.339 235.838 721.043 233.955Z" fill="#CC543D"></path>
<path d="M720.877 220.696C722.121 218.264 724.538 216.467 727.225 215.975C729.913 215.484 732.81 216.311 734.833 218.147C735.252 215.44 736.945 213.072 739.574 212.308C742.204 211.543 745.24 212.428 747.045 214.488C747.661 212.923 748.16 211.507 749.585 210.613C751.313 209.531 753.564 209.745 755.502 210.383C758.47 211.36 761.131 213.255 763.024 215.741C764.056 217.096 764.873 218.956 764.064 220.455C763.277 221.908 761.361 222.276 759.709 222.223C756.973 222.136 754.263 221.335 751.919 219.921C753.069 220.88 753.812 222.515 753.385 223.951C753.108 224.887 752.189 225.461 751.329 225.923C749.992 226.637 748.536 227.305 747.025 227.177C746.017 227.091 745.077 226.656 744.161 226.229C742.31 225.365 740.461 224.501 738.612 223.639C739.882 224.744 740.782 225.752 741.528 227.263C741.76 227.732 741.966 228.239 741.933 228.761C741.862 229.86 740.806 230.592 739.861 231.156C738.898 231.728 737.888 232.316 736.77 232.377C735.392 232.453 734.116 231.72 732.932 231.012C729.692 229.072 726.453 227.133 723.213 225.193C722.381 224.696 721.512 224.16 721.048 223.309C720.584 222.459 720.014 221.139 720.877 220.696Z" fill="#CC543D"></path>
<path d="M720.596 220.023C724.308 221.869 727.691 224.376 730.536 227.391C731.495 228.407 732.427 229.552 732.659 230.929" stroke="#1A2548" stroke-width="0.666667" stroke-miterlimit="10" stroke-linecap="round" stroke-linejoin="round"></path>
<path d="M721.347 234.784C720.388 232.508 719.5 230.203 718.683 227.873" stroke="#1A2548" stroke-width="0.666667" stroke-miterlimit="10" stroke-linecap="round" stroke-linejoin="round"></path>
<path d="M715.271 231.929C716.897 232.705 718.791 232.908 720.545 232.495" stroke="#1A2548" stroke-width="0.666667" stroke-miterlimit="10" stroke-linecap="round" stroke-linejoin="round"></path>
<path d="M734.141 217.583C737.352 220.777 739.968 224.568 741.815 228.704" stroke="#1A2548" stroke-width="0.666667" stroke-miterlimit="10" stroke-linecap="round" stroke-linejoin="round"></path>
<path d="M745.834 213.171C747.482 214.692 749.048 216.304 750.521 217.996C752.052 219.755 753.565 221.863 753.322 224.181" stroke="#1A2548" stroke-width="0.666667" stroke-miterlimit="10" stroke-linecap="round" stroke-linejoin="round"></path>
<path d="M166.869 84.3307L138.584 88.6267L137.447 79.4294L166.921 74.868L166.869 84.3307Z" fill="#31AB60"></path>
<path d="M121.5 111.152C122.385 107.873 126.59 107.103 132.537 108.711C138.487 110.317 143.923 115.645 143.041 116.973C141.847 118.775 136.615 121.605 130.666 119.997C124.718 118.389 120.614 114.429 121.5 111.152Z" fill="#31AB60"></path>
<path d="M142.409 117.048C142.385 117.052 142.36 117.056 142.335 117.059C141.879 117.105 141.471 116.773 141.425 116.317L137.74 80.1546C137.695 79.6986 138.029 79.2959 138.481 79.2453C138.939 79.1986 139.345 79.5306 139.392 79.9866L143.076 116.148C143.12 116.58 142.827 116.967 142.409 117.048Z" fill="#31AB60"></path>
<path d="M149.589 106.828C150.333 103.515 154.5 102.564 160.512 103.915C166.524 105.267 172.184 110.357 171.36 111.721C170.244 113.571 165.139 116.624 159.127 115.273C153.115 113.923 148.844 110.141 149.589 106.828Z" fill="#31AB60"></path>
<path d="M170.697 111.829C170.677 111.833 170.656 111.836 170.635 111.839C170.18 111.892 169.768 111.567 169.715 111.112L165.588 75.924C165.535 75.468 165.853 75.0561 166.315 75.0028C166.771 74.9494 167.183 75.2748 167.236 75.7308L171.363 110.919C171.413 111.352 171.12 111.748 170.697 111.829Z" fill="#31AB60"></path>
</g>
<defs>
<clipPath id="clip0_220_43206">
<rect width="666.667" height="666.667" fill="white" transform="translate(82 22.2869)"></rect>
</clipPath>
</defs>
</svg>